<?xml version="1.0" encoding="UTF-8" standalone="no"?>
<svg
   xmlns:dc="http://purl.org/dc/elements/1.1/"
   xmlns:cc="http://creativecommons.org/ns#"
   xmlns:rdf="http://www.w3.org/1999/02/22-rdf-syntax-ns#"
   xmlns:svg="http://www.w3.org/2000/svg"
   xmlns="http://www.w3.org/2000/svg"
   xmlns:sodipodi="http://sodipodi.sourceforge.net/DTD/sodipodi-0.dtd"
   xmlns:inkscape="http://www.inkscape.org/namespaces/inkscape"
   inkscape:version="1.0beta2 (2b71d25, 2019-12-03)"
   sodipodi:docname="оплата и доставка.svg"
   id="svg841"
   viewBox="0 0 3500 3500"
   style="clip-rule:evenodd;fill-rule:evenodd;image-rendering:optimizeQuality;shape-rendering:geometricPrecision;text-rendering:geometricPrecision"
   version="1.1"
   height="35mm"
   width="35mm"
   xml:space="preserve"><metadata
   id="metadata845"><rdf:RDF><cc:Work
       rdf:about=""><dc:format>image/svg+xml</dc:format><dc:type
         rdf:resource="http://purl.org/dc/dcmitype/StillImage" /><dc:title></dc:title></cc:Work></rdf:RDF></metadata><sodipodi:namedview
   inkscape:current-layer="svg841"
   inkscape:window-maximized="0"
   inkscape:window-y="47"
   inkscape:window-x="306"
   inkscape:cy="-55.426427"
   inkscape:cx="396.85039"
   inkscape:zoom="0.92915965"
   showgrid="false"
   id="namedview843"
   inkscape:window-height="1193"
   inkscape:window-width="2040"
   inkscape:pageshadow="2"
   inkscape:pageopacity="0"
   guidetolerance="10"
   gridtolerance="10"
   objecttolerance="10"
   borderopacity="1"
   inkscape:document-rotation="0"
   bordercolor="#666666"
   pagecolor="#ffffff" />
 <defs
   id="defs835">
  <style
   id="style833"
   type="text/css">
   <![CDATA[
    .fil0 {fill:#010101}
   ]]>
  </style>
 </defs>
 <g
   transform="translate(-8741.9942,-13041.803)"
   id="Слой_x0020_1">
  <metadata
   id="CorelCorpID_0Corel-Layer" />
  <path
   inkscape:connector-curvature="0"
   id="path838"
   d="m 8960.05,14268.53 c -2.29,18.02 3.27,9.53 -14.15,14.35 4.51,-18.9 -3.52,-12.3 14.15,-14.35 z m 1431.48,-741.51 c -4.26,2.53 -8.02,-4.92 -7.08,7.81 0.93,12.61 5.48,7.47 7.08,8.81 0.98,-1.58 10.24,0.78 0,-16.62 z m 563.02,1376.09 c 14.83,-2.71 17.85,-8.64 21.61,-20.56 -13.55,3.67 -18.7,4.68 -21.61,20.56 z m 135.14,-207.15 c 11.39,-4.59 19.6,-12.42 32.1,-19.32 19.4,-10.71 21.47,-7.05 39.83,-13.64 -2.16,-9.47 0.85,-14.74 -14.32,-12.3 -5.77,0.93 -20.3,8.61 -23.87,10.59 z m -38.94,55.7 c 31.95,-17.35 9.53,1.46 45.26,-29.08 17.3,-14.8 30.06,-11.61 36.63,-35.98 -23.56,4.03 -65.64,41.98 -81.89,65.06 z m -760.03,-746.11 -0.35,24.8 c 15.36,14.25 31.4,26.03 29.81,-12.14 -1.24,-29.63 -8.7,-28.72 -29.46,-12.66 z m 706.18,1762.4 c -4.54,2.08 -74.38,53.8 -37.79,61.35 11.84,2.44 25.26,-17.94 32.47,-25.81 7.25,-7.9 20.98,-23.87 5.32,-35.54 z m 157.89,-1022.48 c 25.06,-1.42 66.83,-44.2 81.64,-51.81 14.69,-7.55 19.98,-2.03 17.69,-26.64 -23.96,-3.28 -25.22,6.54 -53.3,33.54 -14.05,13.52 -37.94,30.69 -46.03,44.91 z m -907.24,1208.12 c 69.75,29.91 101.82,-13.43 99.45,-19.51 -2.36,-6.05 -32.21,2.62 -54.11,-1.3 -28.05,-5.02 -46.1,-12.95 -45.34,20.81 z m -250.61,3.52 -1.56,-29.74 c -25.58,-1.05 -19.19,6.56 -27.34,29.64 -6.43,18.22 -9.31,22.59 -8.46,47.31 27.71,11.22 44.25,-2.26 54.11,-35.29 -14.06,-12 15.79,11.5 -6.62,-4.25 -0.83,-0.58 -4.07,-2.91 -4.94,-3.55 z m 1148.98,-1385.16 c 52.51,19.05 68.21,6.6 95.36,-0.06 19.41,-4.76 16.71,2.49 25.65,-11.55 -14.73,-9.09 -49.77,-5.87 -71.05,-7.2 -30.62,-1.93 -54.56,-19.18 -49.96,18.81 z m -988.45,953.36 c 15.46,24.64 77.37,21.94 81.37,-12.46 -20.65,1.36 -15.49,8.84 -39.53,12.47 5.99,-10.12 20.2,-22.4 28.46,-28.35 16.91,-12.18 23.26,-7.14 28.28,-27.82 -17.35,2.17 -56.15,26.13 -77.89,37.59 -11.44,6.03 -15.01,8.35 -20.69,18.57 z m -88.03,-926.89 c 11.26,0.5 91.08,-5.34 97.49,-34.81 -20.77,-8.23 -46.31,-6.33 -67.87,-3.82 -39.55,4.61 -41.29,3.89 -29.62,38.63 z m 827.29,-22.77 c 17.2,6.72 43.27,5.35 64.35,8.05 14.45,1.85 18.95,3.05 32.98,-0.91 1.09,-0.31 11.38,-4.32 12.16,-4.72 12.37,-6.52 4.89,2.12 11.79,-9.49 -11.3,-13.5 -5.37,-3.09 -27.58,-6.53 -49.74,-7.7 -101.73,-34.19 -93.7,13.6 z m -636.3,-7.26 c -2.95,43.19 14.92,25.21 42.73,21.91 33.67,-3.99 40.53,9.63 66.6,-9.02 -3.21,-41.07 -101.21,-16.66 -109.33,-12.89 z m -408.89,14.7 c 0.15,38.95 16.42,23.95 49.53,19.98 30.9,-3.71 55.07,-0.11 58.31,-29.66 -25.93,-10.6 -88.61,-6.64 -107.84,9.68 z m -78.08,47.71 c 3.99,-5.73 2.35,-3.72 5.97,-9.5 4.45,-7.1 1.57,-1.32 6.49,-10.39 -21.17,-7.6 -52.72,-14.61 -75.77,-21.35 -5.68,-1.66 -31.76,-10.51 -38.68,-3.76 -5.77,5.62 0.9,14.3 5.63,33.78 z m 1278.47,13.93 c -7.68,4.55 -31.55,39.13 -55.51,58.71 -40.57,33.17 -34.53,39.56 -55.02,58.69 30.37,-7.41 86.7,-60.77 131.15,-87.72 -1.49,-11.45 -10.52,-24.39 -20.62,-29.68 z m -617.48,-68.25 c 14.36,6.6 81.92,-7.74 104.31,-13.05 17.16,-4.07 23.05,-2.98 30.12,-16.67 -27.92,-13.63 -43.93,-8.43 -75.6,-3.32 -32.09,5.19 -54.58,2.52 -58.83,33.04 z m 227,-17.52 c -14.79,44.87 16.09,26.37 68.75,26.53 26.05,0.1 35.17,4.86 46.55,-12.68 -10.4,-18.77 -23.44,-16.97 -50.67,-16.8 -21.08,0.13 -48.29,-2.18 -64.63,2.95 z m -844.75,-45.42 c -12.54,-6.93 -47.2,-8.42 -60.1,-8.31 -50.6,0.46 -116.26,4.24 -142.58,49.52 20.69,4.07 23.52,-10.58 44.28,-16.67 10.11,-2.97 16.21,-0.62 24.97,-1.4 15.5,-1.4 51.53,-12.92 77.35,-14.63 24.97,-1.66 39.47,3.92 56.08,-8.51 z m 1176.1,1211.5 c -16.39,-24.64 -19.93,4.45 -50.36,37.86 -10.04,11.01 -53.97,43.33 -41.08,65.53 10.07,17.34 23.78,-2.82 28.92,-9.91 19.12,-26.38 76.38,-72.62 62.52,-93.48 z M 9332.77,14040.18 c -18.12,33.85 82.38,193.46 104.3,181.95 25.1,-13.19 -19.49,-38.51 -19.52,-38.53 -12.72,-10.61 -22.3,-28.33 -31.66,-44.43 -17.56,-30.22 -36.54,-90.74 -53.12,-98.99 z m 720,1874.44 c -12.39,60.28 72.81,36.87 109.6,29.04 8.14,-1.74 12.03,-2.18 19.35,-5.88 11.96,-6.02 10.83,-4.49 14.85,-14.54 -15.94,-8.95 -55.52,-4.64 -76.05,-4.13 -32.52,0.81 -48.21,-10.91 -67.75,-4.49 z m 804.43,-105.78 c 19.43,-4.13 22.66,-17.3 35.24,-32.36 9.59,-11.47 22.55,-21.07 36.92,-35.09 0.15,-0.15 91.37,-78.47 43.79,-74 -7.37,0.69 -95.93,84.64 -111.23,99.67 -14.7,14.44 -29.06,21.91 -4.72,41.78 z M 9748.23,14665.95 c 9.56,-8.8 12.88,-8.55 10.53,-23.38 -32.61,-2.11 -92.2,72.03 -127.62,105.37 -24.27,22.85 -32.81,22.99 -35.62,41.9 23.42,14.31 33.98,0.03 52.64,-16.46 16.87,-14.91 6.89,-6.72 16.53,-25.69 5.4,-10.62 10.12,-12.09 18.32,-19.72 z m 520.82,-705.67 c 31.24,13.41 113.17,-19.68 150.68,-28.2 17.74,-4.03 43.59,-6.71 56.33,-10.94 -2.44,-39.61 -63.17,-16.37 -106.54,-5.22 -72.4,18.62 -98.91,11.56 -100.47,44.36 z m -1017.4,45.27 c -6.83,-24.23 -32.75,-13.71 -45.4,-0.04 -20.73,22.39 -29.71,66.27 -38,80.64 -16.83,29.18 -10.92,23.3 -21.72,62.57 -1.35,4.9 -3.18,12.13 -4.85,16.74 -2.5,6.86 -5.35,10.47 -5.87,15.42 -2.23,20.97 33.36,23.36 42.76,-4.04 5.19,-15.13 8.18,-51.58 11.18,-69.14 3.76,-21.97 9.65,-42.39 17.48,-62.89 22.11,-57.83 16.27,-21 44.42,-39.26 z m 1739.71,802.32 c 3.68,-33.64 34.44,-45.14 51.92,-66.29 -32.34,7.27 -65.42,41.15 -71.77,65.6 16.16,7.7 10.58,8.75 25.39,16.95 l 59.46,-35.17 c 28.05,-16.74 153.95,-110.81 155.6,-135.72 -17.11,-9.95 -57.79,11.47 -66.51,21.9 -20.26,24.22 11.82,2.27 -11.11,30.52 -9.83,12.12 -14.4,12.82 -24.63,26.52 -8.41,11.27 -38.93,38.85 -53.13,44.33 -27.63,10.65 -4.03,-16.15 -47.28,20.24 -14.32,12.04 1.72,4.89 -17.94,11.12 z m -2.02,804.35 c -25.26,-5.72 -135.84,92.07 -174.35,120.61 -15.12,11.2 -46.97,28.25 -49.94,50.29 1.92,1.4 6.75,5.59 8.71,7.27 18.27,-2.74 15.35,-15.21 53.48,-40.98 19.22,-12.98 41.66,-28.06 60,-41.71 27.75,-20.64 115.13,-74.25 102.1,-95.48 z m -1204.26,-888.01 c 11.69,-9.95 14.87,-11.23 13.9,-32.83 -20.9,2.56 -14.71,6.88 -30.56,20.26 l -82.07,61.89 c -23.91,19.58 -82.33,69.74 -108.54,82.11 2.16,9.7 3.14,16.32 9.39,25.1 28.21,-0.78 47.09,-22.55 64.25,-36.22 30.59,-24.36 15.82,-15.89 22.56,-28.42 6.86,-12.74 70.53,-58.09 83.63,-68.64 9.88,-7.96 18.42,-15.58 27.44,-23.25 z m 509.08,711.35 c 20.44,-29.69 22.94,-195.97 17.93,-249.55 -1.96,-21.02 10.65,-79.37 -15.25,-56.65 -20.86,18.3 -2.15,127.98 -3.14,163.15 -0.72,25.38 -5.15,58.47 -9.39,83.53 -8.22,48.58 -22.68,61.45 9.85,59.52 z m -935.67,-274.32 c 0.02,-25.08 9.36,-95.65 0.53,-110.55 -7.53,-12.71 -27.61,-16.27 -37.42,-2.72 -5.16,7.12 8.81,178.93 22.93,203.54 17.82,31.03 5.96,20.89 16.49,39.14 9.52,-14.82 0.74,-38.91 -1.08,-58.93 z m 652.54,-1332.93 c 39.6,-31.71 152.63,-98.18 198.31,-119.26 68.25,-31.5 83.09,-14.48 84.62,-43.24 -42.54,-16.86 -167.47,67.13 -206.34,86.49 l -74.56,44.19 c -26.07,22.19 -13.88,7.32 -40.39,17.12 1.85,30.63 20.28,29.17 38.36,14.7 z m 960.23,1735.24 c -23.52,1.17 -68.42,43.68 -88.35,59.37 -29.57,23.27 -55.48,42.58 -85.5,66.94 l -131.99,96.61 c -23.57,13.93 -31.91,16.06 -31.55,30.6 0.73,29.9 31.65,-8.69 44.06,-17.94 l 263.14,-194.02 c 15.85,-10.76 38.35,-18.41 30.19,-41.56 z m -426.19,257 c 23.72,9.71 35.22,-11.69 58.85,-32.01 41.3,-35.49 133.05,-90.05 177.28,-127.55 16.63,-14.11 40.77,-32.86 56.9,-44.67 l 143.12,-110.93 c 11.7,-9.4 20.88,-13.99 18.88,-34.32 -25.86,-4.4 -97.08,66.6 -115.01,82.08 l -112.69,90.58 c -18.45,13.01 -37.68,28.77 -58.23,43.26 -41.25,29.07 -157.3,105.88 -169.1,133.56 z m -937.08,-431.31 c -9.2,26.44 -1.35,34.96 27.3,33.42 193.83,-10.43 165.3,-4 354.76,-53.2 42.81,-11.11 41.48,-12.86 45.76,-23.74 -30.11,-9.85 -163.21,25.71 -205.17,33.51 -77.6,14.43 -205.72,4.12 -222.65,10.01 z m 1676.22,-684.35 c -34.65,3.64 -97.94,64.56 -139.17,96.55 -44.48,34.51 -225.59,148.41 -235.94,161.17 4.29,11.99 6.71,10.8 14.2,20.5 l 120.96,-75.1 c 50.66,-38.4 227.66,-156.64 247.87,-187.13 -3.92,-8.42 -3.23,-8.87 -7.92,-15.99 z m -3.72,92.65 c -27,-0.26 -39.17,16.77 -55.09,29.21 -17.53,13.69 -31.75,23.34 -51.72,37.1 l -207.7,147.81 c -66.33,42.27 -28.22,10.77 -58.39,22.33 -15.72,6.02 -35.69,27.04 -20.76,50.14 21.85,0.12 85.64,-46.32 110.62,-62.11 l 206.58,-140.43 c 49.39,-33.89 95.03,-53.34 76.46,-84.05 z m 8.41,64.76 c -5.84,-13.4 7.98,-8.04 -12.52,-10.02 -10.88,-1.04 -11.23,2.86 -16.89,8.28 -94.19,90 -257.09,208.47 -367.07,272.5 -19.14,11.14 -54.85,32.69 -40.91,55.15 9.31,14.99 20.17,-4.67 54.03,-29.48 88.32,-64.7 193.19,-129.37 289.25,-201.78 20.12,-15.16 105.22,-69.12 94.11,-94.65 z m -218.49,-435.03 c 34.99,8.48 123.47,-4.87 167.9,-2.74 54.66,2.63 100.12,10.15 149.94,23.64 4.32,20.92 2,35.06 7.39,56.17 4.74,18.53 9.69,32.48 14.08,53.55 l 14.39,83.02 c 3.33,21.41 -0.97,14.42 13.05,21.96 18.97,-40.85 -4.38,-110.43 -7.81,-153.53 -1.43,-18.04 -4.92,-62.08 -11.53,-73.81 -12.34,-21.92 -34.91,-11.73 -62.42,-22.31 -35.42,-13.62 -30.83,-8.62 -70.18,-8.19 -24.46,0.27 -51.51,-4.43 -76.49,-5.71 -25.95,-1.33 -58.17,0.08 -84.85,0.26 -30.57,0.21 -63.33,-8.14 -53.47,27.69 z m -619.61,1403 c 23.9,-0.25 23.08,-10.92 39.47,-24.27 l 117.15,-86 c 25.43,-17.75 51.03,-39.7 77.12,-58.23 74.37,-52.83 152.32,-116.65 228.05,-174.1 25.4,-19.26 50.43,-38.58 77.81,-57.67 13.37,-9.32 79.02,-46.41 65.03,-61.29 -15.43,-16.43 -45.95,18.83 -78.2,43.75 l -498.5,377.7 c -15.57,8.76 -27.57,15.42 -27.93,40.11 z m 812.99,-892.86 c -16.3,-26.06 -50.26,19.34 -97.1,54.82 -138.57,104.96 -113.48,106.4 -298.31,218.34 l -104.96,68.55 c -9.84,6.47 -32.23,15.49 -22.42,32.12 8.8,14.92 24.54,-4.13 31.1,-10.65 18.94,-18.84 80.58,-59.92 102.78,-70.73 l 26.13,-12.02 c 11.86,-8.11 2.87,-2.88 9.1,-7.82 9.53,-7.55 7.33,-5.43 19.21,-10.46 55.34,-23.44 165.92,-112.8 219.78,-152.84 l 97.35,-76.17 c 11.1,-8.15 27.69,-16.6 17.34,-33.14 z m -1481.86,-77.79 c 0.61,1.02 1.1,2.45 1.37,3.29 l 6.2,40.79 c 0.27,3.31 -4.02,55.55 26.67,48.55 14.01,-3.2 8.15,-3.35 1.84,-55.68 -4.06,-33.63 -15.13,-109.32 1.1,-138.8 7.49,-13.59 21.34,-30.35 -3.17,-31.83 -14.57,-0.88 -4.28,-0.2 -8.96,2.4 -15.65,8.71 -1.64,16.88 -35.87,41.1 -75.6,53.5 -87.34,78.64 -141.9,124.86 -15.07,12.77 -16.94,15.93 -10.01,36.12 20.02,6.31 37.12,-10.36 49.06,-22.52 6.27,-6.38 9.26,-11.74 18.12,-19.92 47.01,-43.35 8.74,-13.79 32.12,-40.03 9.24,-10.36 48.79,-44.1 63.47,-48.08 l 0.02,28.37 -63.8,49.1 c -26.68,21.94 -71.44,51.93 -36.41,70.25 z m -59.55,1296.22 c -21.18,51.83 68.83,50.44 101.71,50.81 171.28,1.93 254.39,31.11 420.11,-3.2 21.24,-4.39 20.04,-2.2 20.05,-21.94 -23.97,-8.16 -96.66,5.16 -131.26,6.83 -85.14,4.11 -192.7,-12.34 -279.46,-18.16 -21.31,-1.43 -52.53,3.59 -69.6,-7.31 -1.02,-0.65 -11.68,-24.28 -61.55,-7.03 z m 783.63,-2543.73 c -1.66,16.26 39.57,160.7 47.33,185.15 16.01,50.43 35.92,85.71 50.01,123.62 5.55,14.92 9.62,29.51 17.42,41.76 41.32,64.82 78.23,219.23 108.3,298.06 7.55,19.79 6.89,31.01 26.53,33.11 10.59,-17.41 -9.19,-57.99 -18.83,-87.3 -37.15,-112.87 -47.02,-147.1 -92.89,-262.87 -11.33,-28.6 -23.95,-52.88 -34.54,-79.75 -25.51,-64.76 -38.1,-118.93 -58.6,-178.48 -5.23,-15.19 -11.73,-27.76 -16.75,-42.57 -7.02,-20.71 -4.29,-28.93 -27.98,-30.73 z m 138.89,1829.26 407.82,-258.18 184.06,-133.43 c 9.51,-7.38 86.4,-56.18 58.57,-72.79 -15.22,-9.08 -32.97,15.18 -41.26,22.36 -14.17,12.26 -27.84,18.67 -41.67,30.34 -13.73,11.58 -18.08,18.81 -35.59,32.1 l -206.73,148.95 c -68.3,45.06 -232.46,142.64 -299.88,191.04 -20.99,15.07 -37.68,12.52 -25.32,39.61 z M 9395.26,15175.3 c 12.1,31.82 -0.55,177.28 14.14,197.95 6.49,-11.67 -0.46,-177.42 -0.19,-212.05 0.55,-71.52 18.83,-126.09 21.29,-195.35 17.24,-2.94 12.8,-0.06 16.08,-12.04 -11.58,-12.83 -23.65,-15.81 -40.23,-22.2 -17.6,-6.78 -25.26,-13.82 -42.52,-20.93 -108.59,-44.75 -118.27,-3.52 -92.03,19.91 14.81,13.23 49.72,-7.3 124.96,31.19 -7.5,17.57 -19.49,13 -24.25,60.61 -2.92,29.32 -6.64,46.84 -3.72,74.81 l 13.03,150.93 c 9.42,-1.79 5.27,5.74 7.87,-8.25 0.03,-0.16 0.86,-18.57 0.94,-19.82 0.77,-12.94 0.41,-34.56 4.63,-44.76 z m 1173.95,396.3 c -19.32,-6.48 1.25,-6.15 -19.66,-10.71 l -35.55,40.9 c -2.72,6.51 -2.01,1.76 -1.78,8.54 0.92,27.54 36.06,-11.69 47.4,-18.46 l 104.49,-64.76 c 24.59,-11.2 31.4,-15.49 54.54,-30.29 l 205.89,-132.71 c 11.22,-7 14.3,-10.12 25.03,-17.32 12.01,-8.06 17.12,-7.37 28.55,-13.83 15.19,-8.58 21.98,-25.13 45.8,-38.89 l 239.09,-184.18 c 15.89,-13.37 36.95,-19.52 33.19,-48.85 -18.4,-2.44 -21.31,6.98 -46.25,27.26 l -84.32,68.12 c -68.53,47.59 -134.58,110.85 -220.04,169.42 l -184.22,124.7 c -17.9,11.55 -28.77,16.32 -47.15,29.06 -15.71,10.9 -33.14,21.49 -49.63,30.86 -17.6,9.99 -87.45,51.17 -95.38,61.14 z m 618.89,-384.2 c 8.65,23.24 -3.86,-13.96 6.86,8.12 1.69,3.48 13,-5.64 -2.38,8.23 l -70.14,53.4 c -123.01,88.6 -262.26,188.25 -393.75,266.79 -19.04,11.37 -28.04,20.43 -48.27,31.82 -28.59,16.12 -199.71,131.85 -221.08,151.87 -9.75,9.14 -11.62,14.66 -9.77,27 26.05,3.88 38.7,-22.93 53.97,-38.1 17.16,-17.07 39.27,-29.51 56.15,-41.22 38.46,-26.66 76.44,-49.88 116.95,-77.73 113.1,-77.73 226.4,-139.37 356.64,-231.77 71.43,-50.67 158.48,-101.72 234.34,-159.43 25.29,-19.24 27.77,-57.09 -9.58,-30.99 -19.92,13.91 -47.68,21.03 -69.94,32.01 z m 97.87,247.8 28.13,1.5 c 16.53,-47.91 13.64,-130.25 21.61,-186.51 15.57,-109.93 6.59,-208.53 17.17,-295.86 7.11,-58.6 24.69,-253.13 -33.39,-269.01 -21.96,-6.01 -15.09,15.27 -8.73,26.16 8.5,14.57 13.88,11.68 16.12,34.93 2.7,28.11 3.2,72.55 4.18,101.4 z m -1390.36,-241.07 -41.91,5.56 c 4.97,-33.04 58.97,-40.49 86.26,-43.43 -3.54,13.65 -33.96,50.77 -47.96,55.39 -1.25,-5.4 1.64,-2.73 3.61,-17.52 z m 32.76,22.29 c 5.66,-13.29 4.1,-8.44 13.46,-18.24 9.76,-10.22 -1.08,-8.49 15.97,-9.6 5.44,21.54 -8.7,27.04 -29.43,27.84 z m 92.92,-70.06 c -2.39,11.37 -58.1,67.11 -49.86,14.93 2.41,-15.27 14.2,-15.84 49.86,-14.93 z m -39.48,64.51 c 8.75,-11.35 38.31,-32.16 50.86,-44.36 10.04,-9.76 17.81,-23.89 58.66,-9.73 19.17,6.64 8.38,3.16 12.47,8.7 -23.06,11.66 -30.31,6.45 -55.17,8.09 -11.44,10.93 -17.74,15.22 -18.36,33.76 z m -123.68,51.23 c 62.67,-12.77 45.72,3.12 108.36,-5.28 40.66,-5.46 173.18,-31.26 194.69,-59.34 0.22,-0.29 5.26,-7.59 5.3,-7.67 3.31,-6.04 3.78,-1.98 4.03,-11.64 0.68,-26.55 -32,-37.33 -54.36,-41.9 -84.33,-17.23 -126.03,-23.13 -216.49,-1.27 -146.73,35.46 -56.27,92.4 -45.96,115.33 2.43,5.41 -2.42,1.04 4.43,11.77 z m 80.43,-929.81 c -3.25,2.86 -2.14,-1.25 -5.3,6.56 -5.21,12.91 0.87,17.9 0.97,39.09 -35.62,-17.56 -71.08,-99.72 -101.5,-120.88 l -13.45,15.1 c -15.17,-14.24 -56.96,-27.84 -65.69,-39.28 -14.54,-19.06 -18.76,-54.18 -39.39,-64.72 -13.62,13.56 0.44,21.6 4.54,46.81 -47.69,-19.46 -78.02,-35.18 -98.16,-81.88 -7.27,-16.85 -11.41,-29.48 -34.02,-23.53 -3.08,23.08 16.04,22.66 15,41.17 -19.88,2.89 -28.9,-21.04 -49.68,-33.63 -30.92,-18.72 -28.82,-9.71 -46.2,-42.65 -41.51,-4.1 -31.41,-6.13 -60.71,-24.01 -27.9,-17.02 -114.73,-60.21 -130.19,-81.43 -10.56,-14.5 -7.59,-17.99 -20.73,-22.68 -17.02,45.02 66.26,76.46 99.83,91.47 6.84,17.19 12.65,43.8 20.42,64.46 12.86,34.19 40.39,76.74 62.14,107.15 13.72,19.2 23.14,38.02 47.45,33.55 8.09,-19.56 -4.44,-24.61 -11.47,-44.15 -5.92,-16.49 -6.33,-35.87 -14.12,-49.19 -4.65,9.26 -3.5,36.89 -1.41,45.97 -13.92,-4.05 -6.38,-1.71 -21.86,-27.19 -28.8,-47.41 -31.74,-55.03 -51.04,-110.65 16.29,-0.74 57.73,27.7 63.91,38.7 9.29,16.56 -1.97,12.12 15.9,34.85 9.49,12.07 37.79,70.05 59.95,101.02 8.94,12.5 15.75,19.08 24.3,30.58 19.92,26.77 48.61,29.89 25.77,-21.56 -11.87,-26.73 -13.89,-4.84 -19.4,-31.35 l -7.22,16.88 c -15.4,-20.98 -50.19,-83.5 -59.4,-111.13 17.36,6.5 44.25,32.15 71.63,46.84 31.61,16.96 56.46,73.2 77.14,104.9 13.2,20.22 62.66,114.5 80.08,98.28 0.45,-0.87 1.87,-2.38 0.93,-2.79 l -14.25,-43.75 c -15.5,-22.55 -16.48,1.24 -33.65,-34.05 -9.46,-19.45 -46.74,-70.46 -49.96,-88.7 l 63.85,32.45 c 16.75,11.55 26.67,42.54 37.07,60.44 17.52,30.12 58.09,105.14 92.08,104.35 2.35,-15.03 0.27,-15.69 -5.37,-30.12 -7.26,-18.56 -9.93,-14.58 -15.08,-30.15 -8.94,18.92 -1.02,12.13 -8.01,21.75 -16.16,-12.83 -51.78,-77.96 -54.56,-99.03 37.45,14.66 73.73,39.32 96.98,71.01 17.86,24.33 52.64,79.93 88.04,79.76 2.57,-15.61 -10.42,-59.43 -16.16,-74.64 z m 627.12,1895.86 c 11.84,-8.01 21.26,-5.46 33.56,-0.99 -4.35,3.84 6.63,6.93 -17.23,6.31 -12.84,-0.34 -11.02,-2.34 -16.33,-5.32 z m 15.32,-312.75 c 6.15,-27.48 37.85,-32.79 65.88,-37.35 72.65,-11.82 148.7,-24.6 220.26,-6.94 18.63,4.59 21.57,4.97 28.76,18.26 -40.33,32.44 -247.79,33.35 -314.9,26.03 z m 268.46,321.11 c 12.57,-7.57 30.24,-5.94 45.81,-3.75 -9.8,8.99 -8.66,6.84 -24.8,9.53 -20.76,3.47 -16.54,6.58 -21.01,-5.78 z m 87.69,-177.61 c -11.32,49.88 -114.58,39.99 -169.21,45.84 -76.33,8.18 -126.11,-0.97 -198.45,-3.77 l -8.7,-29.09 c 75.32,7.54 120.93,16.61 200.8,5.64 33.86,-4.65 64.68,-4.65 96.98,-13.21 63.79,-16.91 60.95,-26.16 78.58,-5.41 z m -8.3,-119.9 c -3.53,76.58 -344.2,46.74 -384.06,22.97 l 4.93,-2 c 0.62,-0.12 1.94,-0.5 2.66,-0.58 l 42.28,2.32 c 18.34,0.29 36.82,-0.09 55.11,0.71 l 199.49,-21.83 c 63.96,-8.27 80.98,-31.6 79.59,-1.59 z m -317.63,234.8 c -24.53,-1.87 -24.21,-12.19 -18.55,-36.66 28.5,-2.15 66.66,5.14 99.43,3.93 60.43,-2.23 139.58,-13.47 191.71,-17.55 26.72,-2.08 51.46,-27.13 69.95,-25.88 9.72,40.76 -37.96,43.4 -71.55,49.67 -46.41,8.67 -228.48,29.72 -270.99,26.49 z m 322.21,-5.06 c 11.97,-3.33 19.81,-10.75 25.46,-8.45 3.26,8.26 -4.85,42.57 -55.13,42.65 -93.19,0.15 -87.81,18.41 -196.15,9.67 -31.3,-2.52 -43.02,14.53 -55.18,-5.74 14.17,-6.15 137.86,-13.88 166.59,-16.87 z m 42.17,35.8 c 3.13,-11.25 10.04,-23.3 11.59,-33.5 3.23,-21.35 -4.2,-14.86 -15.11,-27.67 8.85,-20.11 56.86,-73.16 -9.27,-60.12 -0.51,-11.96 1.61,-17.35 -0.1,-28.03 -2.17,-13.5 -5.63,-10.03 -7.56,-26.32 22.82,-22.75 40.9,-30.92 -0.99,-63.33 5.65,-34.74 10.84,-35.75 -5.04,-62.33 -15.81,-26.47 -3.59,-31.66 -33,-47.41 -35.12,-18.8 -81.48,-29.36 -130.96,-29.77 -38.12,-0.31 -168.23,16.08 -206.51,34.36 l -52.42,28.26 c -37.81,20.99 -26.73,89.14 1.4,105.96 50.1,29.96 287.18,36.02 363.25,12.91 7.44,-2.26 20.25,-6.28 28.38,-9.73 18.49,-7.86 14.73,-13.73 27.46,-6.85 19.02,21.65 -89.72,44.75 -110.14,47.41 -70.47,9.14 -188.96,21.63 -261.25,1.82 -44.12,-12.09 -31.68,-50.13 -70.79,-28.45 -0.18,29.36 20.97,46.76 40.68,54.39 -5.94,11.73 -0.39,1.09 -5.97,8.4 -8.21,10.75 -12.9,14.4 -13.1,30.8 -0.31,25.6 9.58,23.71 26.09,33.8 l 4.73,46.5 c -27.06,16.4 -50.39,15.36 -46.18,59.33 30.22,23.2 83.18,29.9 130.44,29.07 155.7,-2.75 126.71,11.86 296.96,-24.31 22.74,-4.83 87.1,-15.53 69.59,-44.92 -7.87,-13.21 -18.33,-4.13 -32.18,-0.27 z M 9002.28,14619.99 c 6.21,8.35 8.05,12.07 12.18,23.55 -19.72,1.94 -18.48,-8.63 -12.18,-23.55 z m 9.19,-43.67 c 1.98,0.81 17.41,-2.22 7.76,20.7 -1.99,-1.58 -6.3,-4.27 -7.97,-7.58 -6.44,-12.73 -1.11,-10.36 0.21,-13.12 z m -1.39,-384.34 c -8.36,-29.62 5.12,-60.05 18.61,-84.19 6.8,9.55 10.94,34.33 6.76,48.56 -0.83,2.84 -7.52,14.67 -9.94,19.57 -8.15,16.5 -1.16,10.8 -15.43,16.06 z m 69.12,-178.15 c 18.84,26.6 13.63,51.17 -4.65,75.83 l -8.05,8.64 -13.29,-41.95 c 0.01,-0.48 16.01,-33.55 25.99,-42.52 z m -43.56,575.5 c 26.44,4.38 29.67,18.72 41.47,40.52 l 30.94,52.97 c -12,-0.59 -17.79,-3.48 -28.62,-8.54 -15.27,-7.15 -12.81,-6.34 -18.77,-23.74 -7.34,-21.44 -21.06,-42.1 -25.02,-61.21 z m -53.81,-226.83 -14.3,1.83 c -7.72,31.44 15.79,79.84 27.06,102.64 9.99,20.19 38.78,74.08 44.18,94.73 -63.27,-15.77 -52.41,-35.96 -73.36,-107.96 -6.13,-21.08 -6.79,-29.13 -30.15,-29.03 -7.16,22.53 3.31,30.84 10.26,53.22 8.55,27.51 14.71,40.92 2.62,56.63 -4.83,-11.66 -7.86,-16.49 -11.99,-30.49 -3.32,-11.28 -4.79,-23.68 -8.06,-32.68 -48.47,6.2 7.65,59.48 -4.25,82.68 -9.94,-10.65 -3.54,-4.27 -9.09,-15.57 -9.13,-18.59 0.75,-10.72 -15.31,-16.62 -8.05,35.22 18.28,57.68 32.56,75.19 15.11,-2.99 4.42,-3.66 20.2,-6.61 l 16.45,31.33 -116.94,-49.88 c 6.4,-20.13 25.44,-48.6 35.44,-72.64 28.73,-69.03 59.19,-95.53 80.63,-139.36 10.71,-21.87 24.81,-56.87 39.45,-73.13 0.3,0.38 45.79,147.19 51.51,162.6 9.14,24.63 19.21,49.86 30.14,75.59 9.49,22.33 29.75,58.57 34.73,79.79 -22.72,-7.88 -46.43,-19.89 -56.93,-40.62 l -60.37,-130.18 c -5.45,-13.71 -19.78,-66.03 -24.48,-71.46 z m 160.7,-390.82 c -3.45,8.83 -6.29,12.14 -11.74,21.93 -7.34,13.21 -1.42,14.23 -14.46,13.46 -7.71,-17.51 -2.33,-34.55 1.55,-55.87 10.89,3.89 14.22,8.49 24.65,20.48 z m 45.08,-116.9 c 4.71,22.98 -7.11,46.83 -15.73,61.47 -16.78,-2.26 -13.86,-2.84 -21.27,-8.07 4.26,-15.65 25.12,-45.08 37,-53.4 z m 61.31,-52.12 -18.22,0.49 0.87,-17.39 c 11.33,4.01 11.49,3.88 17.35,16.9 z m -119.05,897.07 c 4.31,-12.15 16.16,-10.26 5.35,-34.23 -6.47,-14.35 -14.72,-23.14 -16.9,-36.64 52.7,10.66 55.38,110.06 100.36,79.42 -4.18,-24.37 -27.97,-9 -36.88,-49.76 18.44,2.18 7.89,9.27 51.25,39.89 l 118.44,72.09 c 19.13,10.26 11.92,5.67 21,25.31 10.18,22.01 16.09,10.83 19.93,30.93 -27.49,-0.3 -102.97,-49.58 -132.23,-62.27 z m 361.21,-819.83 c 7.84,10.66 7.47,15.48 18.95,17.79 15.28,3.07 14.58,-2.32 19.78,21.35 l -39.82,-16.02 z m 32.62,998.57 c 11.46,18.19 0.71,74.17 -0.69,98.52 -5.95,-7.52 -2,7.92 -6.96,-11.58 l 1.61,-81.41 c 2.8,-7.1 1.57,-2.35 6.04,-5.53 z m 4.37,-276.66 c -0.04,16.73 1.52,41.79 -9.23,55.53 -11.98,-20.63 -12.96,-26.5 -11.11,-58.67 z m 62.16,-105.2 c 8.75,-3.59 4.17,-3.09 10.69,0 -6.76,4.04 -4.06,5.29 -10.69,0 z m 73.11,973.89 c -1.47,13.62 -6.25,15.98 -14.25,27.64 -11.07,16.13 -41.14,60.11 -52.89,68.59 -9.69,-16.49 -3.66,-57.69 -34.11,-41.42 -13.02,12.84 32.75,222.5 28.22,244.28 -2.78,13.34 -14.24,19.83 -15.37,32.08 -1.66,18.08 0.42,11.63 8.14,14.47 9.46,3.5 -1.61,0.24 8.56,0.44 0.52,0.01 1.44,-0.26 2.73,-0.27 1.26,-0.01 1.77,-0.48 2.66,-0.34 13.77,36.05 2.87,68.73 2.58,82.02 -0.75,35.01 11.74,37.93 26.29,41.33 l 14.58,3.79 c 1.92,0.19 2.44,0.68 3.54,1.3 -5.17,14.16 -9.94,22.54 -15.38,37.38 -4.49,12.23 -5.42,28.57 -7.57,33.48 -37.13,-1.18 -46.36,-84.75 -46.63,-117.52 -0.24,-28.9 -5.91,-45.53 -8.31,-72.07 l -21.23,-372.79 z m -67.17,-1537.76 c 10.22,10.85 14.33,20.52 17.52,35.91 -12.37,-7.97 -7.66,-2 -13.99,-18.99 -26.47,14.42 -57.21,-40.83 -59.48,-47.39 31.69,6.55 35.5,12.84 43.39,30.84 12.54,-1.8 4.69,-2.15 12.56,-0.37 z m 118.84,2016.25 c -1.69,18.71 -15.03,32.75 -22.42,49.97 -13.13,30.61 -6.42,20.61 -41.95,17.95 -0.44,-64.64 22.62,-66.75 64.37,-67.92 z m -102.34,-2015.96 c 19.03,0.58 58.22,15.28 68.59,29.37 l 28.43,63.72 c -46.37,-18.87 -79.33,-42.77 -97.02,-93.09 z m 12.65,1647.33 c 10.65,-12.71 20.06,-24.9 30.3,-37.43 11.37,-13.92 17.78,-27.25 30.76,-41.24 9.01,-9.71 25.46,-27.58 36.29,-31.66 l 32.46,1.72 c -0.42,0.51 -76.85,69.77 -113.69,112.07 -9.04,10.37 -23.41,32.87 -37.31,38.4 -9.22,-17.3 10.15,-28.67 21.19,-41.86 z m 138.23,-1474.43 c 10.32,8.81 1.36,-9.89 12.27,10.29 -13.88,-4.19 -7.93,3.75 -12.27,-10.29 z M 9703,13969.12 c 26.3,6.73 31.62,16.23 44.51,41.08 18.66,35.99 31.93,47.33 35.15,54.81 -15.68,-3.9 -16.95,-6.79 -29.73,-13.62 -48.51,-25.93 -19.01,-13.53 -38.81,-49.98 -7.03,-12.94 -13.4,-15.85 -11.12,-32.29 z m 58.19,31.53 c 12.49,1.96 21.8,8.03 32.27,14.66 24.32,15.41 13.18,22.47 36.36,56.59 9.75,14.35 14.57,10.27 15.4,30.71 -6.01,-1.45 -47.05,-20.18 -54.62,-38.17 -9.68,-23 -22.9,-41.36 -29.41,-63.79 z m 346.87,1028.71 c -11.42,-5.33 -123.33,2.96 -148.36,4.71 -54.99,3.87 2.07,5.46 -71.73,4.08 -27.85,-0.52 -54.12,2.43 -77.04,3.46 -14.9,0.66 -16.89,-4.09 -35.91,-1.81 -13.65,1.64 -25.5,6.23 -35,6.22 l -156.77,0.19 c -36.92,-3.57 -38.8,-4.75 -37.65,-41.18 40.6,9.98 30.41,3.48 72.86,-2.25 29.58,-4 57.07,0.14 87.25,2.05 78.3,4.95 91.48,-2.07 162.34,-11.43 50.65,-6.69 122.2,-5.64 174.12,-0.11 58.3,6.2 126.45,-8.82 175.79,-1.99 19.51,35.26 9.14,227.23 8.42,284.24 -0.72,56.84 10,90.19 -27.92,120.14 -19.61,15.5 -72.64,39.46 -104.73,43.7 -17.99,2.38 -47.64,-3.01 -68.61,-5.03 l -217.79,2.05 c -55.54,0 -190.18,6.12 -245.37,-17.35 -0.33,-0.14 -9.81,-5.23 -10.69,-5.74 -1.03,-0.6 -4.49,-2.73 -5.24,-3.18 l 0.29,-332.09 c 52.41,1.68 81.89,8.77 141.36,1.2 45.97,-5.86 97.13,-10.37 144.98,-11.07 58.96,-0.86 170.97,-1.47 225.49,-11.49 35.35,-6.5 45.93,-7.16 49.91,-27.32 z m -98.14,-767.21 c 7.17,9.35 3.66,-11.73 6.52,12.21 24.65,1.86 40.41,2.16 29.04,28.06 10.36,9.27 18.22,8.15 31.24,13.71 18.97,8.11 10.46,10.03 30.7,19.81 21.53,10.39 40.72,27.41 60.19,37.46 26.94,13.88 44.72,-2.81 112.74,31.25 6,3 12.11,6.47 15.95,9.59 14.8,12.07 7.53,0.34 9.41,13.27 -28.11,-1.07 -50.7,1.43 -78.19,2.82 -24.6,1.25 -10.09,-3.3 -47.42,-27.01 -17.2,-10.93 -32.33,-17.27 -52.25,-28.22 -13.08,-7.19 -38.2,-26.82 -52.04,-18.19 2.65,14.72 26.08,21.2 55.72,39.9 10.38,6.55 19.79,12.19 29.08,17.49 14.43,8.24 21.74,7.34 30.39,17.62 -18.1,10.95 -85.11,8.08 -112.11,8.89 -4.21,-10.77 -7.61,-25.23 -12.93,-37.91 -9,-21.49 -3.87,-25.95 -7.79,-36.79 -5.19,12.5 -5.2,28.81 -5.11,45.76 -20.99,-12.1 -65.62,-104.41 -93.75,-94.01 -9.04,7.75 0.94,15.58 1.46,16.17 3.98,4.53 11.85,4.13 44.52,45.07 16.97,21.27 29.65,44.81 50.55,60.79 -71.52,11.53 -161.57,1.47 -236.17,9.8 -42.91,4.8 -175.56,1.29 -235.82,14 -31.51,6.65 -34.81,8.47 -62.08,22.45 -27.51,14.11 -33.78,19.52 -20.73,49.43 13.71,-3.19 36.95,-30.59 72.15,-33.88 -10.2,24.57 -15.16,6.03 -39.38,43.03 -29.99,45.82 -28.48,26.15 -48.36,32.13 -14.68,42.49 4.61,112.69 4.6,131.23 -0.03,44.47 6.84,90.61 -2.37,132.8 -12.56,2.89 -39.68,-12.98 -55.07,-20.33 -52.76,-25.2 -47.97,-41.98 -66.71,-56.05 -5.54,-4.16 -16.68,-8.09 -27.25,-15.03 -19.83,-13.04 -30.95,-16.39 -50.11,-32.73 8.12,-6.08 -8.48,7.25 3.89,-1.66 l 5.44,-4.68 c 0.38,-0.34 1.47,-1.33 2.04,-2.12 -14.33,-14.63 -33.55,-22.4 -52.31,-32.98 -9,-5.08 -19.52,-9.37 -27.9,-14.15 -12.65,-7.21 -13.05,-12.78 -24.48,-18 -31.77,-14.52 -27.01,-0.84 -45.95,-38.84 -35,-70.19 -79.64,-173.75 -99,-248.33 -5.46,-21.02 -10.29,-54.08 -16.56,-72.27 -15.62,-45.31 -14.59,-27.94 40.68,-113.57 11.17,-17.29 18.91,-33.62 29.69,-55.03 l 157.15,-277.66 c 11.24,3.8 9.42,4.54 18.09,10.19 l 150.14,87.03 c 26.42,14.62 60.84,32.16 82.49,48.69 19.02,14.52 57.19,52.52 87.69,48.47 -0.12,23.01 -6.24,6.29 42.59,40.45 0.34,-0.53 0.97,-1.69 0.41,-1.85 -0.55,-0.15 0.41,-1.59 0.52,-1.79 4.77,-8.37 -5.72,-3.68 6.72,-6.75 6.97,9.54 4.04,12.81 11.05,18.33 15.37,12.1 7.84,0.63 23.34,2.52 16.17,1.97 25.27,17.22 41.35,26.02 12.57,6.88 30.06,13.68 43.26,20.13 19.7,9.63 28.97,18.24 42.06,25.61 -1.55,14.06 -18.42,12.15 -5.15,9.34 13.62,20.46 27.58,14.23 55.05,21.15 -3.31,14.2 -6.46,4.05 -3.53,15.78 14.5,6.41 16.74,-4.54 41.7,4.93 z m 136.57,-44.44 c 19.21,1.13 49.43,20.31 60.35,31.84 12.93,13.64 9.69,11.93 15.63,30.98 5.76,18.46 7.41,13.05 15.41,28.9 -7.81,-0.92 -32.86,-11.87 -41.17,-15.98 -15.27,-7.55 -16.02,-16 -23.45,-32.11 l -6.1,14.95 c -52.6,-5.96 -117.64,-61.15 -128.04,-66.3 l -31.75,-14.98 c -33.94,-21.12 -19.37,-6.25 -36.21,-44.13 -4.97,3.64 -2.34,2.42 -6.1,7.92 l -5.33,8.53 c -15.28,-10.34 -15.52,-9.84 -33.73,-17.98 -44.32,-19.81 -32.86,-29.77 -48.18,-53.39 -7.94,-12.24 -10.12,-17.72 -16.2,-31.15 l -12.26,14.18 c -0.84,-28.11 -11.06,-18.32 -9.03,-31.16 4.21,-1.96 0.34,-2.13 7.79,-1.14 l 45.26,25.26 c 14.84,10.56 8.85,12.39 17.52,25.1 13.51,19.82 0.92,1.2 20.5,8.35 8.31,14.92 7.86,28.47 25.05,36.34 -4.1,-18.82 -10.78,-20.12 -13.59,-38.89 12.04,2.17 48.21,21.9 58.86,29.93 24.72,18.65 26.61,45.71 31.7,57.24 6.59,-15.37 -1.44,-8.26 -2.94,-28.08 7.23,8.02 6.41,13.7 22.66,30.28 -2.04,-29.19 -5.75,-13.4 -11.44,-32.44 12.1,0.35 52.62,24.98 65.48,32.76 28.9,17.5 21.5,40.39 43.05,57.82 7.77,-11.75 0.53,-17.71 -3.74,-32.65 z m 102.98,-633.29 c 6.97,-5.39 8.56,-10.76 19.31,-6.44 -4.03,5.08 7.67,2.24 -9.28,7.34 -6.84,2.06 -5.01,-0.15 -10.03,-0.9 z m 114.32,748.73 c 15.9,0.38 16.08,3.72 20.14,16.84 -17.41,-1.79 -18.05,-0.95 -20.14,-16.84 z m -136.17,-72.54 c 14.05,-0.99 83.14,36.48 96.93,44.82 24.19,14.63 53.03,69.23 54.38,84.38 -21.93,-10.88 -42.13,-23.37 -64.48,-36.18 -41.25,-23.64 -37.55,-30.62 -51.09,-33.68 -21.72,-4.92 8.76,7.64 -7.31,-1.06 -11.94,-13.65 -22.33,-38.52 -28.43,-58.28 z m 242.82,-266.44 c -14.41,11 -21.54,43.68 -42.91,54.72 l 23.92,-56 z m -11.16,373.88 c 14.77,8.17 40.66,42.46 41.5,56.16 l -45.25,-0.33 c 26.08,-21.63 3.34,-20.01 3.75,-55.83 z m 9.13,-125.04 c 19,4.48 21.96,7.62 21.06,30.87 -13.34,-9.1 -18.51,-17.27 -21.06,-30.87 z m -216.71,-178.86 c 16.93,1.47 14.54,-3.66 22.74,0.72 15.01,8.03 1.71,4.16 11.66,16.44 l 82.74,50.13 c 7.59,3.59 7.48,0.96 17.56,6.44 22.62,12.3 -0.59,9.03 24.2,26.03 l 67.11,43.34 c 15.9,9.08 26.84,9.2 31.83,22.66 -13.92,7.29 -92.92,-50.9 -107.77,-61.03 -165.46,-112.95 -181.04,-102.18 -341.6,-183.29 -78.35,-39.57 -157.54,-78.47 -230.34,-121.03 l -170.49,-96.19 c -12.56,-6.55 -18.34,-6.48 -31.01,-11.6 -53.72,-21.72 -21.91,3.1 -16.46,24.64 5.23,20.68 27.84,101.25 43.06,110.97 0.61,-1.02 1.13,-2.49 1.35,-3.3 3.11,-11.49 5.45,-2.29 -0.2,-24.01 -7.45,-28.58 -18.61,-49.06 -18.1,-80.07 l 54.66,30.05 c -10.24,9.87 -13.72,7.75 -11.68,28.37 3.6,36.57 28.31,70.64 29.03,98.22 -6.2,-2.19 -15.44,-5.89 -20.2,-8.89 -12.75,-8.05 -8.72,-9.21 -15.57,-14.28 -9.34,-6.91 -20.85,-1.39 -40.77,-9.88 -59.26,-25.27 -31.81,2.12 -94.35,-138.61 -7.13,-16.06 -9.24,-28.38 -15.54,-43.85 -2.8,-6.88 -15.68,-28.88 -21.03,-33.8 -37.98,3.91 0.42,50.99 20.37,89.6 10.74,20.81 6.65,8.76 16.93,21.17 12.83,15.49 15.62,34.89 23.34,52.75 5.97,13.83 7.8,13.64 11.4,29.54 -18.59,-7.26 -28.31,-8.88 -45.73,-16.22 -26.04,-10.97 -31.98,-41.47 -44.44,-65.72 -8.91,-17.35 -14.49,-19.97 -22.34,-32.84 -13.34,-21.9 -24.26,-49.96 -36.19,-73.52 -10.07,-19.88 -26.55,-72.26 -33.4,-76.56 -28.67,9.85 -5.05,43.68 2.55,60.76 11.54,25.92 4.44,11.05 21.7,24.83 15.6,12.46 23.13,37.7 32.61,56.38 13.53,26.64 40.86,60.29 45.16,87.89 -12.98,-6.04 -13.29,-18.89 -24.58,-19.51 -0.09,0 -6.67,1.46 -6.8,1.46 -14.46,0.18 4.55,0.83 -20.06,-8.41 -8.38,-3.14 -59.86,-11.55 -71.67,-4.65 7.62,20.42 29.97,19.68 51.29,29.19 22.97,10.23 34.32,9.37 42.6,35.19 -18.76,-4.25 -73.59,-34.6 -94.81,-46.57 -30.01,-16.92 -68.8,-24.75 -99.98,-39.75 -5.48,-68.65 -16.33,-86.33 15.08,-139.08 17.06,12.72 25.52,48.65 37.9,66.35 0.96,-21.21 -11.08,-31.1 -13.32,-53.05 -3.03,-29.72 -8.77,-27.01 2.04,-50.52 13.14,10.6 7.1,10.34 13.18,24.01 l 45.94,63.03 c 6.36,-10.45 -30.68,-80.26 -36.15,-98.33 -5.76,-19 -3.28,-22.47 -18.88,-26.56 -14.63,15.07 -5.82,12.45 -5.8,31.91 -46.14,-21.14 -48.05,18.49 -71.4,63.56 -9.62,18.55 -15.68,35.32 -23.66,52.46 -21.92,47.08 -14.79,17.58 -36.64,35.41 -7.2,24.19 5.4,23.25 -10.52,52.83 -6.57,12.21 -17.96,28.5 -22.82,40.73 -20.76,3.13 -34.55,-7.6 -36.07,18.48 -1.43,24.64 11.17,18.88 -4.61,42.41 l -81.13,139.16 c -6.99,13.45 -10.68,24.98 -16.76,38.17 -16.89,36.64 -15.7,1.67 -29.86,25.6 -4.15,8.01 -4.54,45.54 -8.32,63.24 -16.81,-0.4 -14.9,-5.77 -29.5,0.07 -1.09,3.92 3.03,88.09 -25.88,73.43 -24.8,-18.64 20.79,-75.16 30.42,-89.92 18.78,-28.76 25.35,-63.25 39.2,-96.39 l 73.78,-129.42 c 18.54,-28.1 27.28,-62.94 42.64,-92.85 9.22,-17.93 17.39,-24.1 27.33,-40.28 8.09,-13.17 19.41,-31.4 24.94,-42.88 9.5,-19.71 11.17,-29.16 21.06,-46.74 l 75.78,-127.3 c 31.62,-44.83 20.34,-50.37 92.43,-11.82 40.31,21.56 84.32,35.27 124.4,53.45 l 93.81,41.57 c 40.77,16.25 79.43,43.54 119.33,58.44 12.86,4.8 18.65,3.65 31.73,10.57 41.94,22.17 19.24,38.89 41.15,48.57 21.43,5.56 15.12,-5.52 35.43,1.73 48.51,17.34 30.99,5.31 61.17,28.1 l 56.12,32.48 c 20.6,11.88 29.19,2.27 41.26,14.66 l 34.04,15.95 c 15.29,6.88 5.46,-1.33 15.18,10.21 5.05,5.99 1.64,4.08 5.16,7.74 0.64,0.67 1.42,1.66 2.13,2.26 7.37,6.2 10.01,3.51 17.68,7.76 21.17,11.72 25.08,30.98 65.2,39.21 11.41,2.34 9.08,4.61 17.42,12.31 l 17.63,12.21 c 0.68,0.53 1.54,1.44 2.25,1.97 l 35.17,24.73 c 11.88,8.16 18.69,7.19 35.06,7.46 4.04,19.82 11.36,22.46 30.09,29.07 8.1,2.86 1.84,0.59 10.97,2.49 13.45,2.79 7.69,1.3 18.44,18.16 z m 266.73,156.95 c 16.68,2.26 13.61,3.4 16.95,13.14 -17.71,-2.23 -11.87,1.82 -16.95,-13.14 z m -84.6,-4.09 c -12,28.28 34.36,81.73 53.18,103.67 14.53,16.96 65.77,77.15 71,95.93 -34.47,1.38 -60.61,-51.84 -95.48,-96.79 l -59.37,-80.36 c -16.84,-18.35 -35.13,-19.65 -32.72,6.71 0.59,6.42 2.63,8.81 6.13,15.52 5.6,10.73 9.04,12.73 10.45,27.53 -20.16,-15.53 -20.54,-56.24 -46.26,-42.38 -10.42,18.33 1.5,22.63 8.3,42.29 -17.42,-1.98 -8.28,4.11 -17.31,-12.07 l -26.02,-62.87 c -17.48,-40.24 -22.11,-68.91 -41.2,-73.37 -9.87,15.63 6.47,35.93 19.84,65.03 7.14,15.52 26.96,50.79 25.28,64.55 -48.08,-29.91 -91.65,-36.26 -104.65,-69.85 -10.72,-27.69 -37.27,-116.24 -50.54,-126.59 -23.2,3.73 -14.68,7.09 -7.2,22.91 l 42.27,109.5 c -9.42,-2.68 -44.83,-20.41 -53.63,-25.67 -27.86,-16.65 -37.61,-102.93 -54.47,-132.13 -12.41,-21.49 -21.35,-6.05 -21.44,-6.02 -4.08,19.27 35.83,90.32 39.61,115.32 -13.07,-3.43 -71.31,-33.91 -84.83,-55.45 l -16.94,-50.41 c -9.15,-41.13 -8.94,-72.22 -46.25,-71.53 -1.22,36.26 33.96,79.77 38.26,114.04 -21.77,-5.86 -31.91,-17.89 -52.92,-27.92 -31,-14.79 -26.61,-5.39 -35.73,-40.79 -6.71,-26.07 -16.33,-31.79 -22.69,-53.53 -5.83,-19.89 -10.03,-41.23 -19.47,-55.35 -34.1,-0.83 -29.84,2.32 -10.59,51.73 7.73,19.83 23.47,46.96 26.52,62.15 -8.8,-2.55 -29.08,-15.09 -41.22,-22.01 -24.89,-14.21 -32.64,-49.14 -37.42,-80.9 -4.07,-26.95 -0.39,-32.28 -26.77,-32.29 -1.6,44.61 10.33,51.21 20.31,85 -13.91,-1.35 -36.34,-14.81 -45.94,-21.59 -12.72,-8.96 -16.5,-25.87 -23.26,-44.72 -9.51,-26.55 -29.33,-71.81 -19.16,-94.56 l 183.04,100.31 c 159.66,88.28 318.48,140.15 465.14,241.51 23.76,16.42 58.9,41.77 84.15,55.45 z m 101.95,67.96 c 15.95,1.54 15.55,5.91 24.26,17.9 4.87,6.7 14.89,15.69 9.83,20.7 -6.76,6.71 -31.21,-31.1 -34.09,-38.6 z m 3.9,56.31 c 13.63,11.5 62.37,54 61.68,72.97 -17.14,-2.16 -22.58,-20.35 -33.84,-34.41 -11.18,-13.94 -21.96,-14.35 -27.84,-38.56 z m 83.58,43.01 c 12.78,7.11 24.11,19.02 30.01,33.73 -18.15,-8.11 -24.22,-13.7 -30.01,-33.73 z m 47.31,86.92 c 4.59,-6.36 11.33,0 11.34,0 -5.11,1.89 7.21,10.58 -11.34,0 z m 89.58,5.01 c 25.78,-4.27 62.74,-4.75 83.61,6.12 -24.19,5.2 -65.71,5.72 -83.61,-6.12 z m -13.74,-500.53 c 1.28,3.35 3.86,18.47 3.88,18.53 3.22,10.81 8.85,6.82 20.15,38.86 14.84,42.07 84.6,167.63 112.74,225.86 19.7,40.77 76.33,145.29 79.87,174 -81.95,-1.33 -135.08,-11.02 -190.3,-12.85 6.95,-126.68 60.71,-16.09 -204.7,-193.05 l -26.82,-15.65 c -29.57,-18.22 -104.01,-69.2 -128.62,-78.77 l 34.78,-54.72 c 6.84,25.55 1.75,49.23 27.06,56.67 16.32,4.8 47.23,-15.41 10.21,-34.36 -0.67,-15.79 -3.35,-39.84 4.24,-50.46 9.11,13.26 29.19,86.78 47.53,89.34 19.77,2.75 5.1,1.04 10.79,-4.17 9.39,-11.26 4.64,-11.28 -1.91,-24.35 l -31.12,-71.06 c -15.7,-47.83 -13.41,-90.69 -30.53,-104.48 -25.23,3.35 -4.31,7.91 -37.17,32.4 -28.66,21.35 -61.03,104.45 -60.12,146.07 l -29.09,-13.62 c 5.46,-22.24 15.94,-18.99 16.41,-35.32 0.75,-25.67 -12.37,-3.9 -4.04,-33.89 6.7,-24.13 23,-48.97 14.47,-72.05 -34.41,5.45 -46.88,101.76 -60.32,119.71 -41.75,-27.08 -82.82,-53.84 -125.42,-78.6 l -126.01,-77.27 c -43.17,-25.36 -80.3,-50.71 -128.83,-74.09 l -116.59,-61.4 c -12.6,-8.52 -4.5,1.94 -11.17,-11.71 23.44,-10.82 19.19,7.37 50.4,-2.77 15.14,-4.92 32.39,-11.4 47.18,-16.54 l 285.3,-91.5 c 34.93,-10.02 61.52,-26.01 92.08,-35.06 33.59,-9.94 64.63,-24.13 95.25,-31.44 82.49,-19.72 149.67,-70.95 178.58,-70.37 11.79,45.11 26.82,64.61 38.87,109.42 4.23,15.76 13.08,36.3 19.42,52.6 22.62,58.16 7.88,36.6 42.14,101.64 15.85,30.09 64.04,128.44 63.15,150.81 h -10.75 c 2.27,7.27 8.32,24.45 11.94,31.31 5.13,9.71 3.92,7.51 8.18,7.39 0.78,-0.02 3.64,-1.55 4.24,-1.79 z m 402.89,2198.82 c 9.45,12.27 6.41,5.87 -0.08,14.39 -10.31,-9.04 -11.88,-8.17 0.08,-14.39 z m 50.8,-1695.16 c 18.25,0.01 32.34,-1.48 45.28,5.33 -13.37,14.35 -76.48,5.53 -98.93,1.78 12.48,-10.45 33.73,-7.12 53.65,-7.11 z m -118.69,1096.76 c 8.83,-13.3 59.74,-46.18 79.81,-55.93 46.45,-22.57 287.79,-76.26 297.22,31.12 -35.56,13.03 -37.28,17.42 -83.63,22.08 -60.72,6.11 -255.71,25.08 -293.4,2.73 z m 282.66,587.65 c -17.31,12.37 -106.94,36.2 -133.96,26.18 0.78,-0.67 0.8,-2.47 7.05,-5.19 l 25.31,-4.52 c 22.25,-3.66 92.99,-20.18 101.6,-16.47 z m 21.96,-719.13 c 20.71,-6.06 16.08,2.83 17.66,4.48 -2.75,1.21 -1.46,10.93 -17.66,-4.48 z m -274.83,181.53 c 24.8,-4.08 72.99,-1.89 101.53,-3.19 l 197.06,-15.09 c 33.72,-5.98 50.03,-16.47 81.76,2.1 -10.03,20.17 -171.65,34.9 -190.52,37.21 -52.55,6.44 -154.69,24.1 -201.71,2.83 z m 328.89,67.25 c -17.3,3.91 -27.89,8.44 -43.28,11.53 -31.63,6.37 -66.8,8.31 -97.25,12.81 -30.04,4.43 -167.69,32.09 -184.2,23.46 10.91,-37.12 56.44,-27.61 56.45,-27.61 23.47,-0.27 -1,0.42 17.99,-7.75 11.47,-4.93 85.26,-12.76 103.92,-14.67 33.48,-3.41 75.25,-6.28 106.21,-12.72 27.07,-5.63 70.15,-26.35 84.06,3.48 l -12.39,5.07 c -6.38,1.85 -4.51,1.01 -10.34,2.17 -7.55,1.49 -13.57,2.51 -21.17,4.23 z m 30.2,478.84 c -13.48,5.46 -29.13,7.99 -45.65,8.22 10.89,-9.01 25.2,-13.18 37.67,-20.46 12.63,-7.38 25.3,-17.74 42.46,-8.17 -4.43,15.87 8.02,3.21 -34.48,20.41 z m -302.61,-377.5 c -23.57,-5.13 -9.7,0.58 -14.86,-11.21 21.76,-12.27 208.87,-34.52 258.63,-42.52 27.15,-4.36 50.15,-11.92 81.59,-16.16 l 14.96,20.58 c -25.62,26.44 -160.59,39.05 -176.15,37.83 -77.16,-6.09 -139.13,16.94 -164.17,11.48 z m 163.72,28.14 c 37.69,-0.18 59.48,-12.09 92.98,-13.62 43.03,-1.96 49.11,-4.3 83.31,-19.73 l 13.53,19.84 c -29.47,33.51 -120.5,29.22 -172.22,38.58 -18.99,3.44 -25.37,7.58 -47.1,7.71 -63.65,0.38 -99.86,12.53 -143.26,7.43 5.79,-16.24 6.84,-25.33 24.59,-28.52 49,-8.78 97.85,-11.44 148.17,-11.69 z m 109,183.93 c 27.84,-5.82 55.76,-15.24 87.01,-20.62 -0.86,0.71 -1.98,1.69 -2.57,2.14 l -74.96,32.31 c -39.18,16.02 -241.08,76.59 -261.79,53.48 -15.86,-17.7 9.37,-20.36 22.5,-22.06 75.6,-9.82 73.68,-15.21 137.24,-27.66 29.38,-5.76 63.06,-11.41 92.57,-17.59 z m -289.76,-67.88 c 0.82,-15.86 7.25,-12.63 11.59,-32.41 35.2,-2.19 71.19,-8.91 102.49,-10.81 18.33,-1.12 29.56,2.66 47.77,0.32 l 192.97,-31.56 c 19.5,-5.94 21.99,-17.65 37.01,-8.97 -4.1,16.36 -13.43,18.39 -36.85,26.19 -13.9,4.63 -33.71,9.89 -48.91,14.54 -31.26,9.57 -67.23,14.04 -100.87,22.06 -42.86,10.23 -172.93,42.28 -205.2,20.64 z m 363.54,-287.13 c 8.28,-11.01 2.61,-5.4 16.22,-11.71 -0.59,17.87 4.47,14.86 -16.22,11.71 z m -136.57,330.51 c -72.89,9.02 -128.54,38.43 -215.35,33.7 2.01,-13.82 13.31,-30.63 29.7,-33.12 18.95,-2.87 36.92,-2.96 57.79,-6.18 60.33,-9.32 199.42,-37.21 257.3,-55.76 13.52,-4.33 33.24,-18.87 41.34,-11.13 3.52,3.36 7.46,-8.04 0.93,9.9 l -23.08,24.84 c -23.85,17.84 -121.29,34.37 -148.63,37.75 z m 194.8,-490.88 c 9.74,-10.67 1.63,-4.08 16.1,-9.63 l 50.11,-17.59 c 40.91,-16.46 113.21,-29.86 158.5,-27.9 16.7,0.72 59.19,14.32 65.98,24.24 24.59,35.9 -120.73,47.78 -133.77,47.82 -39.96,0.1 -132.96,-1.71 -156.92,-16.94 z m 29.85,71.9 c 72.43,-0.17 91.67,-12.53 155.43,-22.29 21.59,-3.3 48.08,-5 71.52,-9.03 24.19,-4.15 43.25,-14.59 64.47,-14.48 l 9.53,20.33 -42.84,21.27 c -90,36.17 -110.68,9.5 -156.87,21.02 -18.86,4.7 -91,12.5 -108.87,11.71 -26.53,-1.19 -84,-16.1 -98.14,-24.23 l -0.11,-29.89 c 18.08,2.72 8.38,3.8 24.87,9.24 10.27,3.38 16.11,2.83 28.82,5.15 20.01,3.65 30.04,11.25 52.19,11.2 z m 304.55,475.07 c -16.79,6.51 -62.6,12.57 -85.97,13.18 15.61,-12.7 23.29,-8.5 51.25,-19.48 19.44,-7.63 31.39,-23.82 34.72,6.3 z m -340.68,-396.2 c -19.68,-7.07 -8.94,3.18 -14.87,-12.38 16.58,-5.72 71.42,-2.07 100.7,-8.25 38.54,-8.15 54.77,-2.81 94.35,-3.06 111.33,-0.69 150.21,-50.26 168.6,-38.18 0.64,26.25 -17.23,15.11 -31.07,19.26 -17.28,5.18 -6.78,12.03 -83.68,30.33 -56.13,13.35 -154.3,24.73 -209.67,17.1 -3.22,-0.45 -20.51,-3.43 -24.36,-4.82 z m 27.87,243.25 c 61.99,-1.11 117.46,-8.47 173.73,-21.02 59.27,-13.22 143.04,-46.01 147.47,-46.89 -1.86,46.02 -7.69,40.95 -47.5,53.57 -120.8,38.29 -126.31,35.72 -256.97,39.52 z m -60.36,-208.03 c 161.81,0.3 154.87,5.12 305.91,-25.01 33.77,-6.74 57.79,-19.32 84.94,-25.44 l 0.24,26.11 c -118.19,41.6 -236.66,81.1 -389.31,53.55 z m 26.12,139.13 c 17.91,-11.33 23.29,-7.61 50.95,-7.44 l 152.42,-12.8 c 119.28,-18.23 146.23,-51.01 164.77,-53.92 l -3.44,32.94 c -24.24,10.62 -44.47,22.74 -73.43,32.62 -39.64,13.54 -127.87,36.25 -170.38,41.77 -29.25,3.8 -17.18,-4.88 -44.37,-7.45 -15.59,-1.47 -34.88,0.69 -50.95,0.9 -10.48,-3.24 -22.59,-17.6 -25.57,-26.62 z m 320.57,-89.46 c -77.4,47.19 -254.12,52.86 -340.29,46.43 l 19.89,-31.59 c 82.58,-6.13 142.12,7.81 220.73,-12.87 29.81,-7.85 59.69,-15.99 90.32,-24 16.16,-4.23 32.92,-13.25 44.52,-15.65 23.62,-4.88 17.33,10.17 3.61,16.67 -8.11,3.84 -11.37,3.1 -21.44,8.92 -7.44,4.3 -10.73,8.07 -17.34,12.09 z m 74.32,246.14 c -18.19,14.17 -16.62,1.89 -18.2,0.8 5.16,-3.27 1.69,-5.48 18.2,-0.8 z m -26.42,115.27 c 22.48,-6.88 5.24,-6.62 25.99,-16.55 5.91,-2.83 24.92,-11 26.63,-11.62 l 133.69,-18.7 c 25.85,-2.78 46.84,-0.1 59.25,-16.8 -3.2,-8.54 -8.94,-14.66 -16.25,-17.75 -16.63,-7.03 -41.91,6.78 -29.42,-18.49 7.12,-14.42 8.04,4.54 7.62,-23.87 -34.14,-14.39 -61.4,7.41 -95.66,-4.96 -19.23,-6.94 -25.93,-8.98 -46.86,-12.79 -9.64,-1.76 -16.93,-3.54 -23.71,-5.69 -0.27,-0.09 -11.83,-4.53 -11.84,-4.53 -6.7,-3.26 -3.98,-1.49 -7.95,-5.05 8.92,-6.27 22.02,-11.2 19.19,-24.77 -3.21,-15.42 -12.46,-6.07 -28.49,-4.77 l 1.39,-24.83 c 19.86,-13.63 39.47,-9.78 37.46,-41.35 l -28.89,1.53 c -3.27,-27.01 3.2,-29.82 8.57,-48.66 5.34,-18.71 4.98,-76.39 5.07,-98.71 0.17,-38.9 7.82,-17.96 11.62,-42.07 -12.85,-18.83 -6.93,2.01 -14.75,-20 -4.56,-12.84 -13.75,-65.69 -11.02,-76.34 3.6,-14.09 22.88,-21.91 11.91,-42.72 -9.75,-18.52 -23.26,-8.98 -42,-17.58 -14.97,-42.84 -12.06,-70.42 -80.12,-84.85 -120.13,-25.46 -152.38,-20.75 -266,26.7 -17.42,7.27 -40,17.43 -54.34,26.04 -30.81,18.51 -9.05,20.07 -30.98,48.54 -18.21,-28.09 -23.05,-37.54 -63.68,-50.38 5.74,-16.93 16.98,-27.83 20.29,-51.31 l -4.4,-197.7 c -13.42,-144.34 -5.96,-241.26 -25.49,-402.16 -7.84,-64.56 -5.23,-184.46 -38.82,-244.56 -7.37,-13.18 -19.99,-24.42 -31.12,-40.95 -7.03,-10.43 -23.38,-30.24 -23.15,-35.85 15.28,-11.27 32.36,-0.77 50.09,-0.08 24.45,0.96 3.32,-22.12 -14.79,-26.87 -52.69,-13.82 -111.55,-8.15 -165.76,-8.05 -16.1,0.03 -204.08,-18.1 -208.39,-19.88 -10.87,-6.45 -65.83,-140.77 -77.3,-163.94 -8.9,-17.99 -19.51,-33.06 -28.5,-52.17 -10.2,-21.67 -15.77,-35.12 -24.55,-55.77 -13.76,-32.4 -49.08,-76.99 -78.27,-163.14 -27.07,-79.89 -70.29,-146.97 -97.84,-223.87 -16.7,-46.59 -76.06,-198.5 -71.67,-242.17 23.05,6.52 45.55,60.25 55.65,84.54 l 128.27,299.44 c 46.89,101.06 90.73,198.12 127.48,304.26 4.85,14.01 22.25,104.41 46.64,84.35 13.43,-21.4 -18.35,-91.18 -26.3,-113.12 -64.62,-178.24 -151.63,-344.75 -219.03,-521.84 -10.85,-28.5 -51.54,-163.46 -93.61,-164.22 -16.11,-0.3 -3.93,-1.43 -11.86,3.72 l -9.03,9.72 c -0.61,-1.01 -1.15,-2.45 -1.48,-3.22 -0.32,-0.75 -1.04,-2.27 -1.43,-3.2 l -19.39,-31.35 c -19.63,2.38 -106.11,60.57 -140.3,67.83 -40.18,8.54 -65.48,24.91 -103.41,37.18 -43.53,14.09 -26.31,11.76 -45.25,22.07 -12.53,6.82 -94.24,31.47 -107.92,32.35 -3.65,-4.64 -8.08,-8.63 -12.23,-12.98 27.56,-22.8 75.52,-25.6 107.9,-35.93 25.42,-8.12 51.25,-25.2 79.67,-30.32 18.66,-3.35 14.2,0.2 23.59,-9.95 -17.93,-11.17 -23.93,-1.25 -37.71,4.81 -11.21,4.92 -28.14,5.81 -38.36,12.06 -2.91,-18.05 -1.36,-17.15 13.16,-24.71 l 86.21,-45.24 c 20.84,-11.04 40.89,-20.24 61.39,-27.63 70.76,-25.5 41.76,-46.52 15.11,-40.15 -72.38,17.28 -284.75,161.12 -360.93,181.4 -31.05,8.27 -5.97,12.69 -39.09,19.79 -14.52,3.11 -31.69,1.36 -44.69,10.5 -36.66,25.81 -41.83,19.84 -84.04,29.94 -29.85,7.14 -59.31,17.88 -89.41,25.25 -12.24,3 -42.12,5.63 -45.69,16.43 -0.16,0.49 -0.17,1.82 -0.22,2.34 -0.65,7.24 4.41,4.46 2.2,11.92 -2.17,7.35 -3,4.71 -13.29,9.59 -42.4,20.11 -41.04,22.23 -79.68,-1.09 l -75.19,-38.86 c -26.56,-13.76 -47.41,-25.18 -76.5,-37.96 -80.9,-35.55 -152.17,-76.44 -231.96,-110.99 l -39.09,-20.18 c -12.36,-5.93 -28.21,-10.16 -43.94,-9.89 -15,15.67 -11.87,18.49 -21.54,36.61 -14.34,26.87 -16.61,7.74 -10.41,40.27 -21.42,3.82 -24.41,13.5 -25.44,33.88 -1.28,25.04 -8.63,16.86 -23.64,35.48 -8.94,11.09 -17.65,25 -26.39,37.32 -15.93,22.45 -16.94,24.83 -14.61,38.9 1.79,10.78 -8.82,25.41 -15.21,41.16 -9.59,23.65 -31.63,51.69 -45.62,81.48 -20.54,43.77 -20.09,21.85 -22.98,22 -15.57,29.78 9.53,22.84 -34.67,72.67 l -28.75,43.34 c -8.14,11.72 -6.32,6.56 -11.29,22.92 -5.59,18.43 -18.07,28.08 -24.59,47.03 -22.49,65.44 -88.11,132.15 -96.58,195.32 l 40.26,33.58 c -4.63,14.83 -14.3,30.38 -9.15,48.91 24.5,4.23 28.2,-15.39 35.64,-37.58 26.54,3.68 13.77,7.31 42.04,2.2 -3.93,32.51 -55.4,106.08 -72.7,137.23 -13.7,24.68 -9.81,12.59 -26.34,28.7 -16.95,16.52 -21.13,50.91 -30.21,71.49 -11.56,26.19 -9.23,6.14 -27.11,24.22 4.23,33.83 42.34,36.32 68.16,46.78 43.52,17.65 118.7,58.66 159.01,69.38 73.82,19.64 159.69,75.73 230.43,108.38 58.96,27.2 109.08,86.18 144.09,37.85 12.72,2.29 62.42,19.56 71.86,25.48 2.95,53.68 0.37,108.33 4.19,161.34 1.87,25.82 5.7,49.5 7.09,75.73 1.4,26.62 -3.74,49.39 -2.12,75.99 5.45,89.34 16.13,223.32 10.42,311.62 -4.84,74.93 6.11,162.14 5.8,238.95 -0.12,27.76 -2.92,44.71 -1.52,71.84 2.61,50.57 8.85,101.33 19.78,147.04 10.7,44.72 20.24,86.83 33.47,127.45 37.32,2.17 11.09,-8.45 48.26,11.08 17.32,9.1 31.37,10.71 53.75,14.01 76.64,11.32 171.06,2.06 245.05,8.13 42.14,3.45 83.17,-1.86 123.45,-5.12 45.63,-3.7 78.86,7.84 125.58,7.16 40.44,-0.59 91.66,-3.13 131.11,0.02 42.86,3.42 81.57,5.82 123.71,-0.02 24.26,-3.36 34.55,-5.41 54.82,-12.72 22.93,-8.27 31.91,-5.28 33.37,-31.68 -23.73,-9.64 -35.77,-4.85 -63.08,2.04 -58.6,14.78 -160.08,9.55 -220.18,2.24 48.55,-20.84 143.74,-2.7 216.73,-14.25 24.36,-3.85 41.58,-0.46 56.77,-18.24 -8.01,-14.37 -27.13,-21.73 -44.83,-12.8 l 1.19,2.81 c 19.53,26.29 0.26,-8.31 10.32,9.39 -26.81,17.69 -55.23,9.77 -92.54,9.38 -54.19,-0.57 -43.21,-7.71 -95.45,5.82 -8.65,2.24 -83.55,2.15 -99.23,1.76 l -76.81,4.72 c -5.08,0.21 -6.44,0.07 -11.43,-0.71 -10.1,-1.57 -7.23,-1.83 -10.4,-3.42 25.12,-12.01 42.21,0.06 68.68,-13.21 -15.19,-6.63 -23.88,0.13 -43.26,2.13 13.07,-22 21.09,-1.89 16.14,-29.23 -7,-4.87 -6.72,-3.87 -18.07,-4.22 -31.2,-0.97 -14.35,-11.73 -29.66,-33.11 -2.81,-3.92 -6.36,-7.54 -11.83,-8.47 -19.97,-3.38 -5.68,12.71 -3.31,31.54 2.11,16.86 3.59,27.13 5.8,41.43 -39.75,-2.99 -82.67,-0.44 -122.77,-4.58 -17.14,-1.77 -113.93,14.55 -115.04,-7.93 -1.16,-23.37 9.42,-49.16 25.86,-65.49 l 38.11,7.08 -7.3,36.65 c 8.59,6.67 11.49,9.87 25.82,13.16 18.83,-13.69 18.86,-17.72 29.86,-40.37 15.29,-31.5 14.93,-14.74 35.77,-31.69 -6.34,-10.18 -5.74,-8.2 -15.63,-16.46 5.13,-9.1 31.32,-51.72 -4.63,-34.41 -11.56,5.57 -26.99,24.78 -32.44,33.64 l -47.75,0.26 c 5.37,-29.23 38.78,-40.78 25.78,-68.06 -23.62,-11.11 -24.61,10.6 -39.11,30.39 -11.74,16.02 -19.89,25.75 -30.02,41.89 -11.18,17.81 -40.86,85.88 -54.74,94.83 -11.43,2.69 -34.97,4 -44.98,-1.57 -6.82,-5.86 -1.78,-6.15 -0.33,-10.81 9.9,-31.75 19.26,-61.62 51.3,-76.12 8.59,-29.76 -6.33,-8.81 19.98,-47.83 11.4,-16.9 19.98,-27.46 30.01,-41.8 11.49,-16.41 60.67,-64.93 46.99,-82.75 -18.67,-1.99 -57.04,49.2 -70.07,68.1 -66.16,95.95 -44.66,85.61 -107.22,79.73 -2.32,-28.21 93.68,-157.08 122.63,-191.54 4.26,-5.07 6.62,-5.57 8.55,-12.68 5.64,-20.76 -0.12,-10.64 -2.59,-14.07 -27.04,-23.08 -136.77,167.83 -152.38,198.14 -19.53,37.89 -51.79,-2.46 -21.02,-46.64 17.32,-24.86 30.09,-46.62 48.18,-70.29 18.18,-23.77 33.99,-45.07 51.21,-67.17 20.4,-26.16 107.89,-119.63 100.97,-128.4 -26.19,-33.17 -180.37,188.98 -194.49,212.69 -5.5,9.23 -12.52,30.28 -22.74,29.74 -5,-10.9 -10.58,-42.72 -5.65,-57.98 5.81,-18 144.79,-205.96 167.07,-231.17 11.52,-13.03 36.84,-40.92 5.2,-40.63 -25.57,0.24 -78.52,90.85 -90.52,107.78 -31.45,44.35 -58.03,86.78 -86.94,127.52 -8.68,-9.54 -8.75,-24.82 -10.46,-37.6 -2.55,-18.95 -6.93,-21.13 2.95,-36.02 23.09,-34.76 104.62,-116.14 135.74,-143.75 9.83,-8.73 37.29,-38.46 52.78,-40.76 35.1,-5.21 230.91,0.32 261.75,5.05 47.77,7.32 106.67,-14.98 142.05,-36.96 40.28,-25.03 60.3,-55.36 54.76,-121.7 -5.47,-65.58 17.92,-321.81 -5.69,-354.49 -22.45,-11.67 -140.38,4.32 -177.79,4.52 -50.25,0.27 -145.14,-5.05 -188.01,2.67 l -158.84,5.18 c -29.97,-2.69 -53.13,-7.7 -84.91,-8.01 -26.51,-0.26 -68.73,7.1 -82.07,5.99 -2.16,-22.99 -7.57,-286.08 -3.58,-297.17 13.04,25.07 11.31,104.42 22.11,121.26 13.46,-22.58 6.53,-88.9 2.91,-120.81 -5.22,-46.03 2.81,-93.61 -3.87,-116.94 -1.81,-6.33 19.38,-43.32 23.94,-47.81 9.86,-9.71 37.35,-14.94 53.59,-18.21 88,-17.72 194.88,-6.22 283.6,-12.46 140.81,-9.9 286.79,15.7 417.27,2.19 120.24,-12.45 96.31,17.12 124.05,16.21 27.83,-0.9 2.27,-14.58 51.73,5.97 35.61,14.8 27.54,-10.7 37.37,-24.16 20.04,-0.71 26.18,3.3 44.11,5.78 9.97,1.37 72.55,-3.69 127.69,3.66 62.31,8.31 118.08,2.77 179.23,7.63 53.66,4.26 113.44,-7.39 174.06,-5.04 28.55,1.1 55.18,7.74 84.35,8.46 44.18,1.09 51.35,-7.57 72.13,20.67 45.77,0.56 19.1,-8.91 46.5,-12.51 6.28,20.79 -0.04,14.98 0.43,38.24 16.95,10.76 21.09,6.29 31.69,27.32 39.61,78.62 52.7,265.81 52.53,349.52 -0.32,158.17 0.3,180.98 -11.58,330.71 -1.53,19.25 -2.36,37.03 -4.02,55.19 -3.75,41.03 -4.24,18.49 -13.39,41.78 15.26,17.41 15.44,18.44 9.9,48.78 -6.64,36.36 -3.42,18.64 2.64,47.84 -45.99,-7.14 -103.72,4.2 -148.64,13.35 -60.79,12.38 -73.83,21.53 -117.22,47.88 -30.97,18.8 -83.75,48.86 -70.74,93.36 5.15,17.63 10.69,17.26 16.5,26.04 14.65,22.12 -13.69,43.57 43.75,69.85 -5.95,16.14 -42.63,42.93 -9.69,73.94 10.81,10.17 16.74,8.37 22.51,19.71 0.61,1.18 2.29,6.69 3.47,9.4 6.07,13.91 13.32,19.1 20.99,28.1 -16.11,35.4 -34.74,30.46 -3.95,67.73 -18.81,38.34 -42.96,50.57 9.64,79.89 -4.99,15.76 -20.56,25.74 -18.46,41.33 4.66,34.57 55.69,32.93 14.43,86.24 -10.49,13.54 -8.93,33.46 -11.09,49.66 l -37.98,2.85 c -4.44,14.51 -2.29,18.23 -4.82,29.6 -3.48,15.66 -4.45,4.76 -6.52,23.7 20.96,19.6 15.4,4.75 30.92,33.19 31.01,1.99 56.26,11.46 76.8,12.51 64.15,3.28 306.29,-45.51 371.04,-63.46 115.61,-32.06 95.1,-62.31 58.84,-45.6 l 0.8,-25.3 c -28.93,-8.03 -19.19,-19.5 -42.02,-25.51 -20.11,9.44 -17.72,26.92 -35.2,22.13 l 10.78,-29.34 c 10.03,-27.41 59.61,-35.7 50.21,-75.37 -37.46,-13.42 -36.77,19.48 -82.69,50.96 -55.68,38.16 -302.98,113.17 -347.55,67.81 0.44,-27.36 20.72,-12.67 53.23,-14.92 47.01,-3.26 145.65,-33.79 194.51,-46.83 63.75,-17 117.52,-32.65 163.69,-77.64 25.23,-24.58 19.49,-11.72 30.57,-49.33 56.28,0.05 115.01,-2.12 165.29,-13.09 l 133.58,-34.72 c 2.29,31.02 -25.33,34.36 -55.15,45.37 -48.47,17.9 -119.73,37.24 -171.52,31.74 -57.3,-6.08 -89.36,37.11 -38.05,39.58 52.93,2.54 164.35,-21.07 212.94,-38.2 18.63,-6.57 55.25,-30.23 49.5,2.25 -2.77,15.63 -12.02,13.45 -27.97,19.26 -63.14,22.97 -124.36,35.88 -191.9,36.59 -42.6,0.44 -59.46,-17.13 -71.94,0.13 -6.45,8.93 15.04,69.73 16.94,72.46 l 161.11,-12.84 c 36.28,-4.07 74.59,-19.56 109.96,-16.86 20.82,1.6 8.43,7.06 29.5,12.43 z"
   class="fil0" />
 </g>
</svg>
