<svg width="424" height="19" viewBox="0 0 424 19" fill="none" xmlns="http://www.w3.org/2000/svg">
<g clip-path="url(#clip0_2340_1934)">
<path d="M383.847 5.97416C384.009 5.81093 384.302 5.54977 384.529 5.54977C384.789 5.54977 385.147 5.87623 385.31 6.03946C385.472 6.20269 385.57 6.43121 385.57 6.69238C385.57 6.95355 385.505 7.28001 385.342 7.44324C385.082 7.7044 384.269 8.03086 383.782 7.57382C383.619 7.41059 383.554 6.85561 383.554 6.62708C383.586 6.36592 383.684 6.13739 383.847 5.97416ZM384.887 3.32983C384.009 3.32983 383.001 3.85217 382.416 4.4398C381.831 5.02743 381.376 5.84358 381.376 6.72502C381.376 7.60647 381.831 8.42262 382.416 9.01025C383.001 9.59788 383.814 9.95698 384.692 9.95698C385.472 9.95698 386.155 9.72846 386.805 9.04289C387.39 8.38997 388.073 7.63911 387.911 6.75767C387.911 5.87623 387.553 5.06007 386.968 4.47245C386.383 3.85217 385.765 3.32983 384.887 3.32983Z" fill="white"/>
<path d="M421.106 18.5754C421.334 18.249 421.334 17.8899 421.171 17.4981C421.009 17.1064 420.684 16.7472 420.228 16.4534C419.546 15.9637 418.668 15.4088 417.595 14.7885L416.75 14.2661L415.026 13.1562C411.678 10.9689 411.905 10.2833 408.621 7.99811C408.556 7.96546 408.426 7.86752 408.264 7.76958C408.069 7.639 407.776 7.44312 407.386 7.18195C406.963 6.88814 406.443 6.56168 405.825 6.13728C404.752 5.38642 404.037 4.76615 403.549 4.3091C402.151 3.00326 400.753 4.37439 402.476 5.9414C403.452 6.82285 404.46 7.57371 405.37 8.19398L407.418 9.56512C410.572 11.6871 410.345 11.9809 413.433 14.1682C414.214 14.7232 415.124 15.4414 416.164 16.2902C417.237 17.139 418.148 17.8572 418.895 18.4122C419.936 19.1304 420.651 19.1957 421.106 18.5754Z" fill="white"/>
<path d="M423.806 14.8215C424.033 14.495 424.033 14.1359 423.871 13.7441C423.675 13.3524 423.383 12.9933 422.928 12.6995C422.245 12.2098 421.367 11.6548 420.294 11.0345L419.449 10.5122L417.726 9.40221C414.377 7.21492 414.604 6.52935 411.353 4.21148C411.288 4.17884 411.158 4.0809 410.995 3.98296C410.8 3.85238 410.54 3.6565 410.15 3.42798C409.695 3.13416 409.175 2.77506 408.557 2.35066C407.484 1.5998 406.769 0.979525 406.281 0.522481C404.883 -0.783361 403.485 0.587773 405.208 2.15478C406.184 3.03623 407.191 3.78709 408.102 4.40736L410.15 5.7785C413.304 7.93314 413.044 8.22695 416.165 10.3816C416.945 10.9692 417.856 11.6548 418.896 12.5036C419.936 13.385 420.847 14.1032 421.627 14.6256C422.668 15.3764 423.383 15.4091 423.806 14.8215Z" fill="white"/>
<path d="M348.18 18.5755C347.953 18.249 347.953 17.8899 348.115 17.4982C348.31 17.1064 348.603 16.7473 349.058 16.4535C349.741 15.9638 350.619 15.4088 351.692 14.7886L352.569 14.2662L354.293 13.1562C357.641 10.969 357.414 10.2834 360.698 7.99817C360.763 7.96553 360.893 7.86759 361.055 7.76965C361.25 7.63907 361.51 7.44319 361.901 7.21467C362.323 6.92085 362.843 6.59439 363.461 6.17C364.534 5.41914 365.249 4.79886 365.737 4.34182C367.135 3.03597 368.533 4.40711 366.81 5.97412C365.835 6.85556 364.827 7.60642 363.916 8.2267L361.868 9.59783C358.714 11.7525 358.974 12.0136 355.853 14.2009C355.073 14.7559 354.13 15.4741 353.122 16.3229C352.082 17.2044 351.171 17.8899 350.391 18.4449C349.351 19.1305 348.603 19.1958 348.18 18.5755Z" fill="white"/>
<path d="M345.449 14.8215C345.221 14.4951 345.221 14.1359 345.384 13.7442C345.547 13.3524 345.872 12.9933 346.327 12.6995C347.01 12.2098 347.887 11.6549 348.96 11.0346L349.806 10.5122L351.529 9.40227C354.878 7.21499 354.65 6.52942 357.934 4.21155C357.999 4.17891 358.129 4.08097 358.292 3.98303C358.487 3.85245 358.747 3.65657 359.137 3.42805C359.56 3.13423 360.08 2.80777 360.697 2.38337C361.77 1.63251 362.486 1.01224 362.973 0.555195C364.371 -0.750646 365.769 0.620488 364.046 2.1875C363.071 3.06894 362.063 3.8198 361.153 4.44007L359.104 5.81121C355.951 7.96585 356.211 8.22702 353.089 10.4143C352.309 10.9693 351.366 11.6875 350.358 12.5363C349.318 13.4177 348.408 14.1033 347.627 14.6583C346.619 15.3765 345.872 15.4091 345.449 14.8215Z" fill="white"/>
<path d="M383.814 18.5754C383.587 18.249 383.587 17.8899 383.749 17.4981C383.912 17.1064 384.237 16.7472 384.692 16.4534C385.375 15.9637 386.253 15.4088 387.326 14.7885L388.204 14.2661L389.927 13.1562C393.243 10.9689 393.048 10.2833 396.299 7.99811C396.364 7.93281 396.494 7.86752 396.689 7.73694C396.852 7.639 397.145 7.44312 397.535 7.18195C397.957 6.88814 398.478 6.56168 399.095 6.13728C400.168 5.38642 400.884 4.76615 401.371 4.3091C402.769 3.00326 404.167 4.37439 402.444 5.9414C401.469 6.82285 400.461 7.57371 399.551 8.19398L397.502 9.56512C394.349 11.6871 394.576 11.9809 391.487 14.1682C390.707 14.7232 389.764 15.4414 388.756 16.2902C387.716 17.1716 386.806 17.8572 386.025 18.4122C384.985 19.1304 384.27 19.1957 383.814 18.5754Z" fill="white"/>
<path d="M385.44 18.5755C385.667 18.249 385.667 17.8899 385.505 17.4982C385.342 17.1064 385.017 16.7473 384.562 16.4535C383.879 15.9638 383.001 15.4088 381.928 14.7886L381.083 14.2662L379.36 13.1562C376.011 10.969 376.239 10.2834 372.955 7.99817C372.89 7.96553 372.76 7.86759 372.597 7.76965C372.402 7.63907 372.142 7.44319 371.752 7.21467C371.329 6.92085 370.809 6.59439 370.191 6.17C369.118 5.41914 368.403 4.79886 367.915 4.34182C366.517 3.03597 365.119 4.40711 366.842 5.97412C367.818 6.85556 368.826 7.60642 369.736 8.2267L371.784 9.59783C374.938 11.7525 374.678 12.0136 377.799 14.2009C378.58 14.7559 379.522 15.4741 380.53 16.3229C381.571 17.2044 382.481 17.8899 383.261 18.4449C384.302 19.1305 385.017 19.1958 385.44 18.5755Z" fill="white"/>
<path d="M271.677 18.5755C271.45 18.249 271.45 17.8899 271.612 17.4982C271.808 17.1064 272.1 16.7473 272.555 16.4535C273.238 15.9638 274.116 15.4088 275.189 14.7886L276.034 14.2662L277.757 13.1562C281.106 10.969 280.879 10.2834 284.162 7.99817C284.227 7.96553 284.357 7.86759 284.52 7.76965C284.715 7.63907 284.975 7.44319 285.365 7.21467C285.788 6.92085 286.308 6.59439 286.926 6.17C287.999 5.41914 288.714 4.79886 289.202 4.34182C290.6 3.03597 291.998 4.40711 290.275 5.97412C289.299 6.85556 288.292 7.60642 287.381 8.2267L285.333 9.59783C282.179 11.7525 282.439 12.0136 279.318 14.2009C278.538 14.7559 277.595 15.4741 276.587 16.3229C275.547 17.2044 274.636 17.8899 273.856 18.4449C272.815 19.1305 272.1 19.1958 271.677 18.5755Z" fill="white"/>
<path d="M268.946 14.8215C268.718 14.495 268.718 14.1359 268.881 13.7441C269.076 13.3524 269.369 12.9933 269.824 12.6995C270.507 12.2098 271.384 11.6548 272.457 11.0345L273.303 10.5122L275.026 9.40221C278.375 7.21492 278.147 6.52935 281.431 4.21148C281.496 4.17884 281.626 4.0809 281.789 3.98296C281.984 3.85238 282.244 3.6565 282.634 3.42798C283.057 3.13416 283.609 2.77506 284.195 2.35066C285.267 1.5998 285.983 0.979525 286.47 0.522481C287.869 -0.783361 289.267 0.587773 287.543 2.15478C286.568 3.03623 285.56 3.78709 284.65 4.40736L282.601 5.7785C279.448 7.93314 279.708 8.1943 276.587 10.3816C275.806 10.9366 274.863 11.6548 273.855 12.5036C272.815 13.385 271.905 14.0706 271.124 14.6256C270.116 15.3764 269.369 15.4091 268.946 14.8215Z" fill="white"/>
<path d="M344.344 18.5755C344.571 18.249 344.571 17.8899 344.409 17.4982C344.246 17.1064 343.921 16.7473 343.466 16.4535C342.783 15.9638 341.905 15.4088 340.832 14.7886L339.954 14.2662L338.231 13.1562C334.882 10.969 335.11 10.2834 331.826 7.99817C331.761 7.96553 331.631 7.86759 331.469 7.76965C331.273 7.63907 331.013 7.44319 330.623 7.21467C330.201 6.92085 329.68 6.59439 329.063 6.17C327.99 5.41914 327.274 4.79886 326.787 4.34182C325.389 3.03597 323.991 4.40711 325.714 5.97412C326.689 6.85556 327.697 7.60642 328.607 8.2267L330.688 9.56518C333.842 11.7198 333.582 11.981 336.703 14.1683C337.483 14.7233 338.426 15.4415 339.434 16.2903C340.475 17.1717 341.385 17.8573 342.165 18.4123C343.206 19.1305 343.921 19.1958 344.344 18.5755Z" fill="white"/>
<path d="M347.075 14.8215C347.302 14.4951 347.302 14.1359 347.14 13.7442C346.945 13.3524 346.652 12.9933 346.197 12.6995C345.514 12.2098 344.636 11.6549 343.563 11.0346L342.718 10.5122L340.995 9.40227C337.646 7.21499 337.873 6.52942 334.59 4.21155C334.525 4.17891 334.395 4.08097 334.232 3.98303C334.037 3.85245 333.777 3.65657 333.387 3.42805C332.964 3.13423 332.444 2.80777 331.826 2.38337C330.753 1.63251 330.038 1.01224 329.55 0.555195C328.152 -0.750646 326.754 0.620488 328.477 2.1875C329.453 3.06894 330.46 3.8198 331.371 4.44007L333.419 5.81121C336.573 7.96585 336.313 8.22702 339.434 10.4143C340.214 10.9693 341.157 11.6875 342.165 12.5363C343.206 13.4177 344.116 14.1033 344.896 14.6583C345.937 15.3765 346.652 15.4091 347.075 14.8215Z" fill="white"/>
<path d="M308.937 18.5755C309.164 18.249 309.164 17.8899 309.002 17.4982C308.839 17.1064 308.514 16.7473 308.059 16.4535C307.376 15.9638 306.498 15.4088 305.425 14.7886L304.548 14.2662L302.824 13.1562C299.476 10.969 299.703 10.2834 296.419 7.99817C296.354 7.96553 296.224 7.86759 296.062 7.76965C295.867 7.63907 295.607 7.44319 295.216 7.21467C294.794 6.92085 294.274 6.59439 293.656 6.17C292.583 5.41914 291.868 4.79886 291.38 4.34182C289.982 3.03597 288.584 4.40711 290.307 5.97412C291.282 6.85556 292.29 7.60642 293.201 8.2267L295.249 9.59783C298.403 11.7525 298.143 12.0136 301.264 14.2009C302.044 14.7559 302.987 15.4741 303.995 16.3229C305.035 17.2044 305.946 17.8899 306.726 18.4449C307.766 19.1305 308.514 19.1958 308.937 18.5755Z" fill="white"/>
<path d="M307.084 18.5754C306.856 18.249 306.856 17.8899 307.019 17.4981C307.181 17.1064 307.507 16.7472 307.962 16.4534C308.645 15.9637 309.522 15.4088 310.595 14.7885L311.441 14.2661L313.164 13.1562C316.513 10.9689 316.285 10.2833 319.569 7.99811C319.634 7.93281 319.764 7.86752 319.959 7.73694C320.154 7.60635 320.414 7.41048 320.804 7.18195C321.227 6.88814 321.747 6.56168 322.365 6.13728C323.438 5.38642 324.153 4.76615 324.641 4.3091C326.039 3.00326 327.437 4.37439 325.714 5.9414C324.738 6.82285 323.731 7.57371 322.82 8.19398L320.772 9.56512C317.618 11.7198 317.878 11.9809 314.757 14.1682C313.977 14.7232 313.034 15.4414 312.026 16.2902C310.985 17.1716 310.075 17.8572 309.295 18.4122C308.254 19.1304 307.507 19.1957 307.084 18.5754Z" fill="white"/>
<path d="M118.054 18.5754C117.827 18.249 117.827 17.8899 117.989 17.4981C118.184 17.1064 118.477 16.7472 118.932 16.4534C119.615 15.9637 120.493 15.4088 121.566 14.7885L122.411 14.2661L124.134 13.1562C127.483 10.9689 127.255 10.2833 130.539 7.99811C130.604 7.96546 130.734 7.86752 130.897 7.76958C131.092 7.639 131.384 7.44312 131.775 7.18195C132.197 6.88814 132.717 6.56168 133.335 6.13728C134.408 5.38642 135.123 4.76615 135.611 4.3091C137.009 3.00326 138.407 4.37439 136.684 5.9414C135.709 6.82285 134.701 7.57371 133.79 8.19398L131.742 9.56512C128.588 11.7198 128.848 11.9809 125.727 14.1682C124.947 14.7232 124.004 15.4414 122.996 16.2902C121.956 17.1716 121.045 17.8572 120.265 18.4122C119.225 19.1304 118.509 19.1957 118.054 18.5754Z" fill="white"/>
<path d="M115.355 14.8215C115.128 14.4951 115.128 14.1359 115.29 13.7442C115.453 13.3524 115.778 12.9933 116.233 12.6995C116.916 12.2098 117.794 11.6549 118.867 11.0346L119.712 10.5122L121.435 9.40227C124.784 7.21499 124.557 6.52942 127.808 4.21155C127.873 4.17891 128.003 4.08097 128.166 3.98303C128.361 3.85245 128.621 3.65657 129.011 3.42805C129.434 3.13423 129.954 2.80777 130.572 2.38337C131.644 1.63251 132.36 1.01224 132.847 0.555195C134.245 -0.750646 135.644 0.620488 133.92 2.1875C132.945 3.06894 131.937 3.8198 131.027 4.44007L128.978 5.81121C125.825 7.96585 126.085 8.22702 122.964 10.4143C122.183 10.9693 121.24 11.6875 120.232 12.5363C119.192 13.4177 118.249 14.1033 117.501 14.6583C116.493 15.3765 115.778 15.4091 115.355 14.8215Z" fill="white"/>
<path d="M155.347 18.5755C155.574 18.249 155.574 17.8899 155.412 17.4982C155.249 17.1064 154.924 16.7473 154.469 16.4535C153.786 15.9638 152.908 15.4088 151.835 14.7886L150.957 14.2662L149.234 13.1562C145.885 10.969 146.113 10.2834 142.829 7.99817C142.764 7.96553 142.634 7.86759 142.471 7.76965C142.276 7.63907 142.016 7.44319 141.626 7.21467C141.203 6.92085 140.683 6.59439 140.065 6.17C138.993 5.41914 138.277 4.79886 137.79 4.34182C136.392 3.03597 134.994 4.40711 136.717 5.97412C137.692 6.85556 138.7 7.60642 139.61 8.2267L141.659 9.59783C144.812 11.7525 144.552 12.0136 147.674 14.2009C148.454 14.7559 149.397 15.4741 150.405 16.3229C151.445 17.2044 152.355 17.8899 153.136 18.4449C154.176 19.1305 154.891 19.1958 155.347 18.5755Z" fill="white"/>
<path d="M191.013 18.5755C191.241 18.249 191.241 17.8899 191.078 17.4982C190.883 17.1064 190.59 16.7473 190.135 16.4535C189.452 15.9638 188.575 15.4088 187.502 14.7886L186.656 14.2662L184.933 13.1562C181.584 10.969 181.812 10.2834 178.528 7.99817C178.463 7.96553 178.333 7.86759 178.17 7.76965C177.975 7.63907 177.715 7.44319 177.325 7.21467C176.902 6.92085 176.382 6.59439 175.765 6.17C174.692 5.41914 173.976 4.79886 173.489 4.34182C172.091 3.03597 170.693 4.40711 172.416 5.97412C173.391 6.85556 174.399 7.60642 175.309 8.2267L177.358 9.59783C180.511 11.7525 180.251 12.0136 183.373 14.2009C184.153 14.7559 185.096 15.4741 186.104 16.3229C187.144 17.2044 188.054 17.8899 188.835 18.4449C189.843 19.1305 190.59 19.1958 191.013 18.5755Z" fill="white"/>
<path d="M193.744 14.8216C193.972 14.4951 193.972 14.136 193.809 13.7443C193.646 13.3525 193.321 12.9934 192.866 12.6996C192.183 12.2099 191.306 11.6549 190.233 11.0346L189.355 10.5123L187.632 9.40234C184.283 7.21506 184.51 6.52949 181.227 4.24427C181.162 4.21162 181.031 4.11368 180.869 4.01574C180.674 3.88516 180.414 3.68928 180.024 3.46076C179.601 3.16695 179.081 2.84049 178.463 2.41609C177.39 1.66523 176.675 1.04495 176.187 0.58791C174.789 -0.717932 173.391 0.653202 175.114 2.22021C176.09 3.10166 177.097 3.85251 178.008 4.47279L180.056 5.84392C183.21 7.99856 182.95 8.25973 186.071 10.447C186.851 11.002 187.794 11.7202 188.802 12.569C189.842 13.4505 190.753 14.136 191.533 14.691C192.574 15.3766 193.321 15.4092 193.744 14.8216Z" fill="white"/>
<path d="M153.753 18.5755C153.526 18.249 153.526 17.8899 153.688 17.4982C153.851 17.1064 154.176 16.7473 154.631 16.4535C155.314 15.9638 156.192 15.4088 157.265 14.7886L158.11 14.2662L159.833 13.1562C163.182 10.969 162.954 10.2834 166.238 7.99817C166.303 7.96553 166.433 7.86759 166.596 7.76965C166.791 7.63907 167.051 7.44319 167.441 7.21467C167.864 6.92085 168.384 6.59439 169.002 6.17C170.075 5.41914 170.79 4.79886 171.278 4.34182C172.676 3.03597 174.074 4.40711 172.351 5.97412C171.375 6.85556 170.367 7.60642 169.457 8.2267L167.409 9.59783C164.255 11.7525 164.515 12.0136 161.394 14.2009C160.613 14.7559 159.671 15.4741 158.663 16.3229C157.622 17.2044 156.679 17.8899 155.932 18.4449C154.891 19.1305 154.176 19.1958 153.753 18.5755Z" fill="white"/>
<path d="M267.873 18.5755C268.101 18.249 268.101 17.8899 267.938 17.4982C267.743 17.1064 267.451 16.7473 266.996 16.4535C266.313 15.9638 265.435 15.4088 264.362 14.7886L263.517 14.2662L261.793 13.1562C258.445 10.969 258.672 10.2834 255.388 7.99817C255.323 7.96553 255.193 7.86759 255.031 7.76965C254.836 7.63907 254.576 7.44319 254.185 7.21467C253.763 6.92085 253.243 6.59439 252.625 6.17C251.552 5.41914 250.837 4.79886 250.349 4.34182C248.951 3.03597 247.553 4.40711 249.276 5.97412C250.251 6.85556 251.259 7.60642 252.17 8.2267L254.218 9.59783C257.372 11.7525 257.112 12.0136 260.233 14.2009C261.013 14.7559 261.956 15.4741 262.964 16.3229C264.004 17.2044 264.915 17.8899 265.695 18.4449C266.703 19.1305 267.451 19.1958 267.873 18.5755Z" fill="white"/>
<path d="M270.604 14.8216C270.832 14.4951 270.832 14.136 270.669 13.7443C270.507 13.3525 270.182 12.9934 269.726 12.6996C269.044 12.2099 268.166 11.6549 267.093 11.0346L266.248 10.5123L264.524 9.40234C261.176 7.21506 261.403 6.52949 258.119 4.24427C258.054 4.21162 257.924 4.11368 257.762 4.01574C257.567 3.88516 257.307 3.68928 256.916 3.46076C256.494 3.16695 255.974 2.84049 255.356 2.41609C254.283 1.66523 253.568 1.04495 253.08 0.58791C251.682 -0.717932 250.284 0.653202 252.007 2.22021C252.982 3.10166 253.99 3.85251 254.901 4.47279L256.949 5.84392C260.103 7.99856 259.843 8.25973 262.964 10.447C263.744 11.002 264.687 11.7202 265.695 12.569C266.735 13.4505 267.646 14.136 268.426 14.691C269.434 15.3766 270.149 15.4092 270.604 14.8216Z" fill="white"/>
<path d="M230.614 18.5755C230.386 18.249 230.386 17.8899 230.549 17.4982C230.744 17.1064 231.036 16.7473 231.491 16.4535C232.174 15.9638 233.052 15.4088 234.092 14.7886L234.97 14.2662L236.693 13.1562C240.042 10.969 239.815 10.2834 243.098 7.99817C243.163 7.96553 243.294 7.86759 243.456 7.76965C243.651 7.63907 243.911 7.44319 244.301 7.21467C244.724 6.92085 245.244 6.59439 245.862 6.17C246.935 5.41914 247.65 4.79886 248.138 4.34182C249.536 3.03597 250.934 4.40711 249.211 5.97412C248.235 6.85556 247.228 7.60642 246.317 8.2267L244.269 9.59783C241.115 11.7525 241.375 12.0136 238.254 14.2009C237.474 14.7559 236.531 15.4741 235.523 16.3229C234.483 17.2044 233.572 17.8899 232.792 18.4449C231.751 19.1305 231.036 19.1958 230.614 18.5755Z" fill="white"/>
<path d="M194.85 18.5755C194.622 18.249 194.622 17.8899 194.785 17.4982C194.947 17.1064 195.272 16.7473 195.728 16.4535C196.41 15.9638 197.288 15.4088 198.329 14.7886L199.174 14.2662L200.897 13.1562C204.246 10.969 204.018 10.2834 207.302 7.99817C207.367 7.96553 207.497 7.86759 207.66 7.76965C207.855 7.63907 208.115 7.44319 208.505 7.21467C208.928 6.92085 209.448 6.59439 210.066 6.17C211.139 5.41914 211.854 4.79886 212.342 4.34182C213.74 3.03597 215.138 4.40711 213.414 5.97412C212.439 6.85556 211.431 7.60642 210.521 8.2267L208.473 9.59783C205.319 11.7525 205.579 12.0136 202.458 14.2009C201.677 14.7559 200.734 15.4741 199.727 16.3229C198.686 17.2044 197.776 17.8899 196.996 18.4449C195.988 19.1305 195.272 19.1958 194.85 18.5755Z" fill="white"/>
<path d="M192.118 14.8215C191.891 14.4951 191.891 14.1359 192.053 13.7442C192.216 13.3524 192.541 12.9933 192.996 12.6995C193.679 12.2098 194.557 11.6549 195.63 11.0346L196.475 10.5122L198.198 9.40227C201.547 7.21499 201.32 6.52942 204.603 4.21155C204.668 4.17891 204.798 4.08097 204.961 3.98303C205.156 3.85245 205.416 3.65657 205.806 3.42805C206.229 3.13423 206.749 2.80777 207.367 2.38337C208.44 1.63251 209.155 1.01224 209.643 0.555195C211.041 -0.750646 212.439 0.620488 210.716 2.1875C209.74 3.06894 208.732 3.8198 207.822 4.44007L205.774 5.81121C202.62 7.96585 202.88 8.22702 199.759 10.4143C198.979 10.9693 198.036 11.6875 197.028 12.5363C195.987 13.4177 195.077 14.1033 194.297 14.6583C193.256 15.3765 192.541 15.4091 192.118 14.8215Z" fill="white"/>
<path d="M232.109 18.5755C232.337 18.249 232.337 17.8899 232.174 17.4982C232.012 17.1064 231.687 16.7473 231.231 16.4535C230.549 15.9638 229.671 15.4088 228.598 14.7886L227.72 14.2662L225.997 13.1562C222.648 10.969 222.876 10.2834 219.592 7.99817C219.527 7.96553 219.397 7.86759 219.234 7.76965C219.039 7.63907 218.779 7.44319 218.389 7.21467C217.966 6.92085 217.446 6.59439 216.828 6.17C215.755 5.41914 215.04 4.79886 214.552 4.34182C213.154 3.03597 211.756 4.40711 213.479 5.97412C214.455 6.85556 215.463 7.60642 216.373 8.2267L218.421 9.59783C221.575 11.7525 221.315 12.0136 224.436 14.2009C225.216 14.7559 226.159 15.4741 227.167 16.3229C228.208 17.2044 229.118 17.8899 229.898 18.4449C230.939 19.1305 231.687 19.1958 232.109 18.5755Z" fill="white"/>
<path d="M114.218 18.5755C114.445 18.249 114.445 17.8899 114.283 17.4982C114.088 17.1064 113.795 16.7473 113.34 16.4535C112.657 15.9638 111.779 15.4088 110.706 14.7886L109.828 14.2662L108.105 13.1562C104.756 10.969 104.984 10.2834 101.7 7.99817C101.635 7.96553 101.505 7.86759 101.343 7.76965C101.147 7.63907 100.887 7.44319 100.497 7.21467C100.075 6.92085 99.5543 6.59439 98.9366 6.17C97.8636 5.41914 97.1484 4.79886 96.6607 4.34182C95.2626 3.03597 93.8646 4.40711 95.5877 5.97412C96.5631 6.85556 97.571 7.60642 98.4814 8.2267L100.53 9.59783C103.683 11.7525 103.423 12.0136 106.545 14.2009C107.325 14.7559 108.268 15.4741 109.276 16.3229C110.316 17.2044 111.226 17.8899 112.007 18.4449C113.08 19.1305 113.795 19.1958 114.218 18.5755Z" fill="white"/>
<path d="M116.949 14.8216C117.176 14.4951 117.176 14.136 117.014 13.7443C116.851 13.3525 116.526 12.9934 116.071 12.6996C115.388 12.2099 114.51 11.6549 113.437 11.0346L112.559 10.5123L110.836 9.40234C107.487 7.21506 107.715 6.52949 104.431 4.24427C104.366 4.21162 104.236 4.11368 104.073 4.01574C103.878 3.88516 103.618 3.68928 103.228 3.46076C102.805 3.16695 102.285 2.84049 101.668 2.41609C100.595 1.66523 99.8793 1.04495 99.3916 0.58791C97.9936 -0.717932 96.5955 0.653202 98.3187 2.22021C99.2941 3.10166 100.302 3.85251 101.212 4.47279L103.261 5.84392C106.414 7.99856 106.154 8.25973 109.276 10.447C110.056 11.002 110.999 11.7202 112.007 12.569C113.047 13.4505 113.957 14.136 114.738 14.691C115.778 15.3766 116.526 15.4092 116.949 14.8216Z" fill="white"/>
<path d="M76.9577 18.5755C76.7301 18.249 76.7301 17.8899 76.8926 17.4982C77.0552 17.1064 77.3803 16.7473 77.8355 16.4535C78.5183 15.9638 79.3961 15.4088 80.4691 14.7886L81.3144 14.2662L83.0376 13.1562C86.3864 10.969 86.1588 10.2834 89.4426 7.99817C89.5077 7.96553 89.6377 7.86759 89.8003 7.76965C89.9954 7.63907 90.2555 7.44319 90.6456 7.21467C91.0683 6.92085 91.5885 6.59439 92.2062 6.17C93.2792 5.41914 93.9945 4.79886 94.4822 4.34182C95.8802 3.03597 97.2783 4.40711 95.5551 5.97412C94.5797 6.85556 93.5718 7.60642 92.6614 8.2267L90.6131 9.59783C87.4594 11.7525 87.7195 12.0136 84.5982 14.2009C83.8179 14.7559 82.875 15.4741 81.8671 16.3229C80.8267 17.2044 79.8838 17.8899 79.136 18.4449C78.0956 19.1305 77.3803 19.1958 76.9577 18.5755Z" fill="white"/>
<path d="M41.2913 18.5755C41.0637 18.249 41.0637 17.8899 41.2263 17.4982C41.4213 17.1064 41.714 16.7473 42.1691 16.4535C42.8519 15.9638 43.7298 15.4088 44.8027 14.7886L45.648 14.2662L47.3712 13.1562C50.72 10.969 50.4924 10.2834 53.7762 7.99817C53.8412 7.96553 53.9713 7.86759 54.1338 7.76965C54.3289 7.63907 54.589 7.44319 54.9792 7.21467C55.4018 6.92085 55.922 6.59439 56.5398 6.17C57.6127 5.41914 58.328 4.79886 58.8157 4.34182C60.2137 3.03597 61.6118 4.40711 59.8886 5.97412C58.9132 6.85556 57.9053 7.60642 56.995 8.2267L54.9466 9.59783C51.7929 11.7525 52.053 12.0136 48.9318 14.2009C48.1515 14.7559 47.2086 15.4741 46.2007 16.3229C45.1603 17.2044 44.25 17.8899 43.4696 18.4449C42.4292 19.1305 41.714 19.1958 41.2913 18.5755Z" fill="white"/>
<path d="M38.5603 14.8216C38.3327 14.4951 38.3327 14.136 38.4953 13.7443C38.6578 13.3525 38.983 12.9934 39.4382 12.6996C40.1209 12.2099 40.9988 11.6549 42.0717 11.0346L42.917 10.5123L44.6402 9.40234C47.989 7.21506 47.7614 6.52949 51.0452 4.24427C51.1103 4.21162 51.2403 4.11368 51.4029 4.01574C51.598 3.88516 51.8581 3.68928 52.2482 3.46076C52.6709 3.16695 53.1911 2.84049 53.8088 2.41609C54.8817 1.66523 55.597 1.04495 56.0847 0.58791C57.4828 -0.717932 58.8808 0.653202 57.1576 2.22021C56.1823 3.10166 55.1744 3.85251 54.264 4.47279L52.2157 5.84392C49.062 7.99856 49.3221 8.25973 46.2008 10.447C45.4205 11.002 44.4776 11.7202 43.4697 12.569C42.4293 13.4505 41.4865 14.136 40.7387 14.691C39.6983 15.3766 38.983 15.4092 38.5603 14.8216Z" fill="white"/>
<path d="M78.5511 18.5755C78.7787 18.249 78.7787 17.8899 78.6161 17.4982C78.4536 17.1064 78.1285 16.7473 77.6733 16.4535C76.9905 15.9638 76.1127 15.4088 75.0397 14.7886L74.1619 14.2662L72.4387 13.1562C69.0899 10.969 69.3175 10.2834 66.0337 7.99817C65.9687 7.96553 65.8386 7.86759 65.6761 7.76965C65.481 7.63907 65.2209 7.44319 64.8307 7.21467C64.4081 6.92085 63.8879 6.59439 63.2701 6.17C62.1972 5.41914 61.4819 4.79886 60.9942 4.34182C59.5962 3.03597 58.1981 4.40711 59.9213 5.97412C60.8967 6.85556 61.9046 7.60642 62.815 8.2267L64.8633 9.59783C68.017 11.7525 67.7569 12.0136 70.8781 14.2009C71.6584 14.7559 72.6013 15.4741 73.6092 16.3229C74.6496 17.2044 75.5599 17.8899 76.3403 18.4449C77.3807 19.1305 78.1285 19.1958 78.5511 18.5755Z" fill="white"/>
<path d="M37.4549 18.5755C37.6825 18.249 37.6825 17.8899 37.5199 17.4982C37.3574 17.1064 37.0322 16.7473 36.5771 16.4535C35.8943 15.9638 35.0165 15.4088 33.9435 14.7886L33.0982 14.2662L31.375 13.1562C28.0262 10.969 28.2538 10.2834 24.97 7.99817C24.9049 7.96553 24.7749 7.86759 24.6123 7.76965C24.4173 7.63907 24.1572 7.44319 23.767 7.21467C23.3443 6.92085 22.8241 6.59439 22.2064 6.17C21.1335 5.41914 20.4182 4.79886 19.9305 4.34182C18.5324 3.03597 17.1344 4.40711 18.8576 5.97412C19.8329 6.85556 20.8408 7.60642 21.7512 8.2267L23.7995 9.59783C26.9533 11.7525 26.6932 12.0136 29.8144 14.2009C30.5947 14.7559 31.5376 15.4741 32.5455 16.3229C33.5859 17.2044 34.4963 17.8899 35.2766 18.4449C36.2845 19.1305 37.0323 19.1958 37.4549 18.5755Z" fill="white"/>
<path d="M40.1859 14.8216C40.4135 14.4951 40.4135 14.136 40.2509 13.7443C40.0883 13.3525 39.7632 12.9934 39.308 12.6996C38.6253 12.2099 37.7474 11.6549 36.6745 11.0346L35.8292 10.5123L34.106 9.40234C30.7572 7.21506 30.9848 6.52949 27.701 4.24427C27.6359 4.21162 27.5059 4.11368 27.3433 4.01574C27.1483 3.88516 26.8881 3.68928 26.498 3.46076C26.0753 3.16695 25.5551 2.84049 24.9374 2.41609C23.8645 1.66523 23.1492 1.04495 22.6615 0.58791C21.2634 -0.717932 19.8654 0.653202 21.5886 2.22021C22.564 3.10166 23.5719 3.85251 24.4822 4.47279L26.5305 5.84392C29.6843 7.99856 29.4241 8.25973 32.5454 10.447C33.3257 11.002 34.2686 11.7202 35.2765 12.569C36.3169 13.4505 37.2272 14.136 38.0075 14.691C39.0154 15.3766 39.7307 15.4092 40.1859 14.8216Z" fill="white"/>
<path d="M0.195234 18.5755C-0.0323563 18.249 -0.03232 17.8899 0.130243 17.4982C0.292809 17.1064 0.617914 16.7473 1.0731 16.4535C1.75587 15.9638 2.63371 15.4088 3.70663 14.7886L4.58449 14.2662L6.30767 13.1562C9.65649 10.969 9.42891 10.2834 12.7127 7.99817C12.7777 7.96553 12.9078 7.86759 13.0704 7.76965C13.2654 7.63907 13.5255 7.44319 13.9157 7.21467C14.3384 6.92085 14.8586 6.59439 15.4763 6.17C16.5492 5.41914 17.2645 4.79886 17.7522 4.34182C19.1503 3.03597 20.5483 4.40711 18.8251 5.97412C17.8497 6.85556 16.8418 7.60642 15.9315 8.2267L13.8832 9.59783C10.7294 11.7525 10.9895 12.0136 7.8683 14.2009C7.08799 14.7559 6.1451 15.4741 5.1372 16.3229C4.09679 17.2044 3.18644 17.8899 2.40613 18.4449C1.33321 19.1305 0.617901 19.1958 0.195234 18.5755Z" fill="white"/>
<path d="M307.214 5.97416C307.376 5.81093 307.669 5.54977 307.929 5.54977C308.189 5.54977 308.547 5.87623 308.709 6.03946C308.872 6.20269 308.969 6.43121 308.969 6.69238C308.969 6.95355 308.904 7.28001 308.742 7.44324C308.482 7.7044 307.669 8.03086 307.181 7.57382C307.019 7.41059 306.954 6.85561 306.954 6.59444C306.954 6.36592 307.051 6.13739 307.214 5.97416ZM308.254 3.32983C307.376 3.32983 306.368 3.85217 305.783 4.4398C305.198 5.02743 304.743 5.84358 304.743 6.72502C304.743 7.60647 305.198 8.42262 305.783 9.01025C306.368 9.59788 307.181 9.95698 308.059 9.95698C308.839 9.95698 309.522 9.72846 310.172 9.04289C310.758 8.38997 311.44 7.63911 311.278 6.75767C311.278 5.87623 310.92 5.06007 310.335 4.47245C309.75 3.85217 309.165 3.32983 308.254 3.32983Z" fill="white"/>
<path d="M230.386 5.97416C230.549 5.81093 230.809 5.54977 231.069 5.54977C231.329 5.54977 231.687 5.87623 231.849 6.03946C232.012 6.20269 232.109 6.43121 232.109 6.69238C232.109 6.95355 232.044 7.28001 231.882 7.44324C231.622 7.7044 230.809 8.03086 230.321 7.57382C230.159 7.41059 230.094 6.85561 230.094 6.62708C230.126 6.36592 230.224 6.13739 230.386 5.97416ZM231.427 3.32983C230.549 3.32983 229.541 3.85217 228.956 4.4398C228.37 5.02743 227.915 5.84358 227.915 6.72502C227.915 7.60647 228.37 8.42262 228.956 9.01025C229.541 9.59788 230.354 9.95698 231.231 9.95698C232.012 9.95698 232.695 9.72846 233.345 9.04289C233.93 8.38997 234.613 7.63911 234.45 6.75767C234.45 5.87623 234.093 5.06007 233.507 4.47245C232.89 3.85217 232.304 3.32983 231.427 3.32983Z" fill="white"/>
<path d="M153.526 5.97416C153.688 5.81093 153.981 5.54977 154.209 5.54977C154.469 5.54977 154.826 5.87623 154.989 6.03946C155.151 6.20269 155.249 6.43121 155.249 6.69238C155.249 6.95355 155.184 7.28001 155.021 7.44324C154.761 7.7044 153.948 8.03086 153.461 7.57382C153.298 7.41059 153.233 6.85561 153.233 6.62708C153.266 6.36592 153.363 6.13739 153.526 5.97416ZM154.566 3.32983C153.688 3.32983 152.68 3.85217 152.095 4.4398C151.51 5.02743 151.055 5.84358 151.055 6.72502C151.055 7.60647 151.51 8.42262 152.095 9.01025C152.68 9.59788 153.493 9.95698 154.371 9.95698C155.151 9.95698 155.834 9.72846 156.484 9.04289C157.07 8.38997 157.752 7.63911 157.59 6.75767C157.59 5.87623 157.232 5.06007 156.647 4.47245C156.062 3.85217 155.477 3.32983 154.566 3.32983Z" fill="white"/>
<path d="M76.6977 5.97416C76.8602 5.81093 77.1529 5.54977 77.3805 5.54977C77.608 5.54977 77.9982 5.87623 78.1607 6.03946C78.3233 6.20269 78.4209 6.43121 78.4209 6.69238C78.4209 6.95355 78.3558 7.28001 78.1933 7.44324C77.9332 7.7044 77.1204 8.03086 76.6327 7.57382C76.4701 7.41059 76.4051 6.85561 76.4051 6.62708C76.4376 6.36592 76.5351 6.13739 76.6977 5.97416ZM77.7381 3.32983C76.8602 3.32983 75.8523 3.85217 75.2671 4.4398C74.6819 5.02743 74.2267 5.84358 74.2267 6.72502C74.2267 7.60647 74.6819 8.42262 75.2671 9.01025C75.8523 9.59788 76.6652 9.95698 77.543 9.95698C78.3233 9.95698 79.0061 9.72846 79.6563 9.04289C80.2416 8.38997 80.9243 7.63911 80.7618 6.75767C80.7618 5.87623 80.4041 5.06007 79.8189 4.47245C79.2012 3.85217 78.6159 3.32983 77.7381 3.32983Z" fill="white"/>
</g>
<defs>
<clipPath id="clip0_2340_1934">
<rect width="424" height="19" fill="white" transform="matrix(-1 0 0 1 424 0)"/>
</clipPath>
</defs>
</svg>
