<svg width="272" height="52" viewBox="0 0 272 52" fill="none" xmlns="http://www.w3.org/2000/svg">
<g clip-path="url(#clip0)">
<path fill-rule="evenodd" clip-rule="evenodd" d="M34.8766 9.04074L29.6483 34.0814C25.9463 40.1302 13.4439 45.6261 10.4888 35.7725C7.14401 24.6505 19.7763 5.65863 34.8766 9.04074ZM37.6044 50.1464L46.8269 5.75619L46.9243 5.72367C16.9836 -12.4877 -7.53411 26.2115 2.14306 43.8375C5.91001 50.6993 18.3799 54.992 28.122 43.9676C28.8365 47.6424 32.6359 50.1464 37.6044 50.1464Z" fill="white"/>
<path fill-rule="evenodd" clip-rule="evenodd" d="M95.5702 5.72383C72.4165 -7.21926 54.426 8.00025 49.2302 28.2279C48.2235 32.1629 47.5416 36.423 46.5349 41.2685C45.4957 46.3092 49.8472 50.1791 55.9523 50.1791C58.6476 37.236 61.9599 3.51245 83.5874 9.07343L76.8978 41.3011C75.8587 46.3417 80.2102 50.2116 86.3152 50.2116L95.5702 5.72383Z" fill="white"/>
<path fill-rule="evenodd" clip-rule="evenodd" d="M103.721 9.98374L97.2261 41.2683C96.187 46.3089 100.538 50.1789 106.676 50.1789L113.983 14.8618C118.919 9.52845 121.939 8.81301 124.959 8.87805C130.544 8.94309 131.453 16.065 129.635 23.7073L126.128 40.5854C125.024 45.9512 129.667 50.0813 136.195 50.0813L141.488 24.5528C142.137 22.0813 142.397 19.3171 142.267 16.5854C148.112 9.65854 151.425 8.84553 154.737 8.87805C160.323 8.94309 161.232 16.065 159.413 23.7073L155.906 40.5854C154.802 45.9512 159.446 50.0813 165.973 50.0813L171.266 24.5528C173.117 17.5285 171.786 8 167.304 4.13008C161.102 -1.23577 149.282 0.715445 144.021 6.21138C142.624 7.15447 141.52 8 140.644 8.78049C136.422 -1.62602 122.653 -0.910571 114.242 6.21138L113.82 6.50406C113.463 5.59349 112.976 4.71545 112.326 3.90244H102.617C103.591 6.01626 103.948 8.4878 103.721 9.98374Z" fill="white"/>
<path fill-rule="evenodd" clip-rule="evenodd" d="M212.086 28.9754C209.618 37.9835 202.051 43.9998 194.323 45.1055C187.308 46.1136 179.06 39.4795 178.703 29.4632C175.098 36.2274 178.703 50.1136 192.244 51.7396C209.813 53.886 222.51 40.1624 224.393 27.512C226.407 13.9835 220.009 0.162394 201.987 -0.0327279C194.55 -0.130289 180.132 5.138 178.443 16.6827C177.404 23.6421 182.405 26.7965 189.874 24.4876C188.185 18.5039 192.179 6.50386 201.889 6.50386C209.975 6.50386 214.132 14.2112 212.93 24.7803C204.747 18.5364 198.155 26.6665 191.595 22.6665C196.466 38.6665 207.085 29.7884 212.086 28.9754Z" fill="white"/>
<path fill-rule="evenodd" clip-rule="evenodd" d="M258.101 19.3819C253.587 30.5363 243.098 29.0079 241.442 23.7071C238.682 15.0242 248.391 3.34936 260.114 9.72334L258.101 19.3819ZM255.633 31.3494L253.587 41.2355C252.548 46.2762 256.899 50.1461 263.004 50.1461L272.032 6.73147C240.338 -10.2767 224.815 16.5851 232.804 30.5364C233.648 32.0323 234.947 33.3006 236.603 34.2111C232.577 39.577 226.147 44.5851 221.243 47.9998C228.875 51.9022 237.448 50.5364 241.572 44.2924C243.585 41.2681 245.209 38.4388 246.67 35.4144C249.463 34.7965 252.515 33.5282 255.633 31.3494Z" fill="white"/>
</g>
<defs>
<clipPath id="clip0">
<rect width="272" height="52" fill="white"/>
</clipPath>
</defs>
</svg>
