<svg width="353" height="250" viewBox="0 0 353 250" fill="none" xmlns="http://www.w3.org/2000/svg">
<path d="M157.338 62.6179C158.725 62.3089 159.619 62.5561 159.989 63.3905C160.39 64.2248 160.266 65.3373 159.681 66.7279C158.972 69.6018 158.325 71.1778 157.708 71.425C157.061 71.7032 156.444 71.4868 155.766 70.8688C155.057 70.2508 154.78 68.9529 154.842 67.0678C155.15 64.4102 155.982 62.9269 157.338 62.6179ZM203.727 2.76024C204.374 2.63663 204.621 3.16197 204.374 4.36716C200.182 10.733 193.617 19.7256 184.678 31.3448L172.072 45.6217C170.592 46.4251 170.161 46.1779 170.715 44.8491C190.165 15.6465 201.169 1.64776 203.727 2.76024ZM118.594 44.2311C120.196 44.2002 121.09 44.6019 121.275 45.4672C121.429 46.3324 121.152 47.2904 120.412 48.3102C119.087 50.1334 116.128 54.7069 111.504 61.9381C106.973 67.3768 108.021 67.9949 114.741 63.7613C117.361 62.4943 123.433 58.2916 132.896 51.2459H133.974C134.807 51.5858 135.238 52.4202 135.238 53.8417C130.368 60.5165 128.827 65.1828 130.645 67.7786C136.04 66.5425 138.999 63.7922 139.461 59.4968C140.231 57.0246 139.43 54.7378 137.088 52.6674C136.81 50.7514 141.649 49.3917 151.574 48.5883C154.318 48.8046 155.581 49.3917 155.427 50.3497C154.657 51.2768 152.468 51.9257 148.862 52.3584C145.286 52.7601 143.591 53.5326 143.838 54.7378V58.2607C143.838 64.163 140.725 68.3657 134.498 70.9615L130.645 71.8577C127.347 71.8577 125.621 70.2817 125.467 67.1605V65.9244C125.498 64.7193 125.93 63.0196 126.793 60.8565L125.128 61.6908C119.765 65.3991 114.094 68.6438 108.083 71.3941C106.234 71.9195 104.939 71.9195 104.199 71.425C103.49 70.9306 103.121 69.9108 103.121 68.3657L108.083 60.053C111.751 54.7996 113.693 51.7403 113.909 50.875C114.124 50.0098 113.508 49.639 112.028 49.7317L103.121 54.367C101.949 54.676 101.21 54.7378 100.87 54.5833C100.562 54.4288 100.377 53.9344 100.377 53.0382C103.86 48.9282 109.717 45.9925 118.008 44.262H118.594V44.2311ZM77.445 52.6056C66.0405 57.4881 66.5953 58.7551 79.1094 56.3447C89.1885 53.8726 94.2127 51.6785 94.2127 49.9171C94.2127 48.0938 92.0243 47.4449 87.6166 47.9084L77.445 52.6056ZM83.887 45.4363C87.0001 44.0766 90.0516 43.6439 93.0722 44.1693C96.0621 44.6637 97.6032 46.7032 97.634 50.257C97.634 55.2941 87.8631 58.8787 68.2597 61.0419C64.1602 62.2162 62.1259 63.6377 62.2184 65.3373C62.3109 67.0369 63.0506 68.0567 64.4685 68.3966C65.8863 68.7365 67.3658 68.9838 68.9686 69.1074C70.5714 69.231 76.5819 68.273 87.0617 66.2026C97.5107 64.1012 102.658 63.3905 102.535 64.0394C102.412 64.6884 97.4491 66.2644 87.6782 68.7984C77.9073 71.3323 69.8933 72.3521 63.6671 71.8577C59.506 70.6834 57.8415 68.3039 58.6737 64.7502L59.1053 62.278H55.4373C55.1291 61.3818 55.7764 60.5784 57.3484 59.8367C58.8895 59.0023 67.7357 54.2125 83.887 45.4363ZM66.0096 26.6786C82.315 8.47716 92.8565 -0.0518591 97.6032 1.06062C102.35 2.20401 105.093 4.64528 105.802 8.41536C106.511 12.1854 104.97 14.8739 101.117 16.4808C100.84 8.13723 99.1135 4.67618 95.9388 6.12859C92.764 7.55009 82.2534 17.4388 64.4685 35.7947C46.6528 54.1198 35.464 63.2978 30.8406 63.205C26.8644 60.9492 26.4945 55.5722 29.7309 47.0432L34.94 32.859L21.7478 49.7626C10.4665 62.9269 3.93207 69.6636 2.14433 69.9417C0.356597 70.2508 -0.32151 68.8602 0.140836 65.7699C3.00738 66.0172 16.7853 48.3411 41.5053 12.7417C46.7761 9.77506 47.5775 13.1743 43.8787 22.9394C41.1663 30.1396 37.8066 39.7811 33.7687 51.7712C31.9194 57.3336 33.7996 57.7662 39.3785 53.1L66.0096 26.6786Z" fill="#7CA880"/>
<path d="M304.919 240.429C306.306 240.12 307.2 240.367 307.57 241.202C307.971 242.036 307.847 243.149 307.262 244.539C306.553 247.413 305.905 248.989 305.289 249.236C304.642 249.514 304.025 249.298 303.347 248.68C302.638 248.062 302.361 246.764 302.422 244.879C302.731 242.222 303.532 240.769 304.919 240.429ZM351.277 180.572C351.924 180.448 352.171 180.973 351.924 182.179C347.732 188.544 341.167 197.537 332.228 209.156L319.622 223.433C318.142 224.236 317.711 223.989 318.265 222.66C337.746 193.489 348.749 179.459 351.277 180.572ZM266.175 222.042C267.777 222.012 268.671 222.413 268.856 223.279C269.01 224.144 268.733 225.102 267.993 226.122C266.668 227.945 263.709 232.518 259.085 239.749C254.554 245.188 255.602 245.806 262.322 241.573C264.942 240.306 271.014 236.103 280.476 229.057H281.555C282.387 229.397 282.819 230.232 282.819 231.653C277.949 238.328 276.408 242.994 278.226 245.59C283.62 244.354 286.579 241.604 287.042 237.308C287.812 234.836 287.011 232.549 284.668 230.479C284.391 228.563 289.23 227.203 299.155 226.4C301.898 226.616 303.162 227.203 303.008 228.161C302.237 229.088 300.049 229.737 296.443 230.17C292.867 230.571 291.172 231.344 291.419 232.549V236.072C291.419 241.974 288.305 246.177 282.079 248.773L278.226 249.669C274.928 249.669 273.202 248.093 273.048 244.972V243.736C273.079 242.531 273.51 240.831 274.373 238.668L272.709 239.502C267.346 243.21 261.674 246.455 255.664 249.205C253.814 249.731 252.52 249.731 251.78 249.236C251.071 248.742 250.701 247.722 250.701 246.177L255.664 237.864C259.332 232.611 261.274 229.552 261.52 228.686C261.736 227.821 261.12 227.45 259.64 227.543L250.732 232.178C249.561 232.487 248.821 232.549 248.482 232.395C248.174 232.24 247.989 231.746 247.989 230.85C251.472 226.74 257.328 223.804 265.62 222.073H266.175V222.042ZM225.026 230.417C213.621 235.299 214.176 236.566 226.69 234.156C236.769 231.684 241.794 229.521 241.794 227.728C241.794 225.905 239.605 225.256 235.197 225.72L225.026 230.417ZM231.468 223.248C234.581 221.888 237.632 221.455 240.653 221.981C243.643 222.475 245.184 224.515 245.215 228.068C245.215 233.105 235.444 236.69 215.841 238.853C211.741 240.028 209.707 241.449 209.799 243.149C209.892 244.848 210.631 245.868 212.049 246.208C213.467 246.548 214.947 246.795 216.549 246.919C218.152 247.042 224.163 246.084 234.643 244.014C245.092 241.913 250.239 241.202 250.116 241.851C249.992 242.5 245.061 244.076 235.259 246.61C225.488 249.144 217.474 250.163 211.248 249.669C207.087 248.495 205.422 246.115 206.255 242.562L206.686 240.089H203.018C202.71 239.193 203.357 238.39 204.929 237.648C206.47 236.814 215.317 232.055 231.468 223.248ZM213.59 204.49C229.896 186.289 240.437 177.76 245.184 178.872C249.931 180.015 252.643 182.457 253.383 186.227C254.092 189.997 252.551 192.685 248.698 194.292C248.42 185.949 246.694 182.488 243.52 183.94C240.345 185.361 229.834 195.25 212.049 213.606C194.234 231.931 183.045 241.109 178.421 241.016C174.445 238.761 174.075 233.384 177.312 224.855L182.521 210.67L169.329 227.574C158.047 240.738 151.513 247.475 149.725 247.753C147.937 248.062 147.259 246.672 147.722 243.581C150.588 243.828 164.366 226.152 189.086 190.553C194.357 187.586 195.158 190.986 191.46 200.751C188.747 207.951 185.387 217.592 181.35 229.583C179.5 235.145 181.38 235.578 186.959 230.911L213.59 204.49Z" fill="#7CA880"/>
</svg>
