<svg width="424" height="19" viewBox="0 0 424 19" fill="none" xmlns="http://www.w3.org/2000/svg">
<g clip-path="url(#clip0_395_612)">
<path d="M40.1534 5.97416C39.9908 5.81093 39.6982 5.54977 39.4706 5.54977C39.2105 5.54977 38.8529 5.87623 38.6903 6.03946C38.5278 6.20269 38.4302 6.43121 38.4302 6.69238C38.4302 6.95355 38.4953 7.28001 38.6578 7.44324C38.9179 7.7044 39.7307 8.03086 40.2184 7.57382C40.381 7.41059 40.446 6.85561 40.446 6.62708C40.4135 6.36592 40.316 6.13739 40.1534 5.97416ZM39.113 3.32983C39.9908 3.32983 40.9987 3.85217 41.584 4.4398C42.1692 5.02743 42.6244 5.84358 42.6244 6.72502C42.6244 7.60647 42.1692 8.42262 41.584 9.01025C40.9987 9.59788 40.1859 9.95698 39.3081 9.95698C38.5278 9.95698 37.845 9.72846 37.1947 9.04289C36.6095 8.38997 35.9267 7.63911 36.0893 6.75767C36.0893 5.87623 36.4469 5.06007 37.0322 4.47245C37.6174 3.85217 38.2351 3.32983 39.113 3.32983Z" fill="#50966E"/>
<path d="M2.89371 18.5754C2.66612 18.249 2.66612 17.8899 2.82868 17.4981C2.99125 17.1064 3.31638 16.7472 3.77156 16.4534C4.45432 15.9637 5.33217 15.4088 6.4051 14.7885L7.25043 14.2661L8.97361 13.1562C12.3224 10.9689 12.0948 10.2833 15.3786 7.99811C15.4437 7.96546 15.5737 7.86752 15.7363 7.76958C15.9314 7.639 16.224 7.44312 16.6141 7.18195C17.0368 6.88814 17.557 6.56168 18.1747 6.13728C19.2477 5.38642 19.9629 4.76615 20.4506 4.3091C21.8487 3.00326 23.2467 4.37439 21.5236 5.9414C20.5482 6.82285 19.5403 7.57371 18.6299 8.19398L16.5816 9.56512C13.4279 11.6871 13.6555 11.9809 10.5667 14.1682C9.78643 14.7232 8.87607 15.4414 7.83566 16.2902C6.76274 17.139 5.85238 17.8572 5.10458 18.4122C4.06417 19.1304 3.34889 19.1957 2.89371 18.5754Z" fill="#50966E"/>
<path d="M0.19449 14.8215C-0.0331 14.495 -0.0331 14.1359 0.129464 13.7441C0.324541 13.3524 0.617157 12.9933 1.07234 12.6995C1.75511 12.2098 2.63295 11.6548 3.70588 11.0345L4.55121 10.5122L6.27439 9.40221C9.62321 7.21492 9.39563 6.52935 12.6469 4.21148C12.7119 4.17884 12.842 4.0809 13.0045 3.98296C13.1996 3.85238 13.4597 3.6565 13.8499 3.42798C14.3051 3.13416 14.8253 2.77506 15.443 2.35066C16.5159 1.5998 17.2312 0.979525 17.7189 0.522481C19.117 -0.783361 20.515 0.587773 18.7918 2.15478C17.8165 3.03623 16.8086 3.78709 15.8982 4.40736L13.8499 5.7785C10.6961 7.93314 10.9562 8.22695 7.83501 10.3816C7.0547 10.9692 6.14434 11.6548 5.10393 12.5036C4.06352 13.385 3.15316 14.1032 2.37285 14.6256C1.33244 15.3764 0.617157 15.4091 0.19449 14.8215Z" fill="#50966E"/>
<path d="M75.8201 18.5755C76.0477 18.249 76.0477 17.8899 75.8851 17.4982C75.6901 17.1064 75.3975 16.7473 74.9423 16.4535C74.2595 15.9638 73.3817 15.4088 72.3087 14.7886L71.4309 14.2662L69.7077 13.1562C66.3589 10.969 66.5865 10.2834 63.3027 7.99817C63.2376 7.96553 63.1076 7.86759 62.945 7.76965C62.75 7.63907 62.4899 7.44319 62.0997 7.21467C61.677 6.92085 61.1568 6.59439 60.5391 6.17C59.4662 5.41914 58.7509 4.79886 58.2632 4.34182C56.8651 3.03597 55.4671 4.40711 57.1903 5.97412C58.1656 6.85556 59.1735 7.60642 60.0839 8.2267L62.1322 9.59783C65.286 11.7525 65.0259 12.0136 68.1471 14.2009C68.9274 14.7559 69.8703 15.4741 70.8782 16.3229C71.9186 17.2044 72.8289 17.8899 73.6092 18.4449C74.6497 19.1305 75.3975 19.1958 75.8201 18.5755Z" fill="#50966E"/>
<path d="M78.551 14.8215C78.7786 14.4951 78.7786 14.1359 78.6161 13.7442C78.4535 13.3524 78.1284 12.9933 77.6732 12.6995C76.9904 12.2098 76.1126 11.6549 75.0396 11.0346L74.1943 10.5122L72.4711 9.40227C69.1223 7.21499 69.3499 6.52942 66.0661 4.21155C66.0011 4.17891 65.871 4.08097 65.7085 3.98303C65.5134 3.85245 65.2533 3.65657 64.8631 3.42805C64.4405 3.13423 63.9202 2.80777 63.3025 2.38337C62.2296 1.63251 61.5143 1.01224 61.0266 0.555195C59.6286 -0.750646 58.2305 0.620488 59.9537 2.1875C60.9291 3.06894 61.937 3.8198 62.8473 4.44007L64.8956 5.81121C68.0494 7.96585 67.7893 8.22702 70.9105 10.4143C71.6908 10.9693 72.6337 11.6875 73.6416 12.5363C74.682 13.4177 75.5924 14.1033 76.3727 14.6583C77.3806 15.3765 78.1284 15.4091 78.551 14.8215Z" fill="#50966E"/>
<path d="M40.1858 18.5754C40.4134 18.249 40.4134 17.8899 40.2509 17.4981C40.0883 17.1064 39.7632 16.7472 39.308 16.4534C38.6252 15.9637 37.7474 15.4088 36.6745 14.7885L35.7966 14.2661L34.0734 13.1562C30.7571 10.9689 30.9522 10.2833 27.7009 7.99811C27.6359 7.93281 27.5058 7.86752 27.3108 7.73694C27.1482 7.639 26.8556 7.44312 26.4654 7.18195C26.0428 6.88814 25.5225 6.56168 24.9048 6.13728C23.8319 5.38642 23.1166 4.76615 22.6289 4.3091C21.2309 3.00326 19.8328 4.37439 21.556 5.9414C22.5314 6.82285 23.5393 7.57371 24.4496 8.19398L26.4979 9.56512C29.6517 11.6871 29.4241 11.9809 32.5128 14.1682C33.2931 14.7232 34.236 15.4414 35.2439 16.2902C36.2843 17.1716 37.1947 17.8572 37.975 18.4122C39.0154 19.1304 39.7307 19.1957 40.1858 18.5754Z" fill="#50966E"/>
<path d="M38.5602 18.5755C38.3326 18.249 38.3326 17.8899 38.4952 17.4982C38.6578 17.1064 38.9829 16.7473 39.4381 16.4535C40.1208 15.9638 40.9987 15.4088 42.0716 14.7886L42.9169 14.2662L44.6401 13.1562C47.9889 10.969 47.7613 10.2834 51.0451 7.99817C51.1102 7.96553 51.2402 7.86759 51.4028 7.76965C51.5979 7.63907 51.858 7.44319 52.2481 7.21467C52.6708 6.92085 53.191 6.59439 53.8087 6.17C54.8817 5.41914 55.5969 4.79886 56.0846 4.34182C57.4827 3.03597 58.8807 4.40711 57.1576 5.97412C56.1822 6.85556 55.1743 7.60642 54.2639 8.2267L52.2156 9.59783C49.0619 11.7525 49.322 12.0136 46.2007 14.2009C45.4204 14.7559 44.4775 15.4741 43.4697 16.3229C42.4292 17.2044 41.5189 17.8899 40.7386 18.4449C39.6982 19.1305 38.9829 19.1958 38.5602 18.5755Z" fill="#50966E"/>
<path d="M152.323 18.5755C152.55 18.249 152.55 17.8899 152.388 17.4982C152.192 17.1064 151.9 16.7473 151.445 16.4535C150.762 15.9638 149.884 15.4088 148.811 14.7886L147.966 14.2662L146.243 13.1562C142.894 10.969 143.121 10.2834 139.838 7.99817C139.773 7.96553 139.643 7.86759 139.48 7.76965C139.285 7.63907 139.025 7.44319 138.635 7.21467C138.212 6.92085 137.692 6.59439 137.074 6.17C136.001 5.41914 135.286 4.79886 134.798 4.34182C133.4 3.03597 132.002 4.40711 133.725 5.97412C134.701 6.85556 135.708 7.60642 136.619 8.2267L138.667 9.59783C141.821 11.7525 141.561 12.0136 144.682 14.2009C145.462 14.7559 146.405 15.4741 147.413 16.3229C148.453 17.2044 149.364 17.8899 150.144 18.4449C151.185 19.1305 151.9 19.1958 152.323 18.5755Z" fill="#50966E"/>
<path d="M155.054 14.8215C155.282 14.495 155.282 14.1359 155.119 13.7441C154.924 13.3524 154.631 12.9933 154.176 12.6995C153.493 12.2098 152.616 11.6548 151.543 11.0345L150.697 10.5122L148.974 9.40221C145.625 7.21492 145.853 6.52935 142.569 4.21148C142.504 4.17884 142.374 4.0809 142.211 3.98296C142.016 3.85238 141.756 3.6565 141.366 3.42798C140.943 3.13416 140.391 2.77506 139.805 2.35066C138.733 1.5998 138.017 0.979525 137.53 0.522481C136.131 -0.783361 134.733 0.587773 136.457 2.15478C137.432 3.03623 138.44 3.78709 139.35 4.40736L141.399 5.7785C144.552 7.93314 144.292 8.1943 147.413 10.3816C148.194 10.9366 149.137 11.6548 150.145 12.5036C151.185 13.385 152.095 14.0706 152.876 14.6256C153.884 15.3764 154.631 15.4091 155.054 14.8215Z" fill="#50966E"/>
<path d="M79.6564 18.5755C79.4288 18.249 79.4288 17.8899 79.5914 17.4982C79.7539 17.1064 80.0791 16.7473 80.5343 16.4535C81.217 15.9638 82.0949 15.4088 83.1678 14.7886L84.0456 14.2662L85.7688 13.1562C89.1176 10.969 88.8901 10.2834 92.1738 7.99817C92.2389 7.96553 92.3689 7.86759 92.5315 7.76965C92.7266 7.63907 92.9867 7.44319 93.3768 7.21467C93.7995 6.92085 94.3197 6.59439 94.9374 6.17C96.0104 5.41914 96.7256 4.79886 97.2133 4.34182C98.6114 3.03597 100.009 4.40711 98.2863 5.97412C97.3109 6.85556 96.303 7.60642 95.3926 8.2267L93.3118 9.56518C90.1581 11.7198 90.4182 11.981 87.2969 14.1683C86.5166 14.7233 85.5737 15.4415 84.5658 16.2903C83.5254 17.1717 82.6151 17.8573 81.8348 18.4123C80.7944 19.1305 80.0791 19.1958 79.6564 18.5755Z" fill="#50966E"/>
<path d="M76.9254 14.8215C76.6979 14.4951 76.6979 14.1359 76.8604 13.7442C77.0555 13.3524 77.3481 12.9933 77.8033 12.6995C78.4861 12.2098 79.3639 11.6549 80.4368 11.0346L81.2822 10.5122L83.0054 9.40227C86.3542 7.21499 86.1266 6.52942 89.4104 4.21155C89.4754 4.17891 89.6055 4.08097 89.768 3.98303C89.9631 3.85245 90.2232 3.65657 90.6134 3.42805C91.036 3.13423 91.5562 2.80777 92.174 2.38337C93.2469 1.63251 93.9622 1.01224 94.4499 0.555195C95.8479 -0.750646 97.246 0.620488 95.5228 2.1875C94.5474 3.06894 93.5395 3.8198 92.6292 4.44007L90.5809 5.81121C87.4271 7.96585 87.6872 8.22702 84.566 10.4143C83.7857 10.9693 82.8428 11.6875 81.8349 12.5363C80.7945 13.4177 79.8841 14.1033 79.1038 14.6583C78.0634 15.3765 77.3481 15.4091 76.9254 14.8215Z" fill="#50966E"/>
<path d="M115.063 18.5755C114.836 18.249 114.836 17.8899 114.998 17.4982C115.161 17.1064 115.486 16.7473 115.941 16.4535C116.624 15.9638 117.502 15.4088 118.575 14.7886L119.452 14.2662L121.176 13.1562C124.524 10.969 124.297 10.2834 127.581 7.99817C127.646 7.96553 127.776 7.86759 127.938 7.76965C128.133 7.63907 128.393 7.44319 128.784 7.21467C129.206 6.92085 129.726 6.59439 130.344 6.17C131.417 5.41914 132.132 4.79886 132.62 4.34182C134.018 3.03597 135.416 4.40711 133.693 5.97412C132.718 6.85556 131.71 7.60642 130.799 8.2267L128.751 9.59783C125.597 11.7525 125.857 12.0136 122.736 14.2009C121.956 14.7559 121.013 15.4741 120.005 16.3229C118.965 17.2044 118.054 17.8899 117.274 18.4449C116.234 19.1305 115.486 19.1958 115.063 18.5755Z" fill="#50966E"/>
<path d="M116.916 18.5754C117.144 18.249 117.144 17.8899 116.981 17.4981C116.819 17.1064 116.493 16.7472 116.038 16.4534C115.355 15.9637 114.478 15.4088 113.405 14.7885L112.559 14.2661L110.836 13.1562C107.487 10.9689 107.715 10.2833 104.431 7.99811C104.366 7.93281 104.236 7.86752 104.041 7.73694C103.846 7.60635 103.586 7.41048 103.196 7.18195C102.773 6.88814 102.253 6.56168 101.635 6.13728C100.562 5.38642 99.8468 4.76615 99.3591 4.3091C97.9611 3.00326 96.563 4.37439 98.2862 5.9414C99.2616 6.82285 100.269 7.57371 101.18 8.19398L103.228 9.56512C106.382 11.7198 106.122 11.9809 109.243 14.1682C110.023 14.7232 110.966 15.4414 111.974 16.2902C113.015 17.1716 113.925 17.8572 114.705 18.4122C115.746 19.1304 116.493 19.1957 116.916 18.5754Z" fill="#50966E"/>
<path d="M305.946 18.5754C306.173 18.249 306.173 17.8899 306.011 17.4981C305.816 17.1064 305.523 16.7472 305.068 16.4534C304.385 15.9637 303.507 15.4088 302.434 14.7885L301.589 14.2661L299.866 13.1562C296.517 10.9689 296.745 10.2833 293.461 7.99811C293.396 7.96546 293.266 7.86752 293.103 7.76958C292.908 7.639 292.616 7.44312 292.225 7.18195C291.803 6.88814 291.283 6.56168 290.665 6.13728C289.592 5.38642 288.877 4.76615 288.389 4.3091C286.991 3.00326 285.593 4.37439 287.316 5.9414C288.291 6.82285 289.299 7.57371 290.21 8.19398L292.258 9.56512C295.412 11.7198 295.152 11.9809 298.273 14.1682C299.053 14.7232 299.996 15.4414 301.004 16.2902C302.044 17.1716 302.955 17.8572 303.735 18.4122C304.775 19.1304 305.491 19.1957 305.946 18.5754Z" fill="#50966E"/>
<path d="M308.645 14.8215C308.872 14.4951 308.872 14.1359 308.71 13.7442C308.547 13.3524 308.222 12.9933 307.767 12.6995C307.084 12.2098 306.206 11.6549 305.133 11.0346L304.288 10.5122L302.565 9.40227C299.216 7.21499 299.443 6.52942 296.192 4.21155C296.127 4.17891 295.997 4.08097 295.834 3.98303C295.639 3.85245 295.379 3.65657 294.989 3.42805C294.566 3.13423 294.046 2.80777 293.428 2.38337C292.356 1.63251 291.64 1.01224 291.153 0.555195C289.755 -0.750646 288.356 0.620488 290.08 2.1875C291.055 3.06894 292.063 3.8198 292.973 4.44007L295.022 5.81121C298.175 7.96585 297.915 8.22702 301.036 10.4143C301.817 10.9693 302.76 11.6875 303.768 12.5363C304.808 13.4177 305.751 14.1033 306.499 14.6583C307.507 15.3765 308.222 15.4091 308.645 14.8215Z" fill="#50966E"/>
<path d="M268.654 18.5755C268.426 18.249 268.426 17.8899 268.589 17.4982C268.751 17.1064 269.076 16.7473 269.532 16.4535C270.214 15.9638 271.092 15.4088 272.165 14.7886L273.043 14.2662L274.766 13.1562C278.115 10.969 277.887 10.2834 281.171 7.99817C281.236 7.96553 281.366 7.86759 281.529 7.76965C281.724 7.63907 281.984 7.44319 282.374 7.21467C282.797 6.92085 283.317 6.59439 283.935 6.17C285.008 5.41914 285.723 4.79886 286.211 4.34182C287.609 3.03597 289.007 4.40711 287.284 5.97412C286.308 6.85556 285.3 7.60642 284.39 8.2267L282.342 9.59783C279.188 11.7525 279.448 12.0136 276.327 14.2009C275.546 14.7559 274.604 15.4741 273.596 16.3229C272.555 17.2044 271.645 17.8899 270.865 18.4449C269.824 19.1305 269.109 19.1958 268.654 18.5755Z" fill="#50966E"/>
<path d="M232.987 18.5755C232.76 18.249 232.76 17.8899 232.922 17.4982C233.117 17.1064 233.41 16.7473 233.865 16.4535C234.548 15.9638 235.426 15.4088 236.499 14.7886L237.344 14.2662L239.067 13.1562C242.416 10.969 242.188 10.2834 245.472 7.99817C245.537 7.96553 245.667 7.86759 245.83 7.76965C246.025 7.63907 246.285 7.44319 246.675 7.21467C247.098 6.92085 247.618 6.59439 248.236 6.17C249.309 5.41914 250.024 4.79886 250.512 4.34182C251.91 3.03597 253.308 4.40711 251.585 5.97412C250.609 6.85556 249.601 7.60642 248.691 8.2267L246.643 9.59783C243.489 11.7525 243.749 12.0136 240.628 14.2009C239.847 14.7559 238.905 15.4741 237.897 16.3229C236.856 17.2044 235.946 17.8899 235.166 18.4449C234.158 19.1305 233.41 19.1958 232.987 18.5755Z" fill="#50966E"/>
<path d="M230.256 14.8216C230.028 14.4951 230.028 14.136 230.191 13.7443C230.353 13.3525 230.678 12.9934 231.134 12.6996C231.816 12.2099 232.694 11.6549 233.767 11.0346L234.645 10.5123L236.368 9.40234C239.717 7.21506 239.489 6.52949 242.773 4.24427C242.838 4.21162 242.968 4.11368 243.131 4.01574C243.326 3.88516 243.586 3.68928 243.976 3.46076C244.399 3.16695 244.919 2.84049 245.537 2.41609C246.61 1.66523 247.325 1.04495 247.813 0.58791C249.211 -0.717932 250.609 0.653202 248.886 2.22021C247.91 3.10166 246.902 3.85251 245.992 4.47279L243.944 5.84392C240.79 7.99856 241.05 8.25973 237.929 10.447C237.148 11.002 236.206 11.7202 235.198 12.569C234.157 13.4505 233.247 14.136 232.467 14.691C231.426 15.3766 230.678 15.4092 230.256 14.8216Z" fill="#50966E"/>
<path d="M270.247 18.5755C270.474 18.249 270.474 17.8899 270.312 17.4982C270.149 17.1064 269.824 16.7473 269.369 16.4535C268.686 15.9638 267.808 15.4088 266.735 14.7886L265.89 14.2662L264.167 13.1562C260.818 10.969 261.046 10.2834 257.762 7.99817C257.697 7.96553 257.567 7.86759 257.404 7.76965C257.209 7.63907 256.949 7.44319 256.559 7.21467C256.136 6.92085 255.616 6.59439 254.998 6.17C253.925 5.41914 253.21 4.79886 252.722 4.34182C251.324 3.03597 249.926 4.40711 251.649 5.97412C252.625 6.85556 253.633 7.60642 254.543 8.2267L256.591 9.59783C259.745 11.7525 259.485 12.0136 262.606 14.2009C263.387 14.7559 264.329 15.4741 265.337 16.3229C266.378 17.2044 267.321 17.8899 268.068 18.4449C269.109 19.1305 269.824 19.1958 270.247 18.5755Z" fill="#50966E"/>
<path d="M156.127 18.5755C155.899 18.249 155.899 17.8899 156.062 17.4982C156.257 17.1064 156.55 16.7473 157.005 16.4535C157.687 15.9638 158.565 15.4088 159.638 14.7886L160.484 14.2662L162.207 13.1562C165.556 10.969 165.328 10.2834 168.612 7.99817C168.677 7.96553 168.807 7.86759 168.969 7.76965C169.165 7.63907 169.425 7.44319 169.815 7.21467C170.237 6.92085 170.758 6.59439 171.375 6.17C172.448 5.41914 173.164 4.79886 173.651 4.34182C175.049 3.03597 176.447 4.40711 174.724 5.97412C173.749 6.85556 172.741 7.60642 171.831 8.2267L169.782 9.59783C166.629 11.7525 166.889 12.0136 163.767 14.2009C162.987 14.7559 162.044 15.4741 161.036 16.3229C159.996 17.2044 159.086 17.8899 158.305 18.4449C157.297 19.1305 156.55 19.1958 156.127 18.5755Z" fill="#50966E"/>
<path d="M153.395 14.8216C153.168 14.4951 153.168 14.136 153.33 13.7443C153.493 13.3525 153.818 12.9934 154.273 12.6996C154.956 12.2099 155.834 11.6549 156.907 11.0346L157.752 10.5123L159.475 9.40234C162.824 7.21506 162.597 6.52949 165.88 4.24427C165.945 4.21162 166.075 4.11368 166.238 4.01574C166.433 3.88516 166.693 3.68928 167.083 3.46076C167.506 3.16695 168.026 2.84049 168.644 2.41609C169.717 1.66523 170.432 1.04495 170.92 0.58791C172.318 -0.717932 173.716 0.653202 171.993 2.22021C171.017 3.10166 170.009 3.85251 169.099 4.47279L167.051 5.84392C163.897 7.99856 164.157 8.25973 161.036 10.447C160.256 11.002 159.313 11.7202 158.305 12.569C157.264 13.4505 156.354 14.136 155.574 14.691C154.566 15.3766 153.851 15.4092 153.395 14.8216Z" fill="#50966E"/>
<path d="M193.386 18.5755C193.614 18.249 193.614 17.8899 193.451 17.4982C193.256 17.1064 192.964 16.7473 192.508 16.4535C191.826 15.9638 190.948 15.4088 189.907 14.7886L189.03 14.2662L187.306 13.1562C183.958 10.969 184.185 10.2834 180.901 7.99817C180.836 7.96553 180.706 7.86759 180.544 7.76965C180.349 7.63907 180.088 7.44319 179.698 7.21467C179.276 6.92085 178.755 6.59439 178.138 6.17C177.065 5.41914 176.35 4.79886 175.862 4.34182C174.464 3.03597 173.066 4.40711 174.789 5.97412C175.764 6.85556 176.772 7.60642 177.683 8.2267L179.731 9.59783C182.885 11.7525 182.624 12.0136 185.746 14.2009C186.526 14.7559 187.469 15.4741 188.477 16.3229C189.517 17.2044 190.428 17.8899 191.208 18.4449C192.248 19.1305 192.964 19.1958 193.386 18.5755Z" fill="#50966E"/>
<path d="M229.15 18.5755C229.378 18.249 229.378 17.8899 229.215 17.4982C229.053 17.1064 228.728 16.7473 228.272 16.4535C227.59 15.9638 226.712 15.4088 225.671 14.7886L224.826 14.2662L223.103 13.1562C219.754 10.969 219.982 10.2834 216.698 7.99817C216.633 7.96553 216.503 7.86759 216.34 7.76965C216.145 7.63907 215.885 7.44319 215.495 7.21467C215.072 6.92085 214.552 6.59439 213.934 6.17C212.861 5.41914 212.146 4.79886 211.658 4.34182C210.26 3.03597 208.862 4.40711 210.586 5.97412C211.561 6.85556 212.569 7.60642 213.479 8.2267L215.527 9.59783C218.681 11.7525 218.421 12.0136 221.542 14.2009C222.323 14.7559 223.266 15.4741 224.273 16.3229C225.314 17.2044 226.224 17.8899 227.004 18.4449C228.012 19.1305 228.728 19.1958 229.15 18.5755Z" fill="#50966E"/>
<path d="M231.882 14.8215C232.109 14.4951 232.109 14.1359 231.947 13.7442C231.784 13.3524 231.459 12.9933 231.004 12.6995C230.321 12.2098 229.443 11.6549 228.37 11.0346L227.525 10.5122L225.802 9.40227C222.453 7.21499 222.681 6.52942 219.397 4.21155C219.332 4.17891 219.202 4.08097 219.039 3.98303C218.844 3.85245 218.584 3.65657 218.194 3.42805C217.771 3.13423 217.251 2.80777 216.633 2.38337C215.56 1.63251 214.845 1.01224 214.357 0.555195C212.959 -0.750646 211.561 0.620488 213.284 2.1875C214.26 3.06894 215.268 3.8198 216.178 4.44007L218.226 5.81121C221.38 7.96585 221.12 8.22702 224.241 10.4143C225.022 10.9693 225.964 11.6875 226.972 12.5363C228.013 13.4177 228.923 14.1033 229.703 14.6583C230.744 15.3765 231.459 15.4091 231.882 14.8215Z" fill="#50966E"/>
<path d="M191.891 18.5755C191.663 18.249 191.663 17.8899 191.826 17.4982C191.988 17.1064 192.313 16.7473 192.769 16.4535C193.451 15.9638 194.329 15.4088 195.402 14.7886L196.28 14.2662L198.003 13.1562C201.352 10.969 201.124 10.2834 204.408 7.99817C204.473 7.96553 204.603 7.86759 204.766 7.76965C204.961 7.63907 205.221 7.44319 205.611 7.21467C206.034 6.92085 206.554 6.59439 207.172 6.17C208.245 5.41914 208.96 4.79886 209.448 4.34182C210.846 3.03597 212.244 4.40711 210.521 5.97412C209.545 6.85556 208.537 7.60642 207.627 8.2267L205.579 9.59783C202.425 11.7525 202.685 12.0136 199.564 14.2009C198.784 14.7559 197.841 15.4741 196.833 16.3229C195.792 17.2044 194.882 17.8899 194.102 18.4449C193.061 19.1305 192.313 19.1958 191.891 18.5755Z" fill="#50966E"/>
<path d="M309.782 18.5755C309.555 18.249 309.555 17.8899 309.717 17.4982C309.912 17.1064 310.205 16.7473 310.66 16.4535C311.343 15.9638 312.221 15.4088 313.294 14.7886L314.172 14.2662L315.895 13.1562C319.244 10.969 319.016 10.2834 322.3 7.99817C322.365 7.96553 322.495 7.86759 322.657 7.76965C322.853 7.63907 323.113 7.44319 323.503 7.21467C323.925 6.92085 324.446 6.59439 325.063 6.17C326.136 5.41914 326.852 4.79886 327.339 4.34182C328.737 3.03597 330.135 4.40711 328.412 5.97412C327.437 6.85556 326.429 7.60642 325.519 8.2267L323.47 9.59783C320.317 11.7525 320.577 12.0136 317.455 14.2009C316.675 14.7559 315.732 15.4741 314.724 16.3229C313.684 17.2044 312.774 17.8899 311.993 18.4449C310.92 19.1305 310.205 19.1958 309.782 18.5755Z" fill="#50966E"/>
<path d="M307.051 14.8216C306.824 14.4951 306.824 14.136 306.986 13.7443C307.149 13.3525 307.474 12.9934 307.929 12.6996C308.612 12.2099 309.49 11.6549 310.563 11.0346L311.44 10.5123L313.164 9.40234C316.512 7.21506 316.285 6.52949 319.569 4.24427C319.634 4.21162 319.764 4.11368 319.926 4.01574C320.121 3.88516 320.381 3.68928 320.772 3.46076C321.194 3.16695 321.714 2.84049 322.332 2.41609C323.405 1.66523 324.12 1.04495 324.608 0.58791C326.006 -0.717932 327.404 0.653202 325.681 2.22021C324.706 3.10166 323.698 3.85251 322.787 4.47279L320.739 5.84392C317.585 7.99856 317.845 8.25973 314.724 10.447C313.944 11.002 313.001 11.7202 311.993 12.569C310.953 13.4505 310.042 14.136 309.262 14.691C308.222 15.3766 307.474 15.4092 307.051 14.8216Z" fill="#50966E"/>
<path d="M347.042 18.5755C347.27 18.249 347.27 17.8899 347.107 17.4982C346.945 17.1064 346.619 16.7473 346.164 16.4535C345.481 15.9638 344.604 15.4088 343.531 14.7886L342.685 14.2662L340.962 13.1562C337.613 10.969 337.841 10.2834 334.557 7.99817C334.492 7.96553 334.362 7.86759 334.199 7.76965C334.004 7.63907 333.744 7.44319 333.354 7.21467C332.931 6.92085 332.411 6.59439 331.794 6.17C330.721 5.41914 330.005 4.79886 329.518 4.34182C328.12 3.03597 326.721 4.40711 328.445 5.97412C329.42 6.85556 330.428 7.60642 331.338 8.2267L333.387 9.59783C336.54 11.7525 336.28 12.0136 339.402 14.2009C340.182 14.7559 341.125 15.4741 342.133 16.3229C343.173 17.2044 344.116 17.8899 344.864 18.4449C345.904 19.1305 346.619 19.1958 347.042 18.5755Z" fill="#50966E"/>
<path d="M382.708 18.5755C382.936 18.249 382.936 17.8899 382.773 17.4982C382.578 17.1064 382.286 16.7473 381.831 16.4535C381.148 15.9638 380.27 15.4088 379.197 14.7886L378.352 14.2662L376.629 13.1562C373.28 10.969 373.507 10.2834 370.224 7.99817C370.159 7.96553 370.028 7.86759 369.866 7.76965C369.671 7.63907 369.411 7.44319 369.021 7.21467C368.598 6.92085 368.078 6.59439 367.46 6.17C366.387 5.41914 365.672 4.79886 365.184 4.34182C363.786 3.03597 362.388 4.40711 364.111 5.97412C365.087 6.85556 366.094 7.60642 367.005 8.2267L369.053 9.59783C372.207 11.7525 371.947 12.0136 375.068 14.2009C375.848 14.7559 376.791 15.4741 377.799 16.3229C378.839 17.2044 379.75 17.8899 380.53 18.4449C381.571 19.1305 382.286 19.1958 382.708 18.5755Z" fill="#50966E"/>
<path d="M385.44 14.8216C385.668 14.4951 385.668 14.136 385.505 13.7443C385.342 13.3525 385.017 12.9934 384.562 12.6996C383.879 12.2099 383.001 11.6549 381.929 11.0346L381.083 10.5123L379.36 9.40234C376.011 7.21506 376.239 6.52949 372.955 4.24427C372.89 4.21162 372.76 4.11368 372.597 4.01574C372.402 3.88516 372.142 3.68928 371.752 3.46076C371.329 3.16695 370.809 2.84049 370.191 2.41609C369.118 1.66523 368.403 1.04495 367.916 0.58791C366.517 -0.717932 365.119 0.653202 366.843 2.22021C367.818 3.10166 368.826 3.85251 369.736 4.47279L371.785 5.84392C374.938 7.99856 374.678 8.25973 377.799 10.447C378.58 11.002 379.523 11.7202 380.531 12.569C381.571 13.4505 382.514 14.136 383.262 14.691C384.302 15.3766 385.017 15.4092 385.44 14.8216Z" fill="#50966E"/>
<path d="M345.449 18.5755C345.222 18.249 345.222 17.8899 345.384 17.4982C345.547 17.1064 345.872 16.7473 346.327 16.4535C347.01 15.9638 347.888 15.4088 348.961 14.7886L349.838 14.2662L351.562 13.1562C354.91 10.969 354.683 10.2834 357.967 7.99817C358.032 7.96553 358.162 7.86759 358.324 7.76965C358.519 7.63907 358.779 7.44319 359.17 7.21467C359.592 6.92085 360.112 6.59439 360.73 6.17C361.803 5.41914 362.518 4.79886 363.006 4.34182C364.404 3.03597 365.802 4.40711 364.079 5.97412C363.104 6.85556 362.096 7.60642 361.185 8.2267L359.137 9.59783C355.983 11.7525 356.243 12.0136 353.122 14.2009C352.342 14.7559 351.399 15.4741 350.391 16.3229C349.351 17.2044 348.44 17.8899 347.66 18.4449C346.62 19.1305 345.872 19.1958 345.449 18.5755Z" fill="#50966E"/>
<path d="M116.786 5.97416C116.623 5.81093 116.331 5.54977 116.071 5.54977C115.811 5.54977 115.453 5.87623 115.29 6.03946C115.128 6.20269 115.03 6.43121 115.03 6.69238C115.03 6.95355 115.095 7.28001 115.258 7.44324C115.518 7.7044 116.331 8.03086 116.818 7.57382C116.981 7.41059 117.046 6.85561 117.046 6.59444C117.046 6.36592 116.949 6.13739 116.786 5.97416ZM115.746 3.32983C116.623 3.32983 117.631 3.85217 118.217 4.4398C118.802 5.02743 119.257 5.84358 119.257 6.72502C119.257 7.60647 118.802 8.42262 118.217 9.01025C117.631 9.59788 116.818 9.95698 115.941 9.95698C115.16 9.95698 114.478 9.72846 113.827 9.04289C113.242 8.38997 112.559 7.63911 112.722 6.75767C112.722 5.87623 113.08 5.06007 113.665 4.47245C114.25 3.85217 114.835 3.32983 115.746 3.32983Z" fill="#50966E"/>
<path d="M193.614 5.97416C193.451 5.81093 193.191 5.54977 192.931 5.54977C192.671 5.54977 192.313 5.87623 192.151 6.03946C191.988 6.20269 191.891 6.43121 191.891 6.69238C191.891 6.95355 191.956 7.28001 192.118 7.44324C192.378 7.7044 193.191 8.03086 193.679 7.57382C193.841 7.41059 193.906 6.85561 193.906 6.62708C193.874 6.36592 193.776 6.13739 193.614 5.97416ZM192.573 3.32983C193.451 3.32983 194.459 3.85217 195.044 4.4398C195.63 5.02743 196.085 5.84358 196.085 6.72502C196.085 7.60647 195.63 8.42262 195.044 9.01025C194.459 9.59788 193.646 9.95698 192.769 9.95698C191.988 9.95698 191.305 9.72846 190.655 9.04289C190.07 8.38997 189.387 7.63911 189.55 6.75767C189.55 5.87623 189.907 5.06007 190.493 4.47245C191.11 3.85217 191.696 3.32983 192.573 3.32983Z" fill="#50966E"/>
<path d="M270.474 5.97416C270.312 5.81093 270.019 5.54977 269.791 5.54977C269.531 5.54977 269.174 5.87623 269.011 6.03946C268.849 6.20269 268.751 6.43121 268.751 6.69238C268.751 6.95355 268.816 7.28001 268.979 7.44324C269.239 7.7044 270.052 8.03086 270.539 7.57382C270.702 7.41059 270.767 6.85561 270.767 6.62708C270.734 6.36592 270.637 6.13739 270.474 5.97416ZM269.434 3.32983C270.312 3.32983 271.32 3.85217 271.905 4.4398C272.49 5.02743 272.945 5.84358 272.945 6.72502C272.945 7.60647 272.49 8.42262 271.905 9.01025C271.32 9.59788 270.507 9.95698 269.629 9.95698C268.849 9.95698 268.166 9.72846 267.516 9.04289C266.93 8.38997 266.248 7.63911 266.41 6.75767C266.41 5.87623 266.768 5.06007 267.353 4.47245C267.938 3.85217 268.523 3.32983 269.434 3.32983Z" fill="#50966E"/>
<path d="M347.302 5.97416C347.14 5.81093 346.847 5.54977 346.619 5.54977C346.392 5.54977 346.002 5.87623 345.839 6.03946C345.676 6.20269 345.579 6.43121 345.579 6.69238C345.579 6.95355 345.644 7.28001 345.806 7.44324C346.067 7.7044 346.879 8.03086 347.367 7.57382C347.53 7.41059 347.595 6.85561 347.595 6.62708C347.562 6.36592 347.465 6.13739 347.302 5.97416ZM346.262 3.32983C347.14 3.32983 348.147 3.85217 348.733 4.4398C349.318 5.02743 349.773 5.84358 349.773 6.72502C349.773 7.60647 349.318 8.42262 348.733 9.01025C348.147 9.59788 347.335 9.95698 346.457 9.95698C345.676 9.95698 344.994 9.72846 344.343 9.04289C343.758 8.38997 343.075 7.63911 343.238 6.75767C343.238 5.87623 343.596 5.06007 344.181 4.47245C344.799 3.85217 345.384 3.32983 346.262 3.32983Z" fill="#50966E"/>
</g>
<defs>
<clipPath id="clip0_395_612">
<rect width="424" height="19" fill="white"/>
</clipPath>
</defs>
</svg>
