<svg width="307" height="20" viewBox="0 0 307 20" fill="none" xmlns="http://www.w3.org/2000/svg">
<path d="M39.8694 5.97416C39.7079 5.81093 39.4174 5.54977 39.1914 5.54977C38.9332 5.54977 38.578 5.87623 38.4166 6.03946C38.2552 6.20269 38.1584 6.43121 38.1584 6.69238C38.1584 6.95355 38.2229 7.28001 38.3843 7.44324C38.6426 7.7044 39.4497 8.03086 39.9339 7.57382C40.0953 7.41059 40.1599 6.85561 40.1599 6.62708C40.1276 6.36592 40.0308 6.13739 39.8694 5.97416ZM38.8363 3.32983C39.7079 3.32983 40.7087 3.85217 41.2898 4.4398C41.8709 5.02743 42.3228 5.84358 42.3228 6.72502C42.3228 7.60647 41.8709 8.42262 41.2898 9.01025C40.7087 9.59788 39.9016 9.95698 39.03 9.95698C38.2552 9.95698 37.5773 9.72846 36.9316 9.04289C36.3505 8.38997 35.6726 7.63911 35.834 6.75767C35.834 5.87623 36.1891 5.06007 36.7702 4.47245C37.3513 3.85217 37.9647 3.32983 38.8363 3.32983Z" fill="#50966E"/>
<path d="M2.87315 18.5754C2.64717 18.249 2.64717 17.8899 2.80858 17.4981C2.97 17.1064 3.29283 16.7472 3.74478 16.4534C4.42272 15.9637 5.29436 15.4088 6.35969 14.7885L7.19904 14.2661L8.91003 13.1562C12.2352 10.9689 12.0092 10.2833 15.2697 7.99811C15.3343 7.96546 15.4634 7.86752 15.6249 7.76958C15.8186 7.639 16.1091 7.44312 16.4965 7.18195C16.9162 6.88814 17.4327 6.56168 18.0461 6.13728C19.1114 5.38642 19.8216 4.76615 20.3059 4.3091C21.694 3.00326 23.0822 4.37439 21.3712 5.9414C20.4027 6.82285 19.4019 7.57371 18.498 8.19398L16.4642 9.56512C13.3328 11.6871 13.5588 11.9809 10.4919 14.1682C9.7171 14.7232 8.81318 15.4414 7.78013 16.2902C6.7148 17.139 5.81088 17.8572 5.06838 18.4122C4.03533 19.1304 3.32511 19.1957 2.87315 18.5754Z" fill="#50966E"/>
<path d="M0.193217 14.8215C-0.0327622 14.495 -0.0327622 14.1359 0.128652 13.7441C0.322349 13.3524 0.612894 12.9933 1.06485 12.6995C1.74279 12.2098 2.61443 11.6548 3.67976 11.0345L4.51911 10.5122L6.2301 9.40221C9.55523 7.21492 9.32925 6.52935 12.5575 4.21148C12.6221 4.17884 12.7512 4.0809 12.9126 3.98296C13.1063 3.85238 13.3646 3.6565 13.752 3.42798C14.204 3.13416 14.7205 2.77506 15.3338 2.35066C16.3992 1.5998 17.1094 0.979525 17.5936 0.522481C18.9818 -0.783361 20.37 0.587773 18.659 2.15478C17.6905 3.03623 16.6897 3.78709 15.7858 4.40736L13.752 5.7785C10.6206 7.93314 10.8788 8.22695 7.77968 10.3816C7.00489 10.9692 6.10097 11.6548 5.06792 12.5036C4.03487 13.385 3.13095 14.1032 2.35616 14.6256C1.32312 15.3764 0.612894 15.4091 0.193217 14.8215Z" fill="#50966E"/>
<path d="M75.2835 18.5755C75.5095 18.249 75.5095 17.8899 75.3481 17.4982C75.1544 17.1064 74.8638 16.7473 74.4118 16.4535C73.7339 15.9638 72.8623 15.4088 71.7969 14.7886L70.9253 14.2662L69.2143 13.1562C65.8892 10.969 66.1152 10.2834 62.8546 7.99817C62.79 7.96553 62.6609 7.86759 62.4995 7.76965C62.3058 7.63907 62.0475 7.44319 61.6601 7.21467C61.2405 6.92085 60.7239 6.59439 60.1106 6.17C59.0452 5.41914 58.335 4.79886 57.8508 4.34182C56.4626 3.03597 55.0745 4.40711 56.7854 5.97412C57.7539 6.85556 58.7547 7.60642 59.6586 8.2267L61.6924 9.59783C64.8239 11.7525 64.5656 12.0136 67.6647 14.2009C68.4395 14.7559 69.3757 15.4741 70.3765 16.3229C71.4095 17.2044 72.3135 17.8899 73.0883 18.4449C74.1213 19.1305 74.8638 19.1958 75.2835 18.5755Z" fill="#50966E"/>
<path d="M77.9953 14.8215C78.2213 14.4951 78.2213 14.1359 78.0599 13.7442C77.8985 13.3524 77.5757 12.9933 77.1237 12.6995C76.4458 12.2098 75.5741 11.6549 74.5088 11.0346L73.6694 10.5122L71.9585 9.40227C68.6333 7.21499 68.8593 6.52942 65.5987 4.21155C65.5342 4.17891 65.405 4.08097 65.2436 3.98303C65.0499 3.85245 64.7917 3.65657 64.4043 3.42805C63.9846 3.13423 63.4681 2.80777 62.8547 2.38337C61.7894 1.63251 61.0792 1.01224 60.5949 0.555195C59.2068 -0.750646 57.8186 0.620488 59.5296 2.1875C60.4981 3.06894 61.4988 3.8198 62.4027 4.44007L64.4366 5.81121C67.568 7.96585 67.3097 8.22702 70.4089 10.4143C71.1837 10.9693 72.1199 11.6875 73.1206 12.5363C74.1537 13.4177 75.0576 14.1033 75.8324 14.6583C76.8332 15.3765 77.5757 15.4091 77.9953 14.8215Z" fill="#50966E"/>
<path d="M39.9014 18.5754C40.1274 18.249 40.1274 17.8899 39.966 17.4981C39.8046 17.1064 39.4817 16.7472 39.0298 16.4534C38.3518 15.9637 37.4802 15.4088 36.4149 14.7885L35.5432 14.2661L33.8322 13.1562C30.5394 10.9689 30.7331 10.2833 27.5048 7.99811C27.4402 7.93281 27.3111 7.86752 27.1174 7.73694C26.956 7.639 26.6655 7.44312 26.2781 7.18195C25.8584 6.88814 25.3419 6.56168 24.7285 6.13728C23.6632 5.38642 22.9529 4.76615 22.4687 4.3091C21.0805 3.00326 19.6924 4.37439 21.4034 5.9414C22.3718 6.82285 23.3726 7.57371 24.2765 8.19398L26.3103 9.56512C29.4418 11.6871 29.2158 11.9809 32.2827 14.1682C33.0575 14.7232 33.9937 15.4414 34.9944 16.2902C36.0275 17.1716 36.9314 17.8572 37.7062 18.4122C38.7392 19.1304 39.4494 19.1957 39.9014 18.5754Z" fill="#50966E"/>
<path d="M38.2875 18.5755C38.0615 18.249 38.0615 17.8899 38.2229 17.4982C38.3843 17.1064 38.7071 16.7473 39.1591 16.4535C39.837 15.9638 40.7087 15.4088 41.774 14.7886L42.6134 14.2662L44.3243 13.1562C47.6495 10.969 47.4235 10.2834 50.6841 7.99817C50.7486 7.96553 50.8777 7.86759 51.0392 7.76965C51.2329 7.63907 51.4911 7.44319 51.8785 7.21467C52.2982 6.92085 52.8147 6.59439 53.4281 6.17C54.4934 5.41914 55.2036 4.79886 55.6879 4.34182C57.076 3.03597 58.4642 4.40711 56.7532 5.97412C55.7847 6.85556 54.784 7.60642 53.88 8.2267L51.8462 9.59783C48.7148 11.7525 48.9731 12.0136 45.8739 14.2009C45.0991 14.7559 44.1629 15.4741 43.1622 16.3229C42.1291 17.2044 41.2252 17.8899 40.4504 18.4449C39.4174 19.1305 38.7071 19.1958 38.2875 18.5755Z" fill="#50966E"/>
<path d="M151.245 18.5755C151.471 18.249 151.471 17.8899 151.309 17.4982C151.116 17.1064 150.825 16.7473 150.373 16.4535C149.695 15.9638 148.824 15.4088 147.758 14.7886L146.919 14.2662L145.208 13.1562C141.883 10.969 142.109 10.2834 138.848 7.99817C138.784 7.96553 138.655 7.86759 138.493 7.76965C138.299 7.63907 138.041 7.44319 137.654 7.21467C137.234 6.92085 136.718 6.59439 136.104 6.17C135.039 5.41914 134.329 4.79886 133.844 4.34182C132.456 3.03597 131.068 4.40711 132.779 5.97412C133.748 6.85556 134.748 7.60642 135.652 8.2267L137.686 9.59783C140.817 11.7525 140.559 12.0136 143.658 14.2009C144.433 14.7559 145.369 15.4741 146.37 16.3229C147.403 17.2044 148.307 17.8899 149.082 18.4449C150.115 19.1305 150.825 19.1958 151.245 18.5755Z" fill="#50966E"/>
<path d="M153.957 14.8215C154.183 14.495 154.183 14.1359 154.021 13.7441C153.828 13.3524 153.537 12.9933 153.085 12.6995C152.407 12.2098 151.536 11.6548 150.47 11.0345L149.631 10.5122L147.92 9.40221C144.595 7.21492 144.821 6.52935 141.56 4.21148C141.496 4.17884 141.366 4.0809 141.205 3.98296C141.011 3.85238 140.753 3.6565 140.366 3.42798C139.946 3.13416 139.397 2.77506 138.816 2.35066C137.751 1.5998 137.041 0.979525 136.556 0.522481C135.168 -0.783361 133.78 0.587773 135.491 2.15478C136.459 3.03623 137.46 3.78709 138.364 4.40736L140.398 5.7785C143.529 7.93314 143.271 8.1943 146.37 10.3816C147.145 10.9366 148.081 11.6548 149.082 12.5036C150.115 13.385 151.019 14.0706 151.794 14.6256C152.795 15.3764 153.537 15.4091 153.957 14.8215Z" fill="#50966E"/>
<path d="M79.0929 18.5755C78.8669 18.249 78.8669 17.8899 79.0283 17.4982C79.1897 17.1064 79.5126 16.7473 79.9645 16.4535C80.6425 15.9638 81.5141 15.4088 82.5794 14.7886L83.4511 14.2662L85.162 13.1562C88.4872 10.969 88.2612 10.2834 91.5217 7.99817C91.5863 7.96553 91.7154 7.86759 91.8769 7.76965C92.0705 7.63907 92.3288 7.44319 92.7162 7.21467C93.1359 6.92085 93.6524 6.59439 94.2658 6.17C95.3311 5.41914 96.0413 4.79886 96.5256 4.34182C97.9137 3.03597 99.3019 4.40711 97.5909 5.97412C96.6224 6.85556 95.6217 7.60642 94.7177 8.2267L92.6516 9.56518C89.5202 11.7198 89.7785 11.981 86.6793 14.1683C85.9045 14.7233 84.9683 15.4415 83.9676 16.2903C82.9345 17.1717 82.0306 17.8573 81.2558 18.4123C80.2228 19.1305 79.5126 19.1958 79.0929 18.5755Z" fill="#50966E"/>
<path d="M76.3812 14.8215C76.1552 14.4951 76.1552 14.1359 76.3166 13.7442C76.5103 13.3524 76.8009 12.9933 77.2528 12.6995C77.9308 12.2098 78.8024 11.6549 79.8678 11.0346L80.7071 10.5122L82.4181 9.40227C85.7432 7.21499 85.5172 6.52942 88.7778 4.21155C88.8424 4.17891 88.9715 4.08097 89.1329 3.98303C89.3266 3.85245 89.5849 3.65657 89.9723 3.42805C90.392 3.13423 90.9085 2.80777 91.5219 2.38337C92.5872 1.63251 93.2974 1.01224 93.7816 0.555195C95.1698 -0.750646 96.558 0.620488 94.847 2.1875C93.8785 3.06894 92.8777 3.8198 91.9738 4.44007L89.94 5.81121C86.8086 7.96585 87.0668 8.22702 83.9677 10.4143C83.1929 10.9693 82.2567 11.6875 81.2559 12.5363C80.2229 13.4177 79.3189 14.1033 78.5442 14.6583C77.5111 15.3765 76.8009 15.4091 76.3812 14.8215Z" fill="#50966E"/>
<path d="M114.249 18.5755C114.023 18.249 114.023 17.8899 114.184 17.4982C114.346 17.1064 114.669 16.7473 115.121 16.4535C115.798 15.9638 116.67 15.4088 117.735 14.7886L118.607 14.2662L120.318 13.1562C123.643 10.969 123.417 10.2834 126.678 7.99817C126.742 7.96553 126.871 7.86759 127.033 7.76965C127.227 7.63907 127.485 7.44319 127.872 7.21467C128.292 6.92085 128.808 6.59439 129.422 6.17C130.487 5.41914 131.197 4.79886 131.682 4.34182C133.07 3.03597 134.458 4.40711 132.747 5.97412C131.778 6.85556 130.778 7.60642 129.874 8.2267L127.84 9.59783C124.708 11.7525 124.967 12.0136 121.868 14.2009C121.093 14.7559 120.157 15.4741 119.156 16.3229C118.123 17.2044 117.219 17.8899 116.444 18.4449C115.411 19.1305 114.669 19.1958 114.249 18.5755Z" fill="#50966E"/>
<path d="M116.089 18.5754C116.315 18.249 116.315 17.8899 116.153 17.4981C115.992 17.1064 115.669 16.7472 115.217 16.4534C114.539 15.9637 113.668 15.4088 112.602 14.7885L111.763 14.2661L110.052 13.1562C106.727 10.9689 106.953 10.2833 103.692 7.99811C103.628 7.93281 103.499 7.86752 103.305 7.73694C103.111 7.60635 102.853 7.41048 102.466 7.18195C102.046 6.88814 101.529 6.56168 100.916 6.13728C99.8507 5.38642 99.1404 4.76615 98.6562 4.3091C97.268 3.00326 95.8799 4.37439 97.5909 5.9414C98.5593 6.82285 99.5601 7.57371 100.464 8.19398L102.498 9.56512C105.629 11.7198 105.371 11.9809 108.47 14.1682C109.245 14.7232 110.181 15.4414 111.182 16.2902C112.215 17.1716 113.119 17.8572 113.894 18.4122C114.927 19.1304 115.669 19.1957 116.089 18.5754Z" fill="#50966E"/>
<path d="M303.781 18.5754C304.007 18.249 304.007 17.8899 303.846 17.4981C303.652 17.1064 303.361 16.7472 302.909 16.4534C302.231 15.9637 301.36 15.4088 300.294 14.7885L299.455 14.2661L297.744 13.1562C294.419 10.9689 294.645 10.2833 291.384 7.99811C291.32 7.96546 291.191 7.86752 291.029 7.76958C290.836 7.639 290.545 7.44312 290.158 7.18195C289.738 6.88814 289.222 6.56168 288.608 6.13728C287.543 5.38642 286.833 4.76615 286.348 4.3091C284.96 3.00326 283.572 4.37439 285.283 5.9414C286.251 6.82285 287.252 7.57371 288.156 8.19398L290.19 9.56512C293.321 11.7198 293.063 11.9809 296.162 14.1682C296.937 14.7232 297.873 15.4414 298.874 16.2902C299.907 17.1716 300.811 17.8572 301.586 18.4122C302.619 19.1304 303.329 19.1957 303.781 18.5754Z" fill="#50966E"/>
<path d="M306.461 14.8215C306.687 14.4951 306.687 14.1359 306.525 13.7442C306.364 13.3524 306.041 12.9933 305.589 12.6995C304.911 12.2098 304.04 11.6549 302.974 11.0346L302.135 10.5122L300.424 9.40227C297.099 7.21499 297.325 6.52942 294.097 4.21155C294.032 4.17891 293.903 4.08097 293.741 3.98303C293.548 3.85245 293.289 3.65657 292.902 3.42805C292.482 3.13423 291.966 2.80777 291.353 2.38337C290.287 1.63251 289.577 1.01224 289.093 0.555195C287.705 -0.750646 286.316 0.620488 288.027 2.1875C288.996 3.06894 289.997 3.8198 290.901 4.44007L292.934 5.81121C296.066 7.96585 295.808 8.22702 298.907 10.4143C299.681 10.9693 300.618 11.6875 301.618 12.5363C302.651 13.4177 303.588 14.1033 304.33 14.6583C305.331 15.3765 306.041 15.4091 306.461 14.8215Z" fill="#50966E"/>
<path d="M266.753 18.5755C266.527 18.249 266.527 17.8899 266.688 17.4982C266.85 17.1064 267.172 16.7473 267.624 16.4535C268.302 15.9638 269.174 15.4088 270.239 14.7886L271.111 14.2662L272.822 13.1562C276.147 10.969 275.921 10.2834 279.182 7.99817C279.246 7.96553 279.375 7.86759 279.537 7.76965C279.73 7.63907 279.989 7.44319 280.376 7.21467C280.796 6.92085 281.312 6.59439 281.926 6.17C282.991 5.41914 283.701 4.79886 284.185 4.34182C285.574 3.03597 286.962 4.40711 285.251 5.97412C284.282 6.85556 283.282 7.60642 282.378 8.2267L280.344 9.59783C277.212 11.7525 277.471 12.0136 274.372 14.2009C273.597 14.7559 272.661 15.4741 271.66 16.3229C270.627 17.2044 269.723 17.8899 268.948 18.4449C267.915 19.1305 267.205 19.1958 266.753 18.5755Z" fill="#50966E"/>
<path d="M231.339 18.5755C231.113 18.249 231.113 17.8899 231.274 17.4982C231.468 17.1064 231.758 16.7473 232.21 16.4535C232.888 15.9638 233.76 15.4088 234.825 14.7886L235.665 14.2662L237.376 13.1562C240.701 10.969 240.475 10.2834 243.735 7.99817C243.8 7.96553 243.929 7.86759 244.09 7.76965C244.284 7.63907 244.542 7.44319 244.93 7.21467C245.349 6.92085 245.866 6.59439 246.479 6.17C247.545 5.41914 248.255 4.79886 248.739 4.34182C250.127 3.03597 251.515 4.40711 249.804 5.97412C248.836 6.85556 247.835 7.60642 246.931 8.2267L244.897 9.59783C241.766 11.7525 242.024 12.0136 238.925 14.2009C238.15 14.7559 237.214 15.4741 236.213 16.3229C235.18 17.2044 234.276 17.8899 233.502 18.4449C232.501 19.1305 231.758 19.1958 231.339 18.5755Z" fill="#50966E"/>
<path d="M228.627 14.8216C228.401 14.4951 228.401 14.136 228.562 13.7443C228.723 13.3525 229.046 12.9934 229.498 12.6996C230.176 12.2099 231.048 11.6549 232.113 11.0346L232.985 10.5123L234.696 9.40234C238.021 7.21506 237.795 6.52949 241.055 4.24427C241.12 4.21162 241.249 4.11368 241.411 4.01574C241.604 3.88516 241.862 3.68928 242.25 3.46076C242.67 3.16695 243.186 2.84049 243.799 2.41609C244.865 1.66523 245.575 1.04495 246.059 0.58791C247.447 -0.717932 248.836 0.653202 247.125 2.22021C246.156 3.10166 245.155 3.85251 244.251 4.47279L242.218 5.84392C239.086 7.99856 239.344 8.25973 236.245 10.447C235.471 11.002 234.534 11.7202 233.534 12.569C232.5 13.4505 231.597 14.136 230.822 14.691C229.789 15.3766 229.046 15.4092 228.627 14.8216Z" fill="#50966E"/>
<path d="M268.335 18.5755C268.561 18.249 268.561 17.8899 268.399 17.4982C268.238 17.1064 267.915 16.7473 267.463 16.4535C266.785 15.9638 265.913 15.4088 264.848 14.7886L264.009 14.2662L262.298 13.1562C258.973 10.969 259.199 10.2834 255.938 7.99817C255.874 7.96553 255.744 7.86759 255.583 7.76965C255.389 7.63907 255.131 7.44319 254.744 7.21467C254.324 6.92085 253.807 6.59439 253.194 6.17C252.129 5.41914 251.419 4.79886 250.934 4.34182C249.546 3.03597 248.158 4.40711 249.869 5.97412C250.837 6.85556 251.838 7.60642 252.742 8.2267L254.776 9.59783C257.907 11.7525 257.649 12.0136 260.748 14.2009C261.523 14.7559 262.459 15.4741 263.46 16.3229C264.493 17.2044 265.429 17.8899 266.172 18.4449C267.205 19.1305 267.915 19.1958 268.335 18.5755Z" fill="#50966E"/>
<path d="M155.022 18.5755C154.796 18.249 154.796 17.8899 154.958 17.4982C155.151 17.1064 155.442 16.7473 155.894 16.4535C156.572 15.9638 157.443 15.4088 158.509 14.7886L159.348 14.2662L161.059 13.1562C164.384 10.969 164.158 10.2834 167.419 7.99817C167.483 7.96553 167.612 7.86759 167.774 7.76965C167.967 7.63907 168.226 7.44319 168.613 7.21467C169.033 6.92085 169.549 6.59439 170.163 6.17C171.228 5.41914 171.938 4.79886 172.423 4.34182C173.811 3.03597 175.199 4.40711 173.488 5.97412C172.519 6.85556 171.519 7.60642 170.615 8.2267L168.581 9.59783C165.449 11.7525 165.708 12.0136 162.609 14.2009C161.834 14.7559 160.898 15.4741 159.897 16.3229C158.864 17.2044 157.96 17.8899 157.185 18.4449C156.184 19.1305 155.442 19.1958 155.022 18.5755Z" fill="#50966E"/>
<path d="M152.31 14.8216C152.084 14.4951 152.084 14.136 152.246 13.7443C152.407 13.3525 152.73 12.9934 153.182 12.6996C153.86 12.2099 154.731 11.6549 155.797 11.0346L156.636 10.5123L158.347 9.40234C161.672 7.21506 161.446 6.52949 164.707 4.24427C164.771 4.21162 164.9 4.11368 165.062 4.01574C165.256 3.88516 165.514 3.68928 165.901 3.46076C166.321 3.16695 166.837 2.84049 167.451 2.41609C168.516 1.66523 169.226 1.04495 169.711 0.58791C171.099 -0.717932 172.487 0.653202 170.776 2.22021C169.807 3.10166 168.807 3.85251 167.903 4.47279L165.869 5.84392C162.738 7.99856 162.996 8.25973 159.897 10.447C159.122 11.002 158.186 11.7202 157.185 12.569C156.152 13.4505 155.248 14.136 154.473 14.691C153.472 15.3766 152.762 15.4092 152.31 14.8216Z" fill="#50966E"/>
<path d="M192.018 18.5755C192.244 18.249 192.244 17.8899 192.083 17.4982C191.889 17.1064 191.598 16.7473 191.146 16.4535C190.468 15.9638 189.597 15.4088 188.564 14.7886L187.692 14.2662L185.981 13.1562C182.656 10.969 182.882 10.2834 179.621 7.99817C179.557 7.96553 179.428 7.86759 179.266 7.76965C179.073 7.63907 178.814 7.44319 178.427 7.21467C178.007 6.92085 177.491 6.59439 176.877 6.17C175.812 5.41914 175.102 4.79886 174.618 4.34182C173.229 3.03597 171.841 4.40711 173.552 5.97412C174.521 6.85556 175.522 7.60642 176.425 8.2267L178.459 9.59783C181.591 11.7525 181.332 12.0136 184.432 14.2009C185.206 14.7559 186.143 15.4741 187.143 16.3229C188.176 17.2044 189.08 17.8899 189.855 18.4449C190.888 19.1305 191.598 19.1958 192.018 18.5755Z" fill="#50966E"/>
<path d="M227.529 18.5755C227.755 18.249 227.755 17.8899 227.594 17.4982C227.432 17.1064 227.109 16.7473 226.658 16.4535C225.98 15.9638 225.108 15.4088 224.075 14.7886L223.236 14.2662L221.525 13.1562C218.199 10.969 218.425 10.2834 215.165 7.99817C215.1 7.96553 214.971 7.86759 214.81 7.76965C214.616 7.63907 214.358 7.44319 213.97 7.21467C213.551 6.92085 213.034 6.59439 212.421 6.17C211.356 5.41914 210.645 4.79886 210.161 4.34182C208.773 3.03597 207.385 4.40711 209.096 5.97412C210.064 6.85556 211.065 7.60642 211.969 8.2267L214.003 9.59783C217.134 11.7525 216.876 12.0136 219.975 14.2009C220.75 14.7559 221.686 15.4741 222.687 16.3229C223.72 17.2044 224.624 17.8899 225.399 18.4449C226.399 19.1305 227.11 19.1958 227.529 18.5755Z" fill="#50966E"/>
<path d="M230.241 14.8215C230.467 14.4951 230.467 14.1359 230.306 13.7442C230.144 13.3524 229.822 12.9933 229.37 12.6995C228.692 12.2098 227.82 11.6549 226.755 11.0346L225.915 10.5122L224.204 9.40227C220.879 7.21499 221.105 6.52942 217.845 4.21155C217.78 4.17891 217.651 4.08097 217.489 3.98303C217.296 3.85245 217.038 3.65657 216.65 3.42805C216.23 3.13423 215.714 2.80777 215.101 2.38337C214.035 1.63251 213.325 1.01224 212.841 0.555195C211.453 -0.750646 210.064 0.620488 211.775 2.1875C212.744 3.06894 213.745 3.8198 214.649 4.44007L216.682 5.81121C219.814 7.96585 219.556 8.22702 222.655 10.4143C223.43 10.9693 224.366 11.6875 225.366 12.5363C226.4 13.4177 227.303 14.1033 228.078 14.6583C229.111 15.3765 229.822 15.4091 230.241 14.8215Z" fill="#50966E"/>
<path d="M190.533 18.5755C190.307 18.249 190.307 17.8899 190.468 17.4982C190.63 17.1064 190.953 16.7473 191.405 16.4535C192.083 15.9638 192.954 15.4088 194.02 14.7886L194.891 14.2662L196.602 13.1562C199.927 10.969 199.701 10.2834 202.962 7.99817C203.027 7.96553 203.156 7.86759 203.317 7.76965C203.511 7.63907 203.769 7.44319 204.156 7.21467C204.576 6.92085 205.093 6.59439 205.706 6.17C206.771 5.41914 207.482 4.79886 207.966 4.34182C209.354 3.03597 210.742 4.40711 209.031 5.97412C208.063 6.85556 207.062 7.60642 206.158 8.2267L204.124 9.59783C200.993 11.7525 201.251 12.0136 198.152 14.2009C197.377 14.7559 196.441 15.4741 195.44 16.3229C194.407 17.2044 193.503 17.8899 192.728 18.4449C191.695 19.1305 190.953 19.1958 190.533 18.5755Z" fill="#50966E"/>
<path d="M115.96 5.97416C115.798 5.81093 115.508 5.54977 115.249 5.54977C114.991 5.54977 114.636 5.87623 114.475 6.03946C114.313 6.20269 114.216 6.43121 114.216 6.69238C114.216 6.95355 114.281 7.28001 114.442 7.44324C114.701 7.7044 115.508 8.03086 115.992 7.57382C116.153 7.41059 116.218 6.85561 116.218 6.59444C116.218 6.36592 116.121 6.13739 115.96 5.97416ZM114.927 3.32983C115.798 3.32983 116.799 3.85217 117.38 4.4398C117.961 5.02743 118.413 5.84358 118.413 6.72502C118.413 7.60647 117.961 8.42262 117.38 9.01025C116.799 9.59788 115.992 9.95698 115.12 9.95698C114.346 9.95698 113.668 9.72846 113.022 9.04289C112.441 8.38997 111.763 7.63911 111.924 6.75767C111.924 5.87623 112.279 5.06007 112.861 4.47245C113.442 3.85217 114.023 3.32983 114.927 3.32983Z" fill="#50966E"/>
<path d="M192.244 5.97416C192.083 5.81093 191.824 5.54977 191.566 5.54977C191.308 5.54977 190.953 5.87623 190.791 6.03946C190.63 6.20269 190.533 6.43121 190.533 6.69238C190.533 6.95355 190.598 7.28001 190.759 7.44324C191.017 7.7044 191.824 8.03086 192.309 7.57382C192.47 7.41059 192.535 6.85561 192.535 6.62708C192.502 6.36592 192.406 6.13739 192.244 5.97416ZM191.211 3.32983C192.083 3.32983 193.083 3.85217 193.665 4.4398C194.246 5.02743 194.698 5.84358 194.698 6.72502C194.698 7.60647 194.246 8.42262 193.665 9.01025C193.083 9.59788 192.276 9.95698 191.405 9.95698C190.63 9.95698 189.952 9.72846 189.306 9.04289C188.725 8.38997 188.047 7.63911 188.209 6.75767C188.209 5.87623 188.564 5.06007 189.145 4.47245C189.758 3.85217 190.339 3.32983 191.211 3.32983Z" fill="#50966E"/>
<path d="M268.561 5.97416C268.399 5.81093 268.109 5.54977 267.883 5.54977C267.624 5.54977 267.269 5.87623 267.108 6.03946C266.946 6.20269 266.85 6.43121 266.85 6.69238C266.85 6.95355 266.914 7.28001 267.076 7.44324C267.334 7.7044 268.141 8.03086 268.625 7.57382C268.786 7.41059 268.851 6.85561 268.851 6.62708C268.819 6.36592 268.722 6.13739 268.561 5.97416ZM267.527 3.32983C268.399 3.32983 269.4 3.85217 269.981 4.4398C270.562 5.02743 271.014 5.84358 271.014 6.72502C271.014 7.60647 270.562 8.42262 269.981 9.01025C269.4 9.59788 268.593 9.95698 267.721 9.95698C266.946 9.95698 266.268 9.72846 265.623 9.04289C265.042 8.38997 264.364 7.63911 264.525 6.75767C264.525 5.87623 264.88 5.06007 265.461 4.47245C266.042 3.85217 266.624 3.32983 267.527 3.32983Z" fill="#50966E"/>
</svg>
