<svg width="592" height="24" viewBox="0 0 592 24" fill="none" xmlns="http://www.w3.org/2000/svg">
<path d="M19.8691 7.97343C19.7077 7.8102 19.4172 7.54903 19.1912 7.54903C18.9329 7.54903 18.5778 7.87549 18.4164 8.03872C18.255 8.20195 18.1581 8.43048 18.1581 8.69164C18.1581 8.95281 18.2227 9.27927 18.3841 9.4425C18.6424 9.70367 19.4494 10.0301 19.9337 9.57309C20.0951 9.40986 20.1597 8.85487 20.1597 8.62635C20.1274 8.36518 20.0305 8.13666 19.8691 7.97343ZM18.8361 5.3291C19.7077 5.3291 20.7085 5.85144 21.2896 6.43907C21.8706 7.0267 22.3226 7.84285 22.3226 8.72429C22.3226 9.60573 21.8706 10.4219 21.2896 11.0095C20.7085 11.5971 19.9014 11.9562 19.0298 11.9562C18.255 11.9562 17.577 11.7277 16.9314 11.0422C16.3503 10.3892 15.6723 9.63838 15.8338 8.75694C15.8338 7.87549 16.1889 7.05934 16.77 6.47171C17.3511 5.85144 17.9644 5.3291 18.8361 5.3291Z" fill="#50966E"/>
<path d="M401.259 7.97343C401.097 7.8102 400.807 7.54903 400.581 7.54903C400.323 7.54903 399.967 7.87549 399.806 8.03872C399.645 8.20195 399.548 8.43048 399.548 8.69164C399.548 8.95281 399.612 9.27927 399.774 9.4425C400.032 9.70367 400.839 10.0301 401.323 9.57309C401.485 9.40986 401.549 8.85487 401.549 8.62635C401.517 8.36518 401.42 8.13666 401.259 7.97343ZM400.226 5.3291C401.097 5.3291 402.098 5.85144 402.679 6.43907C403.26 7.0267 403.712 7.84285 403.712 8.72429C403.712 9.60573 403.26 10.4219 402.679 11.0095C402.098 11.5971 401.291 11.9562 400.419 11.9562C399.645 11.9562 398.967 11.7277 398.321 11.0422C397.74 10.3892 397.062 9.63838 397.223 8.75694C397.223 7.87549 397.579 7.05934 398.16 6.47171C398.741 5.85144 399.354 5.3291 400.226 5.3291Z" fill="#50966E"/>
<path d="M55.284 20.5748C55.51 20.2483 55.51 19.8892 55.3485 19.4974C55.1548 19.1057 54.8643 18.7466 54.4123 18.4528C53.7344 17.9631 52.8628 17.4081 51.7974 16.7878L50.9258 16.2655L49.2148 15.1555C45.8897 12.9682 46.1157 12.2827 42.8551 9.99744C42.7905 9.9648 42.6614 9.86686 42.5 9.76892C42.3063 9.63834 42.048 9.44246 41.6606 9.21394C41.241 8.92012 40.7244 8.59366 40.1111 8.16926C39.0457 7.4184 38.3355 6.79813 37.8513 6.34108C36.4631 5.03524 35.0749 6.40638 36.7859 7.97339C37.7544 8.85483 38.7552 9.60569 39.6591 10.226L41.6929 11.5971C44.8243 13.7517 44.5661 14.0129 47.6652 16.2002C48.44 16.7552 49.3762 17.4734 50.377 18.3222C51.41 19.2036 52.314 19.8892 53.0887 20.4442C54.1218 21.1297 54.8643 21.195 55.284 20.5748Z" fill="#50966E"/>
<path d="M436.674 20.5748C436.9 20.2483 436.9 19.8892 436.738 19.4974C436.544 19.1057 436.254 18.7466 435.802 18.4528C435.124 17.9631 434.252 17.4081 433.187 16.7878L432.315 16.2655L430.604 15.1555C427.279 12.9682 427.505 12.2827 424.245 9.99744C424.18 9.9648 424.051 9.86686 423.89 9.76892C423.696 9.63834 423.438 9.44246 423.05 9.21394C422.631 8.92012 422.114 8.59366 421.501 8.16926C420.435 7.4184 419.725 6.79813 419.241 6.34108C417.853 5.03524 416.465 6.40638 418.176 7.97339C419.144 8.85483 420.145 9.60569 421.049 10.226L423.083 11.5971C426.214 13.7517 425.956 14.0129 429.055 16.2002C429.83 16.7552 430.766 17.4734 431.767 18.3222C432.8 19.2036 433.704 19.8892 434.478 20.4442C435.511 21.1297 436.254 21.195 436.674 20.5748Z" fill="#50966E"/>
<path d="M57.9948 16.8208C58.2208 16.4943 58.2208 16.1352 58.0594 15.7435C57.898 15.3517 57.5752 14.9926 57.1232 14.6988C56.4453 14.2091 55.5736 13.6541 54.5083 13.0338L53.669 12.5115L51.958 11.4015C48.6328 9.21426 48.8588 8.52869 45.5983 6.21082C45.5337 6.17817 45.4046 6.08024 45.2431 5.9823C45.0494 5.85171 44.7912 5.65584 44.4038 5.42731C43.9841 5.1335 43.4676 4.80704 42.8542 4.38264C41.7889 3.63178 41.0787 3.01151 40.5944 2.55446C39.2063 1.24862 37.8181 2.61976 39.5291 4.18677C40.4976 5.06821 41.4983 5.81907 42.4023 6.43934L44.4361 7.81048C47.5675 9.96511 47.3092 10.2263 50.4084 12.4136C51.1832 12.9686 52.1194 13.6868 53.1201 14.5356C54.1532 15.417 55.0571 16.1026 55.8319 16.6576C56.8327 17.3758 57.5752 17.4084 57.9948 16.8208Z" fill="#50966E"/>
<path d="M439.384 16.8208C439.61 16.4943 439.61 16.1352 439.449 15.7435C439.288 15.3517 438.965 14.9926 438.513 14.6988C437.835 14.2091 436.963 13.6541 435.898 13.0338L435.059 12.5115L433.348 11.4015C430.022 9.21426 430.248 8.52869 426.988 6.21082C426.923 6.17817 426.794 6.08024 426.633 5.9823C426.439 5.85171 426.181 5.65584 425.793 5.42731C425.374 5.1335 424.857 4.80704 424.244 4.38264C423.179 3.63178 422.468 3.01151 421.984 2.55446C420.596 1.24862 419.208 2.61976 420.919 4.18677C421.887 5.06821 422.888 5.81907 423.792 6.43934L425.826 7.81048C428.957 9.96511 428.699 10.2263 431.798 12.4136C432.573 12.9686 433.509 13.6868 434.51 14.5356C435.543 15.417 436.447 16.1026 437.222 16.6576C438.222 17.3758 438.965 17.4084 439.384 16.8208Z" fill="#50966E"/>
<path d="M19.9012 20.5747C20.1271 20.2482 20.1271 19.8891 19.9657 19.4974C19.8043 19.1056 19.4815 18.7465 19.0295 18.4527C18.3516 17.963 17.48 17.408 16.4146 16.7878L15.543 16.2654L13.832 15.1554C10.5391 12.9682 10.7328 12.2826 7.50457 9.99737C7.44 9.93208 7.31087 9.86679 7.11717 9.7362C6.95576 9.63827 6.66521 9.44239 6.27782 9.18122C5.85814 8.88741 5.34162 8.56095 4.72824 8.13655C3.66291 7.38569 2.95269 6.76541 2.46845 6.30837C1.08029 5.00253 -0.307873 6.37366 1.40312 7.94067C2.3716 8.82212 3.37237 9.57297 4.27628 10.1932L6.3101 11.5644C9.44153 13.6864 9.21555 13.9802 12.2824 16.1675C13.0572 16.7225 13.9934 17.4407 14.9942 18.2895C16.0272 19.1709 16.9311 19.8565 17.7059 20.4115C18.739 21.1297 19.4492 21.195 19.9012 20.5747Z" fill="#50966E"/>
<path d="M401.291 20.5747C401.517 20.2482 401.517 19.8891 401.355 19.4974C401.194 19.1056 400.871 18.7465 400.419 18.4527C399.741 17.963 398.87 17.408 397.804 16.7878L396.933 16.2654L395.222 15.1554C391.929 12.9682 392.122 12.2826 388.894 9.99737C388.83 9.93208 388.701 9.86679 388.507 9.7362C388.345 9.63827 388.055 9.44239 387.667 9.18122C387.248 8.88741 386.731 8.56095 386.118 8.13655C385.053 7.38569 384.342 6.76541 383.858 6.30837C382.47 5.00253 381.082 6.37366 382.793 7.94067C383.761 8.82212 384.762 9.57297 385.666 10.1932L387.7 11.5644C390.831 13.6864 390.605 13.9802 393.672 16.1675C394.447 16.7225 395.383 17.4407 396.384 18.2895C397.417 19.1709 398.321 19.8565 399.096 20.4115C400.129 21.1297 400.839 21.195 401.291 20.5747Z" fill="#50966E"/>
<path d="M18.287 20.5748C18.061 20.2483 18.061 19.8892 18.2224 19.4974C18.3838 19.1057 18.7066 18.7466 19.1586 18.4528C19.8365 17.9631 20.7082 17.4081 21.7735 16.7878L22.6129 16.2655L24.3239 15.1555C27.649 12.9682 27.423 12.2827 30.6836 9.99744C30.7481 9.9648 30.8773 9.86686 31.0387 9.76892C31.2324 9.63834 31.4906 9.44246 31.878 9.21394C32.2977 8.92012 32.8142 8.59366 33.4276 8.16926C34.4929 7.4184 35.2032 6.79813 35.6874 6.34108C37.0756 5.03524 38.4637 6.40638 36.7527 7.97339C35.7842 8.85483 34.7835 9.60569 33.8796 10.226L31.8457 11.5971C28.7143 13.7517 28.9726 14.0129 25.8734 16.2002C25.0986 16.7552 24.1624 17.4734 23.1617 18.3222C22.1286 19.2036 21.2247 19.8892 20.4499 20.4442C19.4169 21.1297 18.7066 21.195 18.287 20.5748Z" fill="#50966E"/>
<path d="M399.677 20.5748C399.451 20.2483 399.451 19.8892 399.612 19.4974C399.773 19.1057 400.096 18.7466 400.548 18.4528C401.226 17.9631 402.098 17.4081 403.163 16.7878L404.003 16.2655L405.713 15.1555C409.039 12.9682 408.813 12.2827 412.073 9.99744C412.138 9.9648 412.267 9.86686 412.428 9.76892C412.622 9.63834 412.88 9.44246 413.268 9.21394C413.687 8.92012 414.204 8.59366 414.817 8.16926C415.883 7.4184 416.593 6.79813 417.077 6.34108C418.465 5.03524 419.853 6.40638 418.142 7.97339C417.174 8.85483 416.173 9.60569 415.269 10.226L413.235 11.5971C410.104 13.7517 410.362 14.0129 407.263 16.2002C406.488 16.7552 405.552 17.4734 404.551 18.3222C403.518 19.2036 402.614 19.8892 401.84 20.4442C400.807 21.1297 400.096 21.195 399.677 20.5748Z" fill="#50966E"/>
<path d="M131.245 20.5748C131.471 20.2483 131.471 19.8892 131.309 19.4974C131.116 19.1057 130.825 18.7466 130.373 18.4528C129.695 17.9631 128.824 17.4081 127.758 16.7878L126.919 16.2655L125.208 15.1555C121.883 12.9682 122.109 12.2827 118.848 9.99744C118.784 9.9648 118.655 9.86686 118.493 9.76892C118.299 9.63834 118.041 9.44246 117.654 9.21394C117.234 8.92012 116.718 8.59366 116.104 8.16926C115.039 7.4184 114.329 6.79813 113.844 6.34108C112.456 5.03524 111.068 6.40638 112.779 7.97339C113.748 8.85483 114.748 9.60569 115.652 10.226L117.686 11.5971C120.817 13.7517 120.559 14.0129 123.658 16.2002C124.433 16.7552 125.369 17.4734 126.37 18.3222C127.403 19.2036 128.307 19.8892 129.082 20.4442C130.115 21.1297 130.825 21.195 131.245 20.5748Z" fill="#50966E"/>
<path d="M512.634 20.5748C512.86 20.2483 512.86 19.8892 512.699 19.4974C512.505 19.1057 512.215 18.7466 511.763 18.4528C511.085 17.9631 510.213 17.4081 509.148 16.7878L508.309 16.2655L506.598 15.1555C503.272 12.9682 503.498 12.2827 500.238 9.99744C500.173 9.9648 500.044 9.86686 499.883 9.76892C499.689 9.63834 499.431 9.44246 499.043 9.21394C498.624 8.92012 498.107 8.59366 497.494 8.16926C496.429 7.4184 495.718 6.79813 495.234 6.34108C493.846 5.03524 492.458 6.40638 494.169 7.97339C495.137 8.85483 496.138 9.60569 497.042 10.226L499.076 11.5971C502.207 13.7517 501.949 14.0129 505.048 16.2002C505.823 16.7552 506.759 17.4734 507.76 18.3222C508.793 19.2036 509.697 19.8892 510.472 20.4442C511.505 21.1297 512.215 21.195 512.634 20.5748Z" fill="#50966E"/>
<path d="M133.957 16.8207C134.183 16.4943 134.183 16.1352 134.021 15.7434C133.828 15.3516 133.537 14.9925 133.085 14.6987C132.407 14.209 131.536 13.6541 130.47 13.0338L129.631 12.5114L127.92 11.4015C124.595 9.21419 124.821 8.52862 121.56 6.21075C121.496 6.17811 121.366 6.08017 121.205 5.98223C121.011 5.85165 120.753 5.65577 120.366 5.42725C119.946 5.13343 119.397 4.77433 118.816 4.34993C117.751 3.59907 117.041 2.97879 116.556 2.52175C115.168 1.21591 113.78 2.58704 115.491 4.15405C116.459 5.03549 117.46 5.78635 118.364 6.40663L120.398 7.77776C123.529 9.9324 123.271 10.1936 126.37 12.3809C127.145 12.9358 128.081 13.6541 129.082 14.5028C130.115 15.3843 131.019 16.0699 131.794 16.6248C132.795 17.3757 133.537 17.4083 133.957 16.8207Z" fill="#50966E"/>
<path d="M515.346 16.8207C515.572 16.4943 515.572 16.1352 515.411 15.7434C515.217 15.3516 514.927 14.9925 514.475 14.6987C513.797 14.209 512.925 13.6541 511.86 13.0338L511.021 12.5114L509.31 11.4015C505.984 9.21419 506.21 8.52862 502.95 6.21075C502.885 6.17811 502.756 6.08017 502.595 5.98223C502.401 5.85165 502.143 5.65577 501.755 5.42725C501.336 5.13343 500.787 4.77433 500.206 4.34993C499.14 3.59907 498.43 2.97879 497.946 2.52175C496.558 1.21591 495.17 2.58704 496.881 4.15405C497.849 5.03549 498.85 5.78635 499.754 6.40663L501.788 7.77776C504.919 9.9324 504.661 10.1936 507.76 12.3809C508.535 12.9358 509.471 13.6541 510.472 14.5028C511.505 15.3843 512.409 16.0699 513.183 16.6248C514.184 17.3757 514.927 17.4083 515.346 16.8207Z" fill="#50966E"/>
<path d="M59.0926 20.5748C58.8667 20.2483 58.8667 19.8892 59.0281 19.4974C59.1895 19.1057 59.5123 18.7466 59.9643 18.4528C60.6422 17.9631 61.5138 17.4081 62.5792 16.7878L63.4508 16.2655L65.1618 15.1555C68.4869 12.9682 68.2609 12.2827 71.5215 9.99744C71.5861 9.9648 71.7152 9.86686 71.8766 9.76892C72.0703 9.63834 72.3286 9.44246 72.716 9.21394C73.1356 8.92012 73.6522 8.59366 74.2655 8.16926C75.3309 7.4184 76.0411 6.79813 76.5253 6.34108C77.9135 5.03524 79.3016 6.40638 77.5907 7.97339C76.6222 8.85483 75.6214 9.60569 74.7175 10.226L72.6514 11.5645C69.52 13.7191 69.7782 13.9803 66.6791 16.1675C65.9043 16.7225 64.9681 17.4407 63.9673 18.2895C62.9343 19.171 62.0304 19.8565 61.2556 20.4115C60.2225 21.1297 59.5123 21.195 59.0926 20.5748Z" fill="#50966E"/>
<path d="M440.482 20.5748C440.256 20.2483 440.256 19.8892 440.418 19.4974C440.579 19.1057 440.902 18.7466 441.354 18.4528C442.032 17.9631 442.903 17.4081 443.969 16.7878L444.84 16.2655L446.551 15.1555C449.877 12.9682 449.651 12.2827 452.911 9.99744C452.976 9.9648 453.105 9.86686 453.266 9.76892C453.46 9.63834 453.718 9.44246 454.106 9.21394C454.525 8.92012 455.042 8.59366 455.655 8.16926C456.721 7.4184 457.431 6.79813 457.915 6.34108C459.303 5.03524 460.691 6.40638 458.98 7.97339C458.012 8.85483 457.011 9.60569 456.107 10.226L454.041 11.5645C450.91 13.7191 451.168 13.9803 448.069 16.1675C447.294 16.7225 446.358 17.4407 445.357 18.2895C444.324 19.171 443.42 19.8565 442.645 20.4115C441.612 21.1297 440.902 21.195 440.482 20.5748Z" fill="#50966E"/>
<path d="M56.3817 16.8208C56.1557 16.4943 56.1557 16.1352 56.3171 15.7435C56.5108 15.3517 56.8014 14.9926 57.2533 14.6988C57.9313 14.2091 58.8029 13.6541 59.8682 13.0338L60.7076 12.5115L62.4186 11.4015C65.7437 9.21426 65.5177 8.52869 68.7783 6.21082C68.8429 6.17817 68.972 6.08024 69.1334 5.9823C69.3271 5.85171 69.5854 5.65584 69.9728 5.42731C70.3924 5.1335 70.909 4.80704 71.5223 4.38264C72.5877 3.63178 73.2979 3.01151 73.7821 2.55446C75.1703 1.24862 76.5585 2.61976 74.8475 4.18677C73.879 5.06821 72.8782 5.81907 71.9743 6.43934L69.9405 7.81048C66.8091 9.96511 67.0673 10.2263 63.9682 12.4136C63.1934 12.9686 62.2572 13.6868 61.2564 14.5356C60.2234 15.417 59.3194 16.1026 58.5446 16.6576C57.5116 17.3758 56.8014 17.4084 56.3817 16.8208Z" fill="#50966E"/>
<path d="M437.771 16.8208C437.545 16.4943 437.545 16.1352 437.707 15.7435C437.9 15.3517 438.191 14.9926 438.643 14.6988C439.321 14.2091 440.193 13.6541 441.258 13.0338L442.097 12.5115L443.808 11.4015C447.133 9.21426 446.907 8.52869 450.168 6.21082C450.233 6.17817 450.362 6.08024 450.523 5.9823C450.717 5.85171 450.975 5.65584 451.362 5.42731C451.782 5.1335 452.299 4.80704 452.912 4.38264C453.977 3.63178 454.688 3.01151 455.172 2.55446C456.56 1.24862 457.948 2.61976 456.237 4.18677C455.269 5.06821 454.268 5.81907 453.364 6.43934L451.33 7.81048C448.199 9.96511 448.457 10.2263 445.358 12.4136C444.583 12.9686 443.647 13.6868 442.646 14.5356C441.613 15.417 440.709 16.1026 439.934 16.6576C438.901 17.3758 438.191 17.4084 437.771 16.8208Z" fill="#50966E"/>
<path d="M94.2489 20.5748C94.0229 20.2483 94.0229 19.8892 94.1843 19.4974C94.3457 19.1057 94.6686 18.7466 95.1205 18.4528C95.7985 17.9631 96.6701 17.4081 97.7354 16.7878L98.6071 16.2655L100.318 15.1555C103.643 12.9682 103.417 12.2827 106.678 9.99744C106.742 9.9648 106.871 9.86686 107.033 9.76892C107.227 9.63834 107.485 9.44246 107.872 9.21394C108.292 8.92012 108.808 8.59366 109.422 8.16926C110.487 7.4184 111.197 6.79813 111.682 6.34108C113.07 5.03524 114.458 6.40638 112.747 7.97339C111.778 8.85483 110.778 9.60569 109.874 10.226L107.84 11.5971C104.708 13.7517 104.967 14.0129 101.868 16.2002C101.093 16.7552 100.157 17.4734 99.1559 18.3222C98.1228 19.2036 97.2189 19.8892 96.4441 20.4442C95.4111 21.1297 94.6686 21.195 94.2489 20.5748Z" fill="#50966E"/>
<path d="M475.639 20.5748C475.413 20.2483 475.413 19.8892 475.574 19.4974C475.735 19.1057 476.058 18.7466 476.51 18.4528C477.188 17.9631 478.06 17.4081 479.125 16.7878L479.997 16.2655L481.708 15.1555C485.033 12.9682 484.807 12.2827 488.067 9.99744C488.132 9.9648 488.261 9.86686 488.423 9.76892C488.616 9.63834 488.874 9.44246 489.262 9.21394C489.682 8.92012 490.198 8.59366 490.811 8.16926C491.877 7.4184 492.587 6.79813 493.071 6.34108C494.459 5.03524 495.848 6.40638 494.137 7.97339C493.168 8.85483 492.167 9.60569 491.263 10.226L489.23 11.5971C486.098 13.7517 486.356 14.0129 483.257 16.2002C482.482 16.7552 481.546 17.4734 480.546 18.3222C479.512 19.2036 478.609 19.8892 477.834 20.4442C476.801 21.1297 476.058 21.195 475.639 20.5748Z" fill="#50966E"/>
<path d="M96.0887 20.5747C96.3146 20.2482 96.3146 19.8891 96.1532 19.4974C95.9918 19.1056 95.669 18.7465 95.217 18.4527C94.5391 17.963 93.6675 17.408 92.6021 16.7878L91.7628 16.2654L90.0518 15.1554C86.7267 12.9682 86.9526 12.2826 83.6921 9.99737C83.6275 9.93208 83.4984 9.86679 83.3047 9.7362C83.111 9.60562 82.8527 9.40974 82.4653 9.18122C82.0456 8.88741 81.5291 8.56095 80.9157 8.13655C79.8504 7.38569 79.1402 6.76541 78.6559 6.30837C77.2678 5.00253 75.8796 6.37366 77.5906 7.94067C78.5591 8.82212 79.5599 9.57297 80.4638 10.1932L82.4976 11.5644C85.629 13.719 85.3708 13.9802 88.4699 16.1675C89.2447 16.7225 90.1809 17.4407 91.1817 18.2895C92.2147 19.1709 93.1186 19.8565 93.8934 20.4115C94.9265 21.1297 95.669 21.195 96.0887 20.5747Z" fill="#50966E"/>
<path d="M477.478 20.5747C477.704 20.2482 477.704 19.8891 477.543 19.4974C477.381 19.1056 477.059 18.7465 476.607 18.4527C475.929 17.963 475.057 17.408 473.992 16.7878L473.152 16.2654L471.441 15.1554C468.116 12.9682 468.342 12.2826 465.082 9.99737C465.017 9.93208 464.888 9.86679 464.694 9.7362C464.501 9.60562 464.242 9.40974 463.855 9.18122C463.435 8.88741 462.919 8.56095 462.305 8.13655C461.24 7.38569 460.53 6.76541 460.046 6.30837C458.657 5.00253 457.269 6.37366 458.98 7.94067C459.949 8.82212 460.95 9.57297 461.853 10.1932L463.887 11.5644C467.019 13.719 466.76 13.9802 469.86 16.1675C470.634 16.7225 471.571 17.4407 472.571 18.2895C473.604 19.1709 474.508 19.8565 475.283 20.4115C476.316 21.1297 477.059 21.195 477.478 20.5747Z" fill="#50966E"/>
<path d="M283.781 20.5747C284.007 20.2482 284.007 19.8891 283.846 19.4974C283.652 19.1056 283.361 18.7465 282.909 18.4527C282.231 17.963 281.36 17.408 280.294 16.7878L279.455 16.2654L277.744 15.1554C274.419 12.9682 274.645 12.2826 271.384 9.99737C271.32 9.96473 271.191 9.86679 271.029 9.76885C270.836 9.63827 270.545 9.44239 270.158 9.18122C269.738 8.88741 269.222 8.56095 268.608 8.13655C267.543 7.38569 266.833 6.76541 266.348 6.30837C264.96 5.00253 263.572 6.37366 265.283 7.94067C266.251 8.82212 267.252 9.57297 268.156 10.1932L270.19 11.5644C273.321 13.719 273.063 13.9802 276.162 16.1675C276.937 16.7225 277.873 17.4407 278.874 18.2895C279.907 19.1709 280.811 19.8565 281.586 20.4115C282.619 21.1297 283.329 21.195 283.781 20.5747Z" fill="#50966E"/>
<path d="M286.461 16.8208C286.687 16.4943 286.687 16.1352 286.525 15.7435C286.364 15.3517 286.041 14.9926 285.589 14.6988C284.911 14.2091 284.039 13.6541 282.974 13.0338L282.135 12.5115L280.424 11.4015C277.099 9.21426 277.325 8.52869 274.096 6.21082C274.032 6.17817 273.903 6.08024 273.741 5.9823C273.547 5.85171 273.289 5.65584 272.902 5.42731C272.482 5.1335 271.966 4.80704 271.352 4.38264C270.287 3.63178 269.577 3.01151 269.092 2.55446C267.704 1.24862 266.316 2.61976 268.027 4.18677C268.996 5.06821 269.996 5.81907 270.9 6.43934L272.934 7.81048C276.066 9.96511 275.807 10.2263 278.906 12.4136C279.681 12.9686 280.617 13.6868 281.618 14.5356C282.651 15.417 283.587 16.1026 284.33 16.6576C285.331 17.3758 286.041 17.4084 286.461 16.8208Z" fill="#50966E"/>
<path d="M246.753 20.5748C246.527 20.2483 246.527 19.8892 246.688 19.4974C246.85 19.1057 247.172 18.7466 247.624 18.4528C248.302 17.9631 249.174 17.4081 250.239 16.7878L251.111 16.2655L252.822 15.1555C256.147 12.9682 255.921 12.2827 259.182 9.99744C259.246 9.9648 259.375 9.86686 259.537 9.76892C259.73 9.63834 259.989 9.44246 260.376 9.21394C260.796 8.92012 261.312 8.59366 261.926 8.16926C262.991 7.4184 263.701 6.79813 264.185 6.34108C265.574 5.03524 266.962 6.40638 265.251 7.97339C264.282 8.85483 263.282 9.60569 262.378 10.226L260.344 11.5971C257.212 13.7517 257.471 14.0129 254.372 16.2002C253.597 16.7552 252.661 17.4734 251.66 18.3222C250.627 19.2036 249.723 19.8892 248.948 20.4442C247.915 21.1297 247.205 21.195 246.753 20.5748Z" fill="#50966E"/>
<path d="M211.339 20.5748C211.113 20.2483 211.113 19.8892 211.274 19.4974C211.468 19.1057 211.758 18.7466 212.21 18.4528C212.888 17.9631 213.76 17.4081 214.825 16.7878L215.665 16.2655L217.376 15.1555C220.701 12.9682 220.475 12.2827 223.735 9.99744C223.8 9.9648 223.929 9.86686 224.09 9.76892C224.284 9.63834 224.542 9.44246 224.93 9.21394C225.349 8.92012 225.866 8.59366 226.479 8.16926C227.545 7.4184 228.255 6.79813 228.739 6.34108C230.127 5.03524 231.515 6.40638 229.804 7.97339C228.836 8.85483 227.835 9.60569 226.931 10.226L224.897 11.5971C221.766 13.7517 222.024 14.0129 218.925 16.2002C218.15 16.7552 217.214 17.4734 216.213 18.3222C215.18 19.2036 214.276 19.8892 213.502 20.4442C212.501 21.1297 211.758 21.195 211.339 20.5748Z" fill="#50966E"/>
<path d="M208.627 16.8209C208.401 16.4944 208.401 16.1353 208.562 15.7435C208.724 15.3518 209.046 14.9927 209.498 14.6989C210.176 14.2092 211.048 13.6542 212.113 13.0339L212.985 12.5116L214.696 11.4016C218.021 9.21433 217.795 8.52876 221.056 6.24353C221.12 6.21089 221.249 6.11295 221.411 6.01501C221.604 5.88443 221.863 5.68855 222.25 5.46003C222.67 5.16622 223.186 4.83976 223.8 4.41536C224.865 3.6645 225.575 3.04422 226.06 2.58718C227.448 1.28134 228.836 2.65247 227.125 4.21948C226.156 5.10092 225.156 5.85178 224.252 6.47206L222.218 7.84319C219.086 9.99783 219.345 10.259 216.246 12.4463C215.471 13.0013 214.535 13.7195 213.534 14.5683C212.501 15.4497 211.597 16.1353 210.822 16.6903C209.789 17.3758 209.046 17.4085 208.627 16.8209Z" fill="#50966E"/>
<path d="M248.335 20.5748C248.561 20.2483 248.561 19.8892 248.399 19.4974C248.238 19.1057 247.915 18.7466 247.463 18.4528C246.785 17.9631 245.913 17.4081 244.848 16.7878L244.009 16.2655L242.298 15.1555C238.973 12.9682 239.199 12.2827 235.938 9.99744C235.874 9.9648 235.744 9.86686 235.583 9.76892C235.389 9.63834 235.131 9.44246 234.744 9.21394C234.324 8.92012 233.807 8.59366 233.194 8.16926C232.129 7.4184 231.419 6.79813 230.934 6.34108C229.546 5.03524 228.158 6.40638 229.869 7.97339C230.837 8.85483 231.838 9.60569 232.742 10.226L234.776 11.5971C237.907 13.7517 237.649 14.0129 240.748 16.2002C241.523 16.7552 242.459 17.4734 243.46 18.3222C244.493 19.2036 245.429 19.8892 246.172 20.4442C247.205 21.1297 247.915 21.195 248.335 20.5748Z" fill="#50966E"/>
<path d="M135.022 20.5748C134.796 20.2483 134.796 19.8892 134.958 19.4974C135.151 19.1057 135.442 18.7466 135.894 18.4528C136.572 17.9631 137.444 17.4081 138.509 16.7878L139.348 16.2655L141.059 15.1555C144.384 12.9682 144.158 12.2827 147.419 9.99744C147.483 9.9648 147.613 9.86686 147.774 9.76892C147.968 9.63834 148.226 9.44246 148.613 9.21394C149.033 8.92012 149.55 8.59366 150.163 8.16926C151.228 7.4184 151.939 6.79813 152.423 6.34108C153.811 5.03524 155.199 6.40638 153.488 7.97339C152.52 8.85483 151.519 9.60569 150.615 10.226L148.581 11.5971C145.45 13.7517 145.708 14.0129 142.609 16.2002C141.834 16.7552 140.898 17.4734 139.897 18.3222C138.864 19.2036 137.96 19.8892 137.185 20.4442C136.184 21.1297 135.442 21.195 135.022 20.5748Z" fill="#50966E"/>
<path d="M516.412 20.5748C516.186 20.2483 516.186 19.8892 516.347 19.4974C516.541 19.1057 516.832 18.7466 517.284 18.4528C517.962 17.9631 518.833 17.4081 519.899 16.7878L520.738 16.2655L522.449 15.1555C525.774 12.9682 525.548 12.2827 528.809 9.99744C528.873 9.9648 529.002 9.86686 529.164 9.76892C529.357 9.63834 529.616 9.44246 530.003 9.21394C530.423 8.92012 530.939 8.59366 531.553 8.16926C532.618 7.4184 533.328 6.79813 533.812 6.34108C535.201 5.03524 536.589 6.40638 534.878 7.97339C533.909 8.85483 532.908 9.60569 532.005 10.226L529.971 11.5971C526.839 13.7517 527.098 14.0129 523.998 16.2002C523.224 16.7552 522.287 17.4734 521.287 18.3222C520.254 19.2036 519.35 19.8892 518.575 20.4442C517.574 21.1297 516.832 21.195 516.412 20.5748Z" fill="#50966E"/>
<path d="M132.31 16.8209C132.084 16.4944 132.084 16.1353 132.246 15.7435C132.407 15.3518 132.73 14.9927 133.182 14.6989C133.86 14.2092 134.732 13.6542 135.797 13.0339L136.636 12.5116L138.347 11.4016C141.672 9.21433 141.446 8.52876 144.707 6.24353C144.772 6.21089 144.901 6.11295 145.062 6.01501C145.256 5.88443 145.514 5.68855 145.901 5.46003C146.321 5.16622 146.838 4.83976 147.451 4.41536C148.516 3.6645 149.227 3.04422 149.711 2.58718C151.099 1.28134 152.487 2.65247 150.776 4.21948C149.808 5.10092 148.807 5.85178 147.903 6.47206L145.869 7.84319C142.738 9.99783 142.996 10.259 139.897 12.4463C139.122 13.0013 138.186 13.7195 137.185 14.5683C136.152 15.4497 135.248 16.1353 134.473 16.6903C133.473 17.3758 132.762 17.4085 132.31 16.8209Z" fill="#50966E"/>
<path d="M513.7 16.8209C513.474 16.4944 513.474 16.1353 513.635 15.7435C513.797 15.3518 514.12 14.9927 514.572 14.6989C515.25 14.2092 516.121 13.6542 517.187 13.0339L518.026 12.5116L519.737 11.4016C523.062 9.21433 522.836 8.52876 526.097 6.24353C526.161 6.21089 526.29 6.11295 526.452 6.01501C526.645 5.88443 526.904 5.68855 527.291 5.46003C527.711 5.16622 528.227 4.83976 528.841 4.41536C529.906 3.6645 530.616 3.04422 531.1 2.58718C532.489 1.28134 533.877 2.65247 532.166 4.21948C531.197 5.10092 530.197 5.85178 529.293 6.47206L527.259 7.84319C524.127 9.99783 524.386 10.259 521.287 12.4463C520.512 13.0013 519.576 13.7195 518.575 14.5683C517.542 15.4497 516.638 16.1353 515.863 16.6903C514.862 17.3758 514.152 17.4085 513.7 16.8209Z" fill="#50966E"/>
<path d="M172.018 20.5748C172.244 20.2483 172.244 19.8892 172.083 19.4974C171.889 19.1057 171.599 18.7466 171.147 18.4528C170.469 17.9631 169.597 17.4081 168.564 16.7878L167.692 16.2655L165.981 15.1555C162.656 12.9682 162.882 12.2827 159.622 9.99744C159.557 9.9648 159.428 9.86686 159.267 9.76892C159.073 9.63834 158.815 9.44246 158.427 9.21394C158.008 8.92012 157.491 8.59366 156.878 8.16926C155.812 7.4184 155.102 6.79813 154.618 6.34108C153.23 5.03524 151.842 6.40638 153.553 7.97339C154.521 8.85483 155.522 9.60569 156.426 10.226L158.46 11.5971C161.591 13.7517 161.333 14.0129 164.432 16.2002C165.207 16.7552 166.143 17.4734 167.144 18.3222C168.177 19.2036 169.081 19.8892 169.855 20.4442C170.888 21.1297 171.599 21.195 172.018 20.5748Z" fill="#50966E"/>
<path d="M553.408 20.5748C553.634 20.2483 553.634 19.8892 553.473 19.4974C553.279 19.1057 552.988 18.7466 552.536 18.4528C551.858 17.9631 550.987 17.4081 549.954 16.7878L549.082 16.2655L547.371 15.1555C544.046 12.9682 544.272 12.2827 541.011 9.99744C540.947 9.9648 540.818 9.86686 540.656 9.76892C540.463 9.63834 540.204 9.44246 539.817 9.21394C539.397 8.92012 538.881 8.59366 538.267 8.16926C537.202 7.4184 536.492 6.79813 536.008 6.34108C534.619 5.03524 533.231 6.40638 534.942 7.97339C535.911 8.85483 536.911 9.60569 537.815 10.226L539.849 11.5971C542.981 13.7517 542.722 14.0129 545.821 16.2002C546.596 16.7552 547.532 17.4734 548.533 18.3222C549.566 19.2036 550.47 19.8892 551.245 20.4442C552.278 21.1297 552.988 21.195 553.408 20.5748Z" fill="#50966E"/>
<path d="M207.529 20.5748C207.755 20.2483 207.755 19.8892 207.593 19.4974C207.432 19.1057 207.109 18.7466 206.657 18.4528C205.979 17.9631 205.108 17.4081 204.075 16.7878L203.235 16.2655L201.524 15.1555C198.199 12.9682 198.425 12.2827 195.165 9.99744C195.1 9.9648 194.971 9.86686 194.81 9.76892C194.616 9.63834 194.358 9.44246 193.97 9.21394C193.551 8.92012 193.034 8.59366 192.421 8.16926C191.355 7.4184 190.645 6.79813 190.161 6.34108C188.773 5.03524 187.385 6.40638 189.095 7.97339C190.064 8.85483 191.065 9.60569 191.969 10.226L194.002 11.5971C197.134 13.7517 196.876 14.0129 199.975 16.2002C200.75 16.7552 201.686 17.4734 202.687 18.3222C203.72 19.2036 204.623 19.8892 205.398 20.4442C206.399 21.1297 207.109 21.195 207.529 20.5748Z" fill="#50966E"/>
<path d="M588.919 20.5748C589.145 20.2483 589.145 19.8892 588.983 19.4974C588.822 19.1057 588.499 18.7466 588.047 18.4528C587.369 17.9631 586.497 17.4081 585.464 16.7878L584.625 16.2655L582.914 15.1555C579.589 12.9682 579.815 12.2827 576.554 9.99744C576.49 9.9648 576.361 9.86686 576.199 9.76892C576.005 9.63834 575.747 9.44246 575.36 9.21394C574.94 8.92012 574.424 8.59366 573.81 8.16926C572.745 7.4184 572.035 6.79813 571.55 6.34108C570.162 5.03524 568.774 6.40638 570.485 7.97339C571.454 8.85483 572.454 9.60569 573.358 10.226L575.392 11.5971C578.524 13.7517 578.265 14.0129 581.364 16.2002C582.139 16.7552 583.075 17.4734 584.076 18.3222C585.109 19.2036 586.013 19.8892 586.788 20.4442C587.789 21.1297 588.499 21.195 588.919 20.5748Z" fill="#50966E"/>
<path d="M210.241 16.8208C210.467 16.4943 210.467 16.1352 210.306 15.7435C210.144 15.3517 209.821 14.9926 209.369 14.6988C208.691 14.2091 207.82 13.6541 206.754 13.0338L205.915 12.5115L204.204 11.4015C200.879 9.21426 201.105 8.52869 197.844 6.21082C197.78 6.17817 197.651 6.08024 197.489 5.9823C197.296 5.85171 197.037 5.65584 196.65 5.42731C196.23 5.1335 195.714 4.80704 195.1 4.38264C194.035 3.63178 193.325 3.01151 192.841 2.55446C191.452 1.24862 190.064 2.61976 191.775 4.18677C192.744 5.06821 193.744 5.81907 194.648 6.43934L196.682 7.81048C199.814 9.96511 199.555 10.2263 202.654 12.4136C203.429 12.9686 204.365 13.6868 205.366 14.5356C206.399 15.417 207.303 16.1026 208.078 16.6576C209.111 17.3758 209.821 17.4084 210.241 16.8208Z" fill="#50966E"/>
<path d="M170.533 20.5748C170.307 20.2483 170.307 19.8892 170.468 19.4974C170.63 19.1057 170.953 18.7466 171.405 18.4528C172.083 17.9631 172.954 17.4081 174.02 16.7878L174.891 16.2655L176.602 15.1555C179.927 12.9682 179.701 12.2827 182.962 9.99744C183.027 9.9648 183.156 9.86686 183.317 9.76892C183.511 9.63834 183.769 9.44246 184.156 9.21394C184.576 8.92012 185.093 8.59366 185.706 8.16926C186.771 7.4184 187.482 6.79813 187.966 6.34108C189.354 5.03524 190.742 6.40638 189.031 7.97339C188.063 8.85483 187.062 9.60569 186.158 10.226L184.124 11.5971C180.993 13.7517 181.251 14.0129 178.152 16.2002C177.377 16.7552 176.441 17.4734 175.44 18.3222C174.407 19.2036 173.503 19.8892 172.728 20.4442C171.695 21.1297 170.953 21.195 170.533 20.5748Z" fill="#50966E"/>
<path d="M551.923 20.5748C551.697 20.2483 551.697 19.8892 551.858 19.4974C552.02 19.1057 552.342 18.7466 552.794 18.4528C553.472 17.9631 554.344 17.4081 555.409 16.7878L556.281 16.2655L557.992 15.1555C561.317 12.9682 561.091 12.2827 564.352 9.99744C564.416 9.9648 564.545 9.86686 564.707 9.76892C564.9 9.63834 565.159 9.44246 565.546 9.21394C565.966 8.92012 566.482 8.59366 567.096 8.16926C568.161 7.4184 568.871 6.79813 569.355 6.34108C570.744 5.03524 572.132 6.40638 570.421 7.97339C569.452 8.85483 568.452 9.60569 567.548 10.226L565.514 11.5971C562.382 13.7517 562.641 14.0129 559.541 16.2002C558.767 16.7552 557.83 17.4734 556.83 18.3222C555.797 19.2036 554.893 19.8892 554.118 20.4442C553.085 21.1297 552.342 21.195 551.923 20.5748Z" fill="#50966E"/>
<path d="M287.591 20.5748C287.365 20.2483 287.365 19.8892 287.526 19.4974C287.72 19.1057 288.01 18.7466 288.462 18.4528C289.14 17.9631 290.012 17.4081 291.077 16.7878L291.949 16.2655L293.66 15.1555C296.985 12.9682 296.759 12.2827 300.02 9.99744C300.084 9.9648 300.213 9.86686 300.375 9.76892C300.568 9.63834 300.827 9.44246 301.214 9.21394C301.634 8.92012 302.15 8.59366 302.764 8.16926C303.829 7.4184 304.539 6.79813 305.023 6.34108C306.412 5.03524 307.8 6.40638 306.089 7.97339C305.12 8.85483 304.119 9.60569 303.216 10.226L301.182 11.5971C298.05 13.7517 298.309 14.0129 295.209 16.2002C294.435 16.7552 293.498 17.4734 292.498 18.3222C291.465 19.2036 290.561 19.8892 289.786 20.4442C288.721 21.1297 288.01 21.195 287.591 20.5748Z" fill="#50966E"/>
<path d="M284.879 16.8209C284.653 16.4944 284.653 16.1353 284.814 15.7435C284.976 15.3518 285.298 14.9927 285.75 14.6989C286.428 14.2092 287.3 13.6542 288.365 13.0339L289.237 12.5116L290.948 11.4016C294.273 9.21433 294.047 8.52876 297.308 6.24353C297.372 6.21089 297.501 6.11295 297.663 6.01501C297.856 5.88443 298.115 5.68855 298.502 5.46003C298.922 5.16622 299.438 4.83976 300.052 4.41536C301.117 3.6645 301.827 3.04422 302.311 2.58718C303.7 1.28134 305.088 2.65247 303.377 4.21948C302.408 5.10092 301.408 5.85178 300.504 6.47206L298.47 7.84319C295.338 9.99783 295.597 10.259 292.498 12.4463C291.723 13.0013 290.787 13.7195 289.786 14.5683C288.753 15.4497 287.849 16.1353 287.074 16.6903C286.041 17.3758 285.298 17.4085 284.879 16.8209Z" fill="#50966E"/>
<path d="M324.587 20.5748C324.813 20.2483 324.813 19.8892 324.651 19.4974C324.49 19.1057 324.167 18.7466 323.715 18.4528C323.037 17.9631 322.166 17.4081 321.1 16.7878L320.261 16.2655L318.55 15.1555C315.225 12.9682 315.451 12.2827 312.19 9.99744C312.126 9.9648 311.996 9.86686 311.835 9.76892C311.641 9.63834 311.383 9.44246 310.996 9.21394C310.576 8.92012 310.059 8.59366 309.446 8.16926C308.381 7.4184 307.67 6.79813 307.186 6.34108C305.798 5.03524 304.41 6.40638 306.121 7.97339C307.089 8.85483 308.09 9.60569 308.994 10.226L311.028 11.5971C314.159 13.7517 313.901 14.0129 317 16.2002C317.775 16.7552 318.711 17.4734 319.712 18.3222C320.745 19.2036 321.681 19.8892 322.424 20.4442C323.457 21.1297 324.167 21.195 324.587 20.5748Z" fill="#50966E"/>
<path d="M360.001 20.5748C360.227 20.2483 360.227 19.8892 360.065 19.4974C359.872 19.1057 359.581 18.7466 359.129 18.4528C358.451 17.9631 357.579 17.4081 356.514 16.7878L355.675 16.2655L353.964 15.1555C350.639 12.9682 350.865 12.2827 347.604 9.99744C347.54 9.9648 347.41 9.86686 347.249 9.76892C347.055 9.63834 346.797 9.44246 346.41 9.21394C345.99 8.92012 345.473 8.59366 344.86 8.16926C343.795 7.4184 343.085 6.79813 342.6 6.34108C341.212 5.03524 339.824 6.40638 341.535 7.97339C342.503 8.85483 343.504 9.60569 344.408 10.226L346.442 11.5971C349.573 13.7517 349.315 14.0129 352.414 16.2002C353.189 16.7552 354.125 17.4734 355.126 18.3222C356.159 19.2036 357.063 19.8892 357.838 20.4442C358.871 21.1297 359.581 21.195 360.001 20.5748Z" fill="#50966E"/>
<path d="M364.173 20.5748C363.947 20.2483 363.947 19.8892 364.109 19.4974C364.302 19.1057 364.593 18.7466 365.045 18.4528C365.723 17.9631 366.594 17.4081 367.66 16.7878L368.499 16.2655L370.21 15.1555C373.535 12.9682 373.309 12.2827 376.57 9.99744C376.634 9.9648 376.763 9.86686 376.925 9.76892C377.119 9.63834 377.377 9.44246 377.764 9.21394C378.184 8.92012 378.7 8.59366 379.314 8.16926C380.379 7.4184 381.089 6.79813 381.574 6.34108C382.962 5.03524 384.35 6.40638 382.639 7.97339C381.67 8.85483 380.67 9.60569 379.766 10.226L377.732 11.5971C374.6 13.7517 374.859 14.0129 371.76 16.2002C370.985 16.7552 370.049 17.4734 369.048 18.3222C368.015 19.2036 367.111 19.8892 366.336 20.4442C365.303 21.1297 364.593 21.195 364.173 20.5748Z" fill="#50966E"/>
<path d="M362.713 16.8209C362.939 16.4944 362.939 16.1353 362.777 15.7435C362.616 15.3518 362.293 14.9927 361.841 14.6989C361.163 14.2092 360.291 13.6542 359.226 13.0339L358.387 12.5116L356.676 11.4016C353.351 9.21433 353.577 8.52876 350.316 6.24353C350.251 6.21089 350.122 6.11295 349.961 6.01501C349.767 5.88443 349.509 5.68855 349.122 5.46003C348.702 5.16622 348.185 4.83976 347.572 4.41536C346.507 3.6645 345.796 3.04422 345.312 2.58718C343.924 1.28134 342.536 2.65247 344.247 4.21948C345.215 5.10092 346.216 5.85178 347.12 6.47206L349.154 7.84319C352.285 9.99783 352.027 10.259 355.126 12.4463C355.901 13.0013 356.837 13.7195 357.838 14.5683C358.871 15.4497 359.807 16.1353 360.55 16.6903C361.583 17.3758 362.293 17.4085 362.713 16.8209Z" fill="#50966E"/>
<path d="M361.461 16.8209C361.235 16.4944 361.235 16.1353 361.397 15.7435C361.558 15.3518 361.881 14.9927 362.333 14.6989C363.011 14.2092 363.882 13.6542 364.948 13.0339L365.787 12.5116L367.498 11.4016C370.823 9.21433 370.597 8.52876 373.858 6.24353C373.922 6.21089 374.052 6.11295 374.213 6.01501C374.407 5.88443 374.665 5.68855 375.052 5.46003C375.472 5.16622 375.988 4.83976 376.602 4.41536C377.667 3.6645 378.377 3.04422 378.862 2.58718C380.25 1.28134 381.638 2.65247 379.927 4.21948C378.958 5.10092 377.958 5.85178 377.054 6.47206L375.02 7.84319C371.889 9.99783 372.147 10.259 369.048 12.4463C368.273 13.0013 367.337 13.7195 366.336 14.5683C365.303 15.4497 364.367 16.1353 363.624 16.6903C362.591 17.3758 361.881 17.4085 361.461 16.8209Z" fill="#50966E"/>
<path d="M323.005 20.5748C322.779 20.2483 322.779 19.8892 322.94 19.4974C323.102 19.1057 323.424 18.7466 323.876 18.4528C324.554 17.9631 325.426 17.4081 326.491 16.7878L327.363 16.2655L329.074 15.1555C332.399 12.9682 332.173 12.2827 335.434 9.99744C335.498 9.9648 335.627 9.86686 335.789 9.76892C335.982 9.63834 336.241 9.44246 336.628 9.21394C337.048 8.92012 337.564 8.59366 338.178 8.16926C339.243 7.4184 339.953 6.79813 340.437 6.34108C341.826 5.03524 343.214 6.40638 341.503 7.97339C340.534 8.85483 339.534 9.60569 338.63 10.226L336.596 11.5971C333.464 13.7517 333.723 14.0129 330.623 16.2002C329.849 16.7552 328.912 17.4734 327.912 18.3222C326.879 19.2036 325.975 19.8892 325.2 20.4442C324.167 21.1297 323.424 21.195 323.005 20.5748Z" fill="#50966E"/>
<path d="M95.9599 7.97343C95.7985 7.8102 95.508 7.54903 95.2497 7.54903C94.9914 7.54903 94.6363 7.87549 94.4749 8.03872C94.3135 8.20195 94.2167 8.43048 94.2167 8.69164C94.2167 8.95281 94.2812 9.27927 94.4426 9.4425C94.7009 9.70367 95.508 10.0301 95.9922 9.57309C96.1536 9.40986 96.2182 8.85487 96.2182 8.59371C96.2182 8.36518 96.1213 8.13666 95.9599 7.97343ZM94.9269 5.3291C95.7985 5.3291 96.7993 5.85144 97.3804 6.43907C97.9615 7.0267 98.4134 7.84285 98.4134 8.72429C98.4134 9.60573 97.9615 10.4219 97.3804 11.0095C96.7993 11.5971 95.9922 11.9562 95.1206 11.9562C94.3458 11.9562 93.6678 11.7277 93.0222 11.0422C92.4411 10.3892 91.7632 9.63838 91.9246 8.75694C91.9246 7.87549 92.2797 7.05934 92.8608 6.47171C93.4419 5.85144 94.023 5.3291 94.9269 5.3291Z" fill="#50966E"/>
<path d="M477.35 7.97343C477.188 7.8102 476.898 7.54903 476.639 7.54903C476.381 7.54903 476.026 7.87549 475.865 8.03872C475.703 8.20195 475.606 8.43048 475.606 8.69164C475.606 8.95281 475.671 9.27927 475.832 9.4425C476.091 9.70367 476.898 10.0301 477.382 9.57309C477.543 9.40986 477.608 8.85487 477.608 8.59371C477.608 8.36518 477.511 8.13666 477.35 7.97343ZM476.317 5.3291C477.188 5.3291 478.189 5.85144 478.77 6.43907C479.351 7.0267 479.803 7.84285 479.803 8.72429C479.803 9.60573 479.351 10.4219 478.77 11.0095C478.189 11.5971 477.382 11.9562 476.51 11.9562C475.735 11.9562 475.057 11.7277 474.412 11.0422C473.831 10.3892 473.153 9.63838 473.314 8.75694C473.314 7.87549 473.669 7.05934 474.25 6.47171C474.832 5.85144 475.413 5.3291 476.317 5.3291Z" fill="#50966E"/>
<path d="M172.244 7.97343C172.083 7.8102 171.824 7.54903 171.566 7.54903C171.308 7.54903 170.953 7.87549 170.791 8.03872C170.63 8.20195 170.533 8.43048 170.533 8.69164C170.533 8.95281 170.598 9.27927 170.759 9.4425C171.017 9.70367 171.824 10.0301 172.309 9.57309C172.47 9.40986 172.535 8.85487 172.535 8.62635C172.502 8.36518 172.406 8.13666 172.244 7.97343ZM171.211 5.3291C172.083 5.3291 173.083 5.85144 173.665 6.43907C174.246 7.0267 174.698 7.84285 174.698 8.72429C174.698 9.60573 174.246 10.4219 173.665 11.0095C173.083 11.5971 172.276 11.9562 171.405 11.9562C170.63 11.9562 169.952 11.7277 169.306 11.0422C168.725 10.3892 168.047 9.63838 168.209 8.75694C168.209 7.87549 168.564 7.05934 169.145 6.47171C169.758 5.85144 170.339 5.3291 171.211 5.3291Z" fill="#50966E"/>
<path d="M553.634 7.97343C553.472 7.8102 553.214 7.54903 552.956 7.54903C552.698 7.54903 552.342 7.87549 552.181 8.03872C552.02 8.20195 551.923 8.43048 551.923 8.69164C551.923 8.95281 551.987 9.27927 552.149 9.4425C552.407 9.70367 553.214 10.0301 553.698 9.57309C553.86 9.40986 553.924 8.85487 553.924 8.62635C553.892 8.36518 553.795 8.13666 553.634 7.97343ZM552.601 5.3291C553.472 5.3291 554.473 5.85144 555.054 6.43907C555.635 7.0267 556.087 7.84285 556.087 8.72429C556.087 9.60573 555.635 10.4219 555.054 11.0095C554.473 11.5971 553.666 11.9562 552.794 11.9562C552.02 11.9562 551.342 11.7277 550.696 11.0422C550.115 10.3892 549.437 9.63838 549.598 8.75694C549.598 7.87549 549.954 7.05934 550.535 6.47171C551.148 5.85144 551.729 5.3291 552.601 5.3291Z" fill="#50966E"/>
<path d="M248.561 7.97343C248.399 7.8102 248.109 7.54903 247.883 7.54903C247.624 7.54903 247.269 7.87549 247.108 8.03872C246.946 8.20195 246.85 8.43048 246.85 8.69164C246.85 8.95281 246.914 9.27927 247.076 9.4425C247.334 9.70367 248.141 10.0301 248.625 9.57309C248.786 9.40986 248.851 8.85487 248.851 8.62635C248.819 8.36518 248.722 8.13666 248.561 7.97343ZM247.527 5.3291C248.399 5.3291 249.4 5.85144 249.981 6.43907C250.562 7.0267 251.014 7.84285 251.014 8.72429C251.014 9.60573 250.562 10.4219 249.981 11.0095C249.4 11.5971 248.593 11.9562 247.721 11.9562C246.946 11.9562 246.268 11.7277 245.623 11.0422C245.042 10.3892 244.364 9.63838 244.525 8.75694C244.525 7.87549 244.88 7.05934 245.461 6.47171C246.042 5.85144 246.624 5.3291 247.527 5.3291Z" fill="#50966E"/>
<path d="M324.845 7.97343C324.683 7.8102 324.393 7.54903 324.167 7.54903C323.941 7.54903 323.553 7.87549 323.392 8.03872C323.231 8.20195 323.134 8.43048 323.134 8.69164C323.134 8.95281 323.198 9.27927 323.36 9.4425C323.618 9.70367 324.425 10.0301 324.909 9.57309C325.071 9.40986 325.135 8.85487 325.135 8.62635C325.103 8.36518 325.006 8.13666 324.845 7.97343ZM323.812 5.3291C324.683 5.3291 325.684 5.85144 326.265 6.43907C326.846 7.0267 327.298 7.84285 327.298 8.72429C327.298 9.60573 326.846 10.4219 326.265 11.0095C325.684 11.5971 324.877 11.9562 324.005 11.9562C323.231 11.9562 322.553 11.7277 321.907 11.0422C321.326 10.3892 320.648 9.63838 320.809 8.75694C320.809 7.87549 321.164 7.05934 321.746 6.47171C322.359 5.85144 322.94 5.3291 323.812 5.3291Z" fill="#50966E"/>
</svg>
