<svg width="30" height="40" viewBox="0 0 30 40" fill="#fff" xmlns="http://www.w3.org/2000/svg">
<path fill-rule="evenodd" clip-rule="evenodd" d="M29.9853 6.98317C30.2003 10.8665 27.1691 14.0626 23.3756 14.0626C19.9276 14.0626 17.0726 11.3973 16.7768 7.96869H14.9697C14.3278 7.96869 13.8077 7.44344 13.8077 6.79687C13.8077 6.14951 14.3286 5.62505 14.9697 5.62505H16.752V3.51546C16.752 1.57808 18.3169 0 20.238 0H26.5139C28.4359 0 30 1.57808 30 3.51546C30 4.40078 29.9853 6.11272 29.9853 6.98317ZM21.6617 22.1432C22.1127 21.6853 22.8462 21.683 23.3003 22.1386C23.7536 22.5941 23.756 23.3339 23.305 23.791L19.076 28.0853V38.8282C19.076 39.4755 18.5559 40 17.914 40C17.272 40 16.752 39.4748 16.752 38.8282V30.4462C16.072 31.1366 15.6971 31.6008 14.7213 31.9037C14.2307 32.0556 13.7332 32.1104 13.248 32.1104H3.48608C1.56645 32.1096 0 30.5299 0 28.5941C0 26.6583 1.56645 25.0787 3.48608 25.0787H12.2063L18.4543 18.627C19.0667 17.9405 19.8197 17.3808 20.6681 16.9949C25.0437 15.0035 30 18.274 30 23.0857V38.8282C30 39.4755 29.4799 40 28.838 40C28.196 40 27.6759 39.4748 27.6759 38.8282V23.0857C27.6759 19.9523 24.439 17.8458 21.6213 19.128C20.8202 19.4928 20.6526 19.7996 20.0525 20.3225L13.581 27.0051C13.3684 27.2603 13.0485 27.4223 12.6922 27.4223H3.48608C2.47387 27.4223 1.92429 28.6724 2.66637 29.4207C2.87751 29.6337 3.16782 29.7659 3.48608 29.7659H13.248C13.7122 29.7659 14.2137 29.7072 14.535 29.3808L21.6617 22.1432ZM8.54016 14.375V14.8258C8.54016 15.4732 8.02008 15.9977 7.37813 15.9977C6.73618 15.9977 6.2161 15.4732 6.2161 14.8258V14.375H4.35624V20.3906H10.3992V14.375H8.54016ZM3.19421 12.0313C2.55227 12.0313 2.03219 12.5566 2.03219 13.2031V21.5632C2.03219 22.2106 2.55304 22.735 3.19421 22.735H11.5613C12.2032 22.735 12.7233 22.2106 12.7233 21.5632V13.2031C12.7233 12.5558 12.2032 12.0313 11.5613 12.0313H3.19421ZM19.1156 7.96869C19.4013 10.0994 21.2114 11.719 23.3764 11.719C25.5413 11.719 27.3515 10.1002 27.6371 7.96869H19.1156ZM26.5139 2.34364H20.238C19.5992 2.34364 19.076 2.87123 19.076 3.51546V5.62427H27.6759V3.51546C27.6759 2.87202 27.1528 2.34364 26.5139 2.34364Z" fill="#000" fill-opacity="1"/>
</svg>
