<svg width="28" height="28" viewBox="0 0 28 28" fill="none" xmlns="http://www.w3.org/2000/svg">
<path fill-rule="evenodd" clip-rule="evenodd" d="M3.49998 16.3333C4.14431 16.3333 4.66665 16.8556 4.66665 17.4999V22.1666C4.66665 22.476 4.78956 22.7728 5.00836 22.9915C5.22715 23.2103 5.52389 23.3333 5.83331 23.3333H22.1666C22.4761 23.3333 22.7728 23.2103 22.9916 22.9915C23.2104 22.7728 23.3333 22.476 23.3333 22.1666V17.4999C23.3333 16.8556 23.8556 16.3333 24.5 16.3333C25.1443 16.3333 25.6666 16.8556 25.6666 17.4999V22.1666C25.6666 23.0948 25.2979 23.9851 24.6415 24.6415C23.9851 25.2978 23.0949 25.6666 22.1666 25.6666H5.83331C4.90506 25.6666 4.01482 25.2978 3.35844 24.6415C2.70206 23.9851 2.33331 23.0948 2.33331 22.1666V17.4999C2.33331 16.8556 2.85565 16.3333 3.49998 16.3333Z" fill="#50966E"/>
<path fill-rule="evenodd" clip-rule="evenodd" d="M7.34171 10.8417C7.79732 10.3861 8.53601 10.3861 8.99162 10.8417L14 15.8501L19.0084 10.8417C19.464 10.3861 20.2027 10.3861 20.6583 10.8417C21.1139 11.2973 21.1139 12.036 20.6583 12.4916L14.825 18.325C14.3693 18.7806 13.6307 18.7806 13.175 18.325L7.34171 12.4916C6.8861 12.036 6.8861 11.2973 7.34171 10.8417Z" fill="#50966E"/>
<path fill-rule="evenodd" clip-rule="evenodd" d="M14 2.33325C14.6443 2.33325 15.1666 2.85559 15.1666 3.49992V17.4999C15.1666 18.1443 14.6443 18.6666 14 18.6666C13.3556 18.6666 12.8333 18.1443 12.8333 17.4999V3.49992C12.8333 2.85559 13.3556 2.33325 14 2.33325Z" fill="#50966E"/>
</svg>
