<?xml version="1.0" encoding="UTF-8"?>
<!DOCTYPE svg PUBLIC "-//W3C//DTD SVG 1.1//EN" "http://www.w3.org/Graphics/SVG/1.1/DTD/svg11.dtd">
<!-- Creator: CorelDRAW 2020 (64-Bit) -->
<svg xmlns="http://www.w3.org/2000/svg" xml:space="preserve" width="4.5664mm" height="4.8835mm" version="1.1" style="shape-rendering:geometricPrecision; text-rendering:geometricPrecision; image-rendering:optimizeQuality; fill-rule:evenodd; clip-rule:evenodd"
viewBox="0 0 15.8 16.89"
 xmlns:xlink="http://www.w3.org/1999/xlink"
 xmlns:xodm="http://www.corel.com/coreldraw/odm/2003">
 <defs>
  <style type="text/css">
   <![CDATA[
    .str0 {stroke:#559666;stroke-width:0.69;stroke-miterlimit:22.9256}
    .str1 {stroke:#559666;stroke-width:0.69;stroke-linecap:round;stroke-linejoin:round;stroke-miterlimit:22.9256}
    .str2 {stroke:#559666;stroke-width:0.57;stroke-linecap:round;stroke-linejoin:round;stroke-miterlimit:22.9256}
    .fil0 {fill:none}
   ]]>
  </style>
 </defs>
 <g id="Слой_x0020_1">
  <metadata id="CorelCorpID_0Corel-Layer"/>
  <g id="_1767726988128">
   <path class="fil0 str0" d="M7.87 4.02c0.49,-0 0.97,0.07 1.43,0.2l-0.12 1.26 1.18 0.62 1.04 -0.65c0.34,0.34 0.63,0.72 0.87,1.16l-0.98 0.81 0.39 1.27 1.19 0.27c0,0.49 -0.07,0.97 -0.2,1.43l-1.26 -0.12 -0.62 1.18 0.65 1.04c-0.34,0.34 -0.72,0.63 -1.16,0.87l-0.81 -0.98 -1.27 0.39 -0.27 1.19c-0.49,0 -0.97,-0.07 -1.43,-0.2l0.12 -1.26 -1.18 -0.62 -1.04 0.65c-0.34,-0.34 -0.64,-0.72 -0.87,-1.16l0.98 -0.81 -0.39 -1.27 -1.19 -0.27c-0,-0.49 0.07,-0.97 0.2,-1.43l1.26 0.12 0.62 -1.18 -0.65 -1.04c0.34,-0.34 0.72,-0.63 1.16,-0.87l0.81 0.98 1.27 -0.39 0.27 -1.19zm-0.45 3.44c0.84,-0.26 1.74,0.21 2,1.06 0.26,0.84 -0.21,1.74 -1.06,2 -0.84,0.26 -1.74,-0.21 -2,-1.06 -0.26,-0.84 0.21,-1.74 1.06,-2z"/>
   <path class="fil0 str1" d="M10.41 1.87c2.94,1.03 5.04,3.83 5.04,7.13 0,4.17 -3.38,7.55 -7.55,7.55 -4.17,0 -7.55,-3.38 -7.55,-7.55 0,-3.52 2.41,-6.48 5.67,-7.31 0.6,-0.15 1.24,-0.24 1.89,-0.24"/>
   <g>
    <polyline class="fil0 str2" points="6.9,0.29 8.41,1.42 7.1,2.85 "/>
   </g>
  </g>
 </g>
</svg>
