<svg width="28" height="28" viewBox="0 0 28 28" fill="none" xmlns="http://www.w3.org/2000/svg">
<path d="M16.2757 0H5.18579C4.34123 0 3.65417 0.687058 3.65417 1.53162V26.4684C3.65417 27.3129 4.34123 28 5.18579 28H22.8143C23.6589 28 24.3459 27.3129 24.3459 26.4684V7.55942C24.3459 7.15048 24.1866 6.76592 23.8976 6.47657L17.3416 0.431661C17.0543 0.153034 16.6767 0 16.2757 0ZM22.4314 26.0855H5.5687V1.91452H14.7287V7.05003C14.7287 8.18407 15.6508 9.10674 16.7843 9.10674H22.4314V26.0855ZM16.7843 7.19222C16.7066 7.19222 16.6433 7.1284 16.6433 7.05003V3.01933L21.1064 7.19209H16.7843V7.19222ZM8.87048 11.3119H19.2727V13.2264H8.87048V11.3119ZM8.87048 14.5028H19.2727V16.4173H8.87048V14.5028ZM8.87048 17.6935H19.2727V19.608H8.87048V17.6935ZM8.87048 20.8844H14.8055V22.7989H8.87048V20.8844Z" fill="#2F3639"/>
</svg>
