<svg width="40" height="40" viewBox="0 0 40 40" fill="none" xmlns="http://www.w3.org/2000/svg">
<g clip-path="url(#clip0)">
<path fill-rule="evenodd" clip-rule="evenodd" d="M28.8959 37.5934C31.9189 37.5934 37.7264 28.1363 37.7264 23.9053C37.7264 19.0283 33.7732 15.0751 28.8959 15.0751C24.0189 15.0751 20.0656 19.0283 20.0656 23.9053C20.0653 28.2196 25.8475 37.5934 28.8959 37.5934ZM28.8959 19.6054C31.2708 19.6054 33.1961 21.5308 33.1961 23.9053C33.1961 26.2802 31.2708 28.2059 28.8959 28.2059C26.5213 28.2059 24.5956 26.2802 24.5956 23.9053C24.5956 21.5308 26.5213 19.6054 28.8959 19.6054ZM30.2798 22.5217C31.044 23.2858 31.044 24.5251 30.2798 25.2893C29.0506 26.5186 26.9391 25.6442 26.9391 23.9053C26.9391 22.1667 29.0506 21.2924 30.2798 22.5217ZM19.0442 29.3689H1.24969C0.602722 29.3689 0.078125 28.8443 0.078125 28.1973V1.17157C0.078125 0.524597 0.602722 0 1.24969 0H28.2755C28.9224 0 29.447 0.524597 29.447 1.17157V12.7451C35.3754 13.0331 40.0699 17.9327 40.0699 23.9053C40.0699 26.8539 38.4006 30.7437 36.2708 33.9209C33.9825 37.3349 31.0535 40 28.8959 40C26.7383 40 23.8095 37.3349 21.521 33.9209C20.5667 32.4969 19.7049 30.9299 19.0442 29.3689ZM27.1036 12.8748C21.7462 13.7387 17.7222 18.3838 17.7222 23.9053C17.7222 24.8648 17.8992 25.9238 18.2111 27.0255H2.42126V2.34314H9.16138L9.16412 8.9093C9.16351 9.76135 10.0729 10.35 10.8594 9.9527L14.7626 7.97638L18.5886 9.91364C19.4662 10.3992 20.3638 9.75098 20.3638 8.9093V2.34314H27.1036V12.8748ZM18.0203 2.34314H11.5045V7.00592L14.2343 5.62408C14.5541 5.46204 14.9442 5.44922 15.289 5.62286L18.0203 7.00592V2.34314Z" fill="#000" fill-opacity="1"/>
</g>
<defs>
<clipPath id="clip0">
<rect width="40" height="40" fill="white"/>
</clipPath>
</defs>
</svg>
