<?xml version="1.0" encoding="UTF-8"?>
<!DOCTYPE svg PUBLIC "-//W3C//DTD SVG 1.1//EN" "http://www.w3.org/Graphics/SVG/1.1/DTD/svg11.dtd">
<!-- Creator: CorelDRAW 2020 (64-Bit) -->
<svg xmlns="http://www.w3.org/2000/svg" xml:space="preserve" width="5.4823mm" height="3.8114mm" version="1.1" style="shape-rendering:geometricPrecision; text-rendering:geometricPrecision; image-rendering:optimizeQuality; fill-rule:evenodd; clip-rule:evenodd"
viewBox="0 0 22.61 15.72"
 xmlns:xlink="http://www.w3.org/1999/xlink"
 xmlns:xodm="http://www.corel.com/coreldraw/odm/2003">
 <defs>
  <style type="text/css">
   <![CDATA[
    .fil0 {fill:#559666;fill-rule:nonzero}
   ]]>
  </style>
 </defs>
 <g id="Слой_x0020_1">
  <metadata id="CorelCorpID_0Corel-Layer"/>
  <g>
   <path class="fil0" d="M17.85 12.21c0.07,-0.21 0.25,-0.31 0.4,-0.22 0.16,0.09 0.23,0.33 0.16,0.54l-0.56 -0.32zm-13.66 0.31l0.57 -0.3 0.1 0.26 0.15 0.26 0.21 0.26 0.26 0.25 0.31 0.24 0.35 0.22 0.39 0.21 0.43 0.19 0.46 0.17 0.49 0.15 0.51 0.13 0.53 0.11 0.55 0.09 0.56 0.07 0.57 0.05 0.57 0.02 0.58 0 0.57 -0.02 0.57 -0.04 0.55 -0.07 0.54 -0.09 0.52 -0.12 0.5 -0.14 0.47 -0.16 0.44 -0.19 0.41 -0.21 0.37 -0.23 0.32 -0.25 0.28 -0.27 0.23 -0.29 0.18 -0.3 0.12 -0.31 0.56 0.32 -0.18 0.45 -0.24 0.41 -0.29 0.36 -0.33 0.33 -0.37 0.29 -0.41 0.26 -0.44 0.23 -0.47 0.2 -0.5 0.17 -0.52 0.15 -0.54 0.12 -0.56 0.1 -0.57 0.07 -0.58 0.05 -0.59 0.02 -0.59 -0 -0.59 -0.02 -0.59 -0.05 -0.58 -0.07 -0.57 -0.09 -0.55 -0.12 -0.54 -0.14 -0.51 -0.16 -0.49 -0.18 -0.46 -0.2 -0.43 -0.23 -0.39 -0.25 -0.36 -0.28 -0.31 -0.3 -0.27 -0.33 -0.22 -0.37 -0.16 -0.41zm0 0c-0.06,-0.21 0.01,-0.45 0.17,-0.54 0.16,-0.08 0.33,0.02 0.4,0.23l-0.57 0.3zm7.21 -11.71l-11 4.73 -0.18 -0.79 11 -4.73 0.18 0 0 0.79zm-0.18 -0.79c0.16,-0.07 0.33,0.05 0.38,0.27 0.05,0.22 -0.04,0.45 -0.2,0.52l-0.18 -0.79zm11 5.51l-11 -4.73 0.18 -0.79 11 4.73 0 0.79 -0.18 0zm0.18 -0.79c0.16,0.07 0.25,0.3 0.2,0.52 -0.05,0.22 -0.22,0.34 -0.38,0.27l0.18 -0.79zm-11.19 4.73l11 -4.73 0.18 0.79 -11 4.73 -0.18 0 0 -0.79zm0.18 0.79c-0.16,0.07 -0.33,-0.05 -0.38,-0.27 -0.05,-0.22 0.04,-0.45 0.2,-0.52l0.18 0.79zm-11 -5.51l11 4.73 -0.18 0.79 -11 -4.73 0 -0.79 0.18 0zm-0.18 0.79c-0.16,-0.07 -0.25,-0.3 -0.2,-0.52 0.05,-0.22 0.22,-0.34 0.38,-0.27l-0.18 0.79zm10.92 -1.44c-0.17,-0.04 -0.28,-0.26 -0.25,-0.48 0.03,-0.22 0.19,-0.37 0.36,-0.33l-0.11 0.81zm9.18 2.29l-9.18 -2.29 0.11 -0.81 9.18 2.29 0.25 0.42 -0.36 0.39zm0.11 -0.81c0.17,0.04 0.28,0.26 0.25,0.48 -0.03,0.22 -0.19,0.37 -0.36,0.33l0.11 -0.81zm-0.48 4.53l0.12 -4.14 0.61 0.03 -0.12 4.14 -0.61 -0.03zm0.61 0.03c-0.01,0.23 -0.15,0.4 -0.32,0.4 -0.17,-0.01 -0.3,-0.2 -0.29,-0.43l0.61 0.03zm0.97 4.21l-2.57 0 0 -0.82 2.57 0 0.28 0.25 -0.28 0.58zm0 -0.82c0.17,0 0.31,0.18 0.31,0.41 0,0.23 -0.14,0.41 -0.31,0.41l0 -0.82zm-1 -3.74l1.28 3.99 -0.56 0.33 -1.28 -3.99 0 -0.33 0.56 0zm-0.56 0.33c-0.07,-0.21 0,-0.45 0.16,-0.54 0.15,-0.09 0.33,0 0.4,0.21l-0.56 0.33zm-1.29 3.66l1.29 -3.99 0.56 0.33 -1.29 3.99 -0.28 0.25 -0.28 -0.58zm0.56 0.33c-0.07,0.21 -0.25,0.3 -0.4,0.21 -0.15,-0.09 -0.22,-0.33 -0.16,-0.54l0.56 0.33zm-14.45 -1.73c0,0.23 -0.14,0.41 -0.31,0.41 -0.17,0 -0.31,-0.18 -0.31,-0.41l0.61 0zm0 -5.44l0 5.44 -0.61 0 0 -5.44 0.61 0zm-0.61 0c0,-0.23 0.14,-0.41 0.31,-0.41 0.17,0 0.31,0.18 0.31,0.41l-0.61 0zm13.66 0c0,-0.23 0.14,-0.41 0.31,-0.41 0.17,0 0.31,0.18 0.31,0.41l-0.61 0zm0 5.44l0 -5.44 0.61 0 0 5.44 -0.61 0zm0.61 0c0,0.23 -0.14,0.41 -0.31,0.41 -0.17,0 -0.31,-0.18 -0.31,-0.41l0.61 0z"/>
  </g>
 </g>
</svg>
