<?xml version="1.0" encoding="UTF-8"?>
<!DOCTYPE svg PUBLIC "-//W3C//DTD SVG 1.1//EN" "http://www.w3.org/Graphics/SVG/1.1/DTD/svg11.dtd">
<!-- Creator: CorelDRAW 2020 (64-Bit) -->
<svg xmlns="http://www.w3.org/2000/svg" xml:space="preserve" width="4.3529mm" height="5.7612mm" version="1.1" style="shape-rendering:geometricPrecision; text-rendering:geometricPrecision; image-rendering:optimizeQuality; fill-rule:evenodd; clip-rule:evenodd"
viewBox="0 0 15.44 20.44"
 xmlns:xlink="http://www.w3.org/1999/xlink"
 xmlns:xodm="http://www.corel.com/coreldraw/odm/2003">
 <defs>
  <style type="text/css">
   <![CDATA[
    .str2 {stroke:#559666;stroke-width:0.71;stroke-linecap:round;stroke-linejoin:round;stroke-miterlimit:22.9256}
    .str3 {stroke:#559666;stroke-width:0.71;stroke-linecap:round;stroke-linejoin:round;stroke-miterlimit:22.9256}
    .str0 {stroke:#559666;stroke-width:0.71;stroke-linecap:round;stroke-linejoin:round;stroke-miterlimit:22.9256}
    .str1 {stroke:#559666;stroke-width:0.71;stroke-linecap:round;stroke-linejoin:round;stroke-miterlimit:22.9256}
    .str5 {stroke:#559666;stroke-width:0.71;stroke-linecap:round;stroke-linejoin:round;stroke-miterlimit:22.9256}
    .str4 {stroke:#559666;stroke-width:0.71;stroke-linecap:round;stroke-linejoin:round;stroke-miterlimit:22.9256}
    .fil0 {fill:none}
   ]]>
  </style>
 </defs>
 <g id="Слой_x0020_1">
  <metadata id="CorelCorpID_0Corel-Layer"/>
  <g id="_1803065924368">
   <g>
    <path class="fil0 str0" d="M3.76 19.55l8.15 0c2.43,-0.04 2.18,-1.8 1.58,-1.98 1.52,-0 1.74,-2.02 0.48,-2.42 1.43,-0.1 1.48,-2.18 0.15,-2.42 1.19,-0.38 1.08,-2.31 -0.44,-2.27l-5.63 -0.14"/>
   </g>
   <g>
    <path class="fil0 str1" d="M3.91 11.61c0.29,-0.13 0.93,-0.49 1.36,-1.23 0.57,-0.97 1.75,-2.18 2.21,-2.95 0.46,-0.77 0.89,-2.21 0.97,-2.87 0.09,-0.66 0.11,-0.8 0.11,-0.8 0,0 0.83,-0.57 1.49,0.23 0.66,0.8 1.15,1.86 0.8,2.78 -0.34,0.92 -0.89,1.35 -1.06,1.69 -0.17,0.34 -0.17,1.9 -0.17,1.9"/>
   </g>
   <g>
    <polygon class="fil0 str2" points="0.35,10.8 3.77,10.8 3.77,20.08 0.35,20.08 "/>
   </g>
   <g>
    <line class="fil0 str3" x1="6.01" y1="1.61" x2="7.25" y2= "2.85" />
   </g>
   <g>
    <line class="fil0 str4" x1="9.19" y1="0.35" x2="9.2" y2= "2.11" />
   </g>
   <g>
    <line class="fil0 str5" x1="12.34" y1="1.53" x2="11.09" y2= "2.76" />
   </g>
  </g>
 </g>
</svg>
