<?xml version="1.0" encoding="UTF-8"?>
<!DOCTYPE svg PUBLIC "-//W3C//DTD SVG 1.1//EN" "http://www.w3.org/Graphics/SVG/1.1/DTD/svg11.dtd">
<!-- Creator: CorelDRAW 2020 (64-Bit) -->
<svg xmlns="http://www.w3.org/2000/svg" xml:space="preserve" width="6.0924mm" height="4.2392mm" version="1.1" style="shape-rendering:geometricPrecision; text-rendering:geometricPrecision; image-rendering:optimizeQuality; fill-rule:evenodd; clip-rule:evenodd"
viewBox="0 0 30.68 21.35"
 xmlns:xlink="http://www.w3.org/1999/xlink"
 xmlns:xodm="http://www.corel.com/coreldraw/odm/2003">
 <defs>
  <style type="text/css">
   <![CDATA[
    .str1 {stroke:#559666;stroke-width:1.01;stroke-miterlimit:22.9256}
    .str0 {stroke:#559666;stroke-width:1.01;stroke-linecap:round;stroke-linejoin:round;stroke-miterlimit:22.9256}
    .fil0 {fill:none}
   ]]>
  </style>
 </defs>
 <g id="Слой_x0020_1">
  <metadata id="CorelCorpID_0Corel-Layer"/>
  <g id="_1767736356256">
   <path class="fil0 str0" d="M2.99 3.43l4.88 0.22 -0.3 1.56 -2.04 10.55 -5.03 0.88m12.94 -12.64l-5.9 1.33m-1.69 8.76c0,0 4.97,4.16 6.16,5.18 0.83,0.71 3.39,2.7 5.08,0.71m-3.3 -2.97c0,0 2.19,1.99 3.21,2.89 1.4,1.24 3.56,-0.45 2.82,-1.96m-3.52 -3.26c0,0 3.29,3.07 3.58,3.29 1.46,1.28 3.29,-0.8 2.42,-1.81m-4.03 -3.55c0,0 3.87,3.54 4.17,3.63 1.44,0.52 2.53,-1.61 1.44,-2.66l-7.7 -6.29 -1.17 1.11c-0.26,1.35 -2.92,3.74 -4.24,1.45 -0.27,-0.76 0.15,-1.24 0.32,-1.66 0.13,-0.32 1.5,-2.95 2.51,-4.4 0.67,-0.96 1.46,-1.57 2.68,-1.61 0.65,-0.02 5.19,1.19 6.66,1.59m2.63 -3.28l-3.27 1.51 3.85 11.29 4.02 -1.22m-4.65 -0.58l-1.8 1.85"/>
   <line class="fil0 str1" x1="30.18" y1="12.08" x2="25.57" y2= "0.5" />
   <line class="fil0 str1" x1="2.99" y1="3.43" x2="0.5" y2= "16.64" />
  </g>
 </g>
</svg>
