<svg width="24" height="24" viewBox="0 0 24 24" fill="none" xmlns="http://www.w3.org/2000/svg">
<path d="M14.1562 15.9375H8.4375V17.8125H14.1562V15.9375Z" fill="#50966E"/>
<path d="M19.3125 12.1875H8.4375V14.0625H19.3125V12.1875Z" fill="#50966E"/>
<path d="M21.1875 3.75H20.25V2.8125C20.25 1.26169 18.9883 0 17.4375 0H2.8125C1.26169 0 0 1.26169 0 2.8125V17.4375C0 18.9883 1.26169 20.25 2.8125 20.25H3.75V21.1875C3.75 22.7383 5.01169 24 6.5625 24H17.3357L24 17.3037V6.5625C24 5.01169 22.7383 3.75 21.1875 3.75ZM3.75 6.5625V18.375H2.8125C2.29556 18.375 1.875 17.9544 1.875 17.4375V2.8125C1.875 2.29556 2.29556 1.875 2.8125 1.875H17.4375C17.9544 1.875 18.375 2.29556 18.375 2.8125V3.75H6.5625C5.01169 3.75 3.75 5.01169 3.75 6.5625ZM17.901 20.7739V18.7917C17.901 18.2747 18.3216 17.8542 18.8385 17.8542H20.8068L17.901 20.7739ZM22.125 15.9792H18.8385C17.2877 15.9792 16.026 17.2409 16.026 18.7917V22.125H6.5625C6.04556 22.125 5.625 21.7044 5.625 21.1875V6.5625C5.625 6.04556 6.04556 5.625 6.5625 5.625H21.1875C21.7044 5.625 22.125 6.04556 22.125 6.5625V15.9792Z" fill="#50966E"/>
<path d="M19.3125 8.4375H8.4375V10.3125H19.3125V8.4375Z" fill="#50966E"/>
</svg>
