<svg width="32" height="32" viewBox="0 0 32 32" fill="none" xmlns="http://www.w3.org/2000/svg">
<g clip-path="url(#clip0)">
<path d="M31.4309 15.3707C31.3605 15.2929 29.6757 13.4436 26.9488 11.5791C23.3032 9.08636 19.5173 7.7688 16 7.7688C12.4827 7.7688 8.69675 9.08636 5.05119 11.579C2.32431 13.4436 0.6395 15.2929 0.569125 15.3707L0 15.9999L0.569125 16.629C0.6395 16.7068 2.32431 18.5561 5.05119 20.4207C8.69675 22.9134 12.4827 24.2309 16 24.2309C19.5173 24.2309 23.3032 22.9134 26.9488 20.4207C29.6757 18.5561 31.3605 16.7069 31.4309 16.629L32 15.9999L31.4309 15.3707ZM22.3592 15.9999C22.3592 19.3962 19.6828 22.1792 16.3283 22.3506C16.2191 22.3534 16.1098 22.3552 16.0001 22.3552C15.8887 22.3552 15.7777 22.3533 15.6669 22.3503C12.3146 22.1764 9.64087 19.3945 9.64087 15.9999C9.64087 12.6035 12.3173 9.82049 15.6718 9.64911C15.7809 9.6463 15.8903 9.64449 16 9.64449C16.1114 9.64449 16.2224 9.64649 16.3332 9.64942C19.6854 9.8233 22.3592 12.6052 22.3592 15.9999ZM2.58175 16.0002C3.66562 14.9543 6.08775 12.8246 9.2285 11.3194C8.30638 12.6494 7.76512 14.2625 7.76512 15.9999C7.76512 17.7364 8.30594 19.3486 9.22719 20.6782C8.05494 20.1184 7.01256 19.4873 6.148 18.8983C4.52306 17.7914 3.27731 16.6725 2.58175 16.0002ZM22.7708 20.6807C23.6932 19.3505 24.2349 17.7375 24.2349 15.9999C24.2349 14.2635 23.6943 12.6512 22.7731 11.3217C23.9452 11.8814 24.9875 12.5125 25.852 13.1014C27.477 14.2084 28.7226 15.3271 29.4182 15.9995C28.3342 17.0455 25.9119 19.1754 22.7708 20.6807Z" fill="#50966E"/>
<path d="M12.2268 15.9998C12.2268 18.0804 13.9194 19.7731 16.0001 19.7731C18.0807 19.7731 19.7733 18.0804 19.7733 15.9998C19.7733 13.9192 18.0807 12.2266 16.0001 12.2266C13.9194 12.2266 12.2268 13.9192 12.2268 15.9998ZM17.8976 15.9998C17.8976 17.0461 17.0464 17.8974 16.0001 17.8974C14.9537 17.8974 14.1025 17.0461 14.1025 15.9998C14.1025 14.9535 14.9537 14.1022 16.0001 14.1022C17.0464 14.1022 17.8976 14.9535 17.8976 15.9998Z" fill="#50966E"/>
</g>
<defs>
<clipPath id="clip0">
<rect width="32" height="32" fill="white"/>
</clipPath>
</defs>
</svg>
