<svg width="25" height="25" viewBox="0 0 25 25" fill="none" xmlns="http://www.w3.org/2000/svg">
<path d="M5.78099 16.4006C2.94028 12.9917 1.82943 10.0428 1.52533 7.78754C1.19045 5.3041 2.87931 3.18918 4.88406 1.68564C5.384 1.31069 6.09128 1.40027 6.48197 1.888L9.34723 5.46505C9.87016 6.11787 9.9316 7.02716 9.50126 7.7444L8.84635 8.83591C7.93244 10.2068 8.61713 11.5772 10.6742 13.8624C11.9285 15.2558 13.0613 15.8634 13.927 16.1395C14.8479 16.4331 15.8248 15.9763 16.4747 15.2609L17.082 14.5924C17.4289 14.2105 18.0094 14.1552 18.4222 14.4648L22.2778 17.3566C23.0524 17.9375 23.2491 19.0168 22.7293 19.8336C21.1108 22.377 18.402 23.8055 15.5614 22.796C12.4601 21.6939 8.50104 19.6647 5.78099 16.4006Z" stroke="#50966E" stroke-width="2" stroke-linecap="round" stroke-linejoin="round"/>
</svg>
